<?xml version="1.0" encoding="UTF-8" standalone="no"?>
<!-- Created with Sodipodi ("http://www.sodipodi.com/") -->
<svg
   xmlns:dc="http://purl.org/dc/elements/1.1/"
   xmlns:cc="http://web.resource.org/cc/"
   xmlns:rdf="http://www.w3.org/1999/02/22-rdf-syntax-ns#"
   xmlns:svg="http://www.w3.org/2000/svg"
   xmlns="http://www.w3.org/2000/svg"
   xmlns:sodipodi="http://inkscape.sourceforge.net/DTD/sodipodi-0.dtd"
   xmlns:inkscape="http://www.inkscape.org/namespaces/inkscape"
   version="1"
   x="0"
   y="0"
   width="60"
   height="60"
   viewBox="0 0 42.5 48"
   id="svg456"
   sodipodi:version="0.32"
   inkscape:version="0.43"
   sodipodi:docname="start-here.svg"
   sodipodi:docbase="/home/luca/Artwork/blackwhite-icon-theme/scalable/places">
  <metadata
     id="metadata6993">
    <rdf:RDF>
      <cc:Work
         rdf:about="">
        <dc:format>image/svg+xml</dc:format>
        <dc:type
           rdf:resource="http://purl.org/dc/dcmitype/StillImage" />
        <cc:license
           rdf:resource="http://creativecommons.org/licenses/LGPL/2.1/" />
        <dc:title>Start Here Icon</dc:title>
        <dc:subject>
          <rdf:Bag>
            <rdf:li>start</rdf:li>
            <rdf:li>applications</rdf:li>
            <rdf:li>launchers</rdf:li>
          </rdf:Bag>
        </dc:subject>
        <dc:description>The GNOME logo</dc:description>
      </cc:Work>
      <cc:License
         rdf:about="http://creativecommons.org/licenses/LGPL/2.1/">
        <cc:permits
           rdf:resource="http://web.resource.org/cc/Reproduction" />
        <cc:permits
           rdf:resource="http://web.resource.org/cc/Distribution" />
        <cc:requires
           rdf:resource="http://web.resource.org/cc/Notice" />
        <cc:permits
           rdf:resource="http://web.resource.org/cc/DerivativeWorks" />
        <cc:requires
           rdf:resource="http://web.resource.org/cc/ShareAlike" />
        <cc:requires
           rdf:resource="http://web.resource.org/cc/SourceCode" />
      </cc:License>
    </rdf:RDF>
  </metadata>
  <sodipodi:namedview
     inkscape:window-height="948"
     inkscape:window-width="1280"
     inkscape:pageshadow="2"
     inkscape:pageopacity="0.0"
     borderopacity="1.0"
     bordercolor="#666666"
     pagecolor="#ffffff"
     id="base"
     showgrid="true"
     inkscape:grid-bbox="false"
     inkscape:grid-points="false"
     inkscape:zoom="6.7166667"
     inkscape:cx="30"
     inkscape:cy="30"
     inkscape:window-x="6"
     inkscape:window-y="46"
     inkscape:current-layer="svg456" />
  <defs
     id="defs522" />
  <g
     style="font-size:12;stroke:#000000;"
     id="Layer_x0020_2">
    <path
       d="M 42.5 48 L 0 48 L 0 0 L 42.5 0 L 42.5 48 z "
       style="fill:none;stroke:none;"
       id="path480" />
  </g>
  <g
     transform="translate(-3.15989,-0.902828)"
     style="font-size:12;opacity:0.5;fill:#ffffff;stroke:#ffffff;stroke-opacity:1"
     id="g505">
    <path
       d="M 28.2 17.8 C 25.2 17.8 24.6 22.1 26.3 22.1 C 28 22.1 31.2 17.8 28.2 17.8 z "
       id="path506"
       style="stroke:#ffffff;stroke-opacity:1" />
    <path
       d="M 23.1 21.5 C 24 21.6 25 18 23.3 18.3 C 21.6 18.5 22.2 21.5 23.1 21.5 z "
       id="path507"
       style="stroke:#ffffff;stroke-opacity:1" />
    <path
       d="M 19 23.7 C 19.6 23.4 19.1 20.6 18 21.4 C 16.9 22.2 18.4 24 19 23.7 z "
       id="path508"
       style="stroke:#ffffff;stroke-opacity:1" />
    <path
       d="M 20.8 22.3 C 21.6 22.1 21.6 19 20.2 19.6 C 18.8 20.2 20 22.5 20.8 22.3 z "
       id="path509"
       style="stroke:#ffffff;stroke-opacity:1" />
    <path
       d="M 24.8 29.3 C 24.9 30.3 24 30.9 23.2 30.2 C 20.4 28.1 27.9 27 27.4 24.1 C 27 21.7 19.5 22.4 18.7 26.2 C 18 28.8 21 32.3 24 32.3 C 25.5 32.3 27.2 30.9 27.6 29.2 C 27.8 27.9 24.7 28.4 24.8 29.3 L 24.8 29.3 z "
       id="newshape"
       style="stroke:#ffffff;stroke-opacity:1" />
  </g>
  <path
     d="M 35.158167,2 C 27.329167,2 24.572753,15.824918 30.199767,16 C 39.753772,16.303697 42.986967,2 35.158167,2 z "
     style="font-size:12px;fill:#000000;fill-opacity:1;stroke:#ffffff;stroke-width:2.79999995;stroke-miterlimit:4;stroke-dasharray:none;stroke-opacity:1"
     id="path512"
     sodipodi:nodetypes="csc" />
  <path
     d="M 22.119467,15.470027 C 27.006608,15.899934 29.069081,4.2528853 22.054233,4.2214231 C 16.503684,4.1969441 17.946967,15.470027 22.119467,15.470027 z "
     style="font-size:12;fill:#000000;stroke:#ffffff;stroke-width:2.8;stroke-miterlimit:4;stroke-dasharray:none;stroke-opacity:1;fill-opacity:1"
     id="path513"
     sodipodi:nodetypes="csc" />
  <path
     d="M 10.47981,21.845154 C 16.378322,17.660173 8.0553784,9.2862538 4.6983662,11.318579 C -0.16046099,14.2601 4.7002559,22.694947 10.47981,21.845154 z "
     style="font-size:12;fill:#000000;stroke:#ffffff;stroke-width:3.5;stroke-miterlimit:4;stroke-dasharray:none;stroke-opacity:1;fill-opacity:1"
     id="path514"
     sodipodi:nodetypes="csc" />
  <path
     d="M 16.346907,17.555933 C 20.136614,15.600359 19.275119,5.2348989 12.909093,6.6998629 C 6.7352036,8.1206122 11.12772,19.153987 16.346907,17.555933 z "
     style="font-size:12;fill:#000000;stroke:#ffffff;stroke-width:2.8;stroke-miterlimit:4;stroke-dasharray:none;stroke-opacity:1;fill-opacity:1"
     id="path515"
     sodipodi:nodetypes="csc" />
  <path
     d="M 26.614723,34.328406 C 25.960085,37.362606 25.424048,38.333037 23.052277,36.251735 C 14.750673,30.007925 36.510254,33.764643 34.670533,21.211667 C 30.745136,11.455578 9.9386383,15.442492 8.8769021,27.455574 C 7.097964,35.185905 15.99247,45.592319 24.886759,45.592319 C 29.33396,45.592319 35.619443,39.877402 35.560134,36.375179 C 35.492594,32.386885 33.254776,30.104534 29.759887,30.955304 C 27.103456,31.601966 26.989816,32.589875 26.614723,34.328406 z "
     style="font-size:12px;fill:#000000;fill-opacity:1;stroke:#ffffff;stroke-width:3.13429689;stroke-linecap:round;stroke-linejoin:bevel;stroke-miterlimit:4;stroke-dasharray:none;stroke-opacity:1"
     id="path516"
     sodipodi:nodetypes="ccccssss" />
</svg>
