<?xml version="1.0" encoding="iso-8859-1"?>
<!-- Generator: Adobe Illustrator 9.0, SVG Export Plug-In  -->
<!DOCTYPE svg PUBLIC "-//W3C//DTD SVG 20000303 Stylable//EN"   "http://www.w3.org/TR/2000/03/WD-SVG-20000303/DTD/svg-20000303-stylable.dtd" [
	<!ENTITY st0 "fill:#000000;stroke:none;">
	<!ENTITY st1 "fill:#FFFFFF;stroke:none;">
	<!ENTITY st2 "fill-rule:nonzero;clip-rule:nonzero;fill:none;stroke:#FFFFFF;stroke-width:6.4814;stroke-linejoin:round;stroke-miterlimit:4;">
	<!ENTITY st3 "fill:none;stroke:none;">
	<!ENTITY st4 "fill-rule:nonzero;clip-rule:nonzero;stroke:#000000;stroke-miterlimit:4;">
]>
<svg  width="48pt" height="48pt" viewBox="0 0 48 48" xml:space="preserve">
	<g id="Layer_x0020_3" style="&st2;">
		<g>
			<path d="M24,6.3c-7.9,0-14.3,2.8-14.3,6.2v24.2c0,3.4,6.4,6.2,14.3,6.2c7.9,0,14.3-2.8,14.3-6.2V12.6c0-3.4-6.4-6.2-14.3-6.2z"/>
			<path d="M24,4.9c-8.8,0-16,3.1-16,7v5.8c0,3.9,7.2,7,16,7c8.8,0,16-3.1,16-7v-5.8c0-3.9-7.2-7-16-7z"/>
			<path style="&st0;" d="M24,6.4c-7.9,0-14.3,2.8-14.3,6.2v24.2c0,3.4,6.4,6.2,14.3,6.2c7.9,0,14.3-2.8,14.3-6.2V12.7c0-3.4-6.4-6.2-14.3-6.2z"/>
			<path style="&st0;" d="M24,5C15.2,5,8,8.1,8,12v5.8c0,3.9,7.2,7,16,7c8.8,0,16-3.1,16-7V12c0-3.9-7.2-7-16-7z"/>
			<path style="&st1;" d="M35.8,12.1c0,2.3-5.2,4.1-11.6,4.1c-6.4,0-11.6-1.9-11.6-4.1c0-2.3,5.2-4.1,11.6-4.1c6.4,0,11.6,1.9,11.6,4.1z"/>
		</g>
	</g>
	<g id="crop_x0020_marks" style="&st4;">
		<path style="&st3;" d="M48,48H0V0h48v48z"/>
	</g>
</svg>
