<?xml version="1.0" encoding="UTF-8" standalone="no"?>
<!-- Generator: Adobe Illustrator 9.0, SVG Export Plug-In  -->
<svg
   xmlns:dc="http://purl.org/dc/elements/1.1/"
   xmlns:cc="http://creativecommons.org/ns#"
   xmlns:rdf="http://www.w3.org/1999/02/22-rdf-syntax-ns#"
   xmlns:svg="http://www.w3.org/2000/svg"
   xmlns="http://www.w3.org/2000/svg"
   xmlns:sodipodi="http://sodipodi.sourceforge.net/DTD/sodipodi-0.dtd"
   xmlns:inkscape="http://www.inkscape.org/namespaces/inkscape"
   width="48pt"
   height="48pt"
   viewBox="0 0 48 48"
   xml:space="preserve"
   id="svg2"
   sodipodi:version="0.32"
   inkscape:version="0.46"
   sodipodi:docname="folder-drag-accept.svg"
   inkscape:output_extension="org.inkscape.output.svg.inkscape"><metadata
   id="metadata19"><rdf:RDF><cc:Work
       rdf:about=""><dc:format>image/svg+xml</dc:format><dc:type
         rdf:resource="http://purl.org/dc/dcmitype/StillImage" /></cc:Work></rdf:RDF></metadata><defs
   id="defs17" /><sodipodi:namedview
   inkscape:window-height="480"
   inkscape:window-width="640"
   inkscape:pageshadow="2"
   inkscape:pageopacity="0.0"
   guidetolerance="10.0"
   gridtolerance="10.0"
   objecttolerance="10.0"
   borderopacity="1.0"
   bordercolor="#666666"
   pagecolor="#ffffff"
   id="base" />
	<g
   id="Layer_x0020_4"
   style="fill-rule:nonzero;clip-rule:nonzero;stroke:#000000;stroke-miterlimit:4;">
		<g
   id="g5">
			<path
   style="fill:none;stroke:#FFFFFF;stroke-width:6.709;"
   d="M7.1,10.6c-1.3,0-2.3,1-2.3,2.3l0.1,22.3c0,1.4,0.9,2.3,2.3,2.3c0,0,0.1,0,0.1,0h0h27.5c1.1,0,2.1-0.6,2.9-1.6c0.6-0.9,2.2-4.5,3.1-6.8c1.6-4.1,2.5-6.7,2.5-7.9c0-0.3,0-1.2-0.7-1.7c-0.6-0.5-1.4-0.6-2.2-0.6c0,0-2.4,0-4,0     c0-0.8,0-1.7,0-1.7c0-1.3-0.9-2.2-2.2-2.2c0,0-11.6,0-14,0c0-1.1,0-2.2,0-2.2c0-1.2-1-2.2-2.3-2.2H7.1z"
   id="path7" />
			<path
   style="stroke:none;"
   d="M7.1,10.6c-1.3,0-2.3,1-2.3,2.3l0.1,22.3c0,1.4,0.9,2.3,2.3,2.3c0,0,0.1,0,0.1,0h0h27.5c1.1,0,2.1-0.6,2.9-1.6c0.6-0.9,2.2-4.5,3.1-6.8c1.6-4.1,2.5-6.7,2.5-7.9c0-0.3,0-1.2-0.7-1.7c-0.6-0.5-1.4-0.6-2.2-0.6c0,0-2.4,0-4,0     c0-0.8,0-1.7,0-1.7c0-1.3-0.9-2.2-2.2-2.2c0,0-11.6,0-14,0c0-1.1,0-2.2,0-2.2c0-1.2-1-2.2-2.3-2.2H7.1z"
   id="path9" />
			<path
   style="fill:#FFFFFF;stroke:none;"
   d="M8.9,35.3h25.1c0.6,0,1.2-0.4,1.5-0.9c0.7-1,4.8-10.6,4.8-12.5c0-0.4,0-0.7-1.3-0.7H14.9c-0.4,0-0.8,0.1-0.9,0.7c-0.1,1.5-3.2,11.8-4.3,13.1c-0.3,0.4-0.9,0.4-0.9,0.4z"
   id="path11" />
		</g>
	</g>
	<g
   id="crop_x0020_marks"
   style="fill-rule:nonzero;clip-rule:nonzero;stroke:#000000;stroke-miterlimit:4;">
		<path
   style="fill:none;stroke:none;"
   d="M48,48H0V0h48v48z"
   id="path14" />
	</g>
</svg>