<?xml version="1.0" encoding="iso-8859-1"?>
<!-- Generator: Adobe Illustrator 9.0, SVG Export Plug-In  -->
<!DOCTYPE svg PUBLIC "-//W3C//DTD SVG 20000303 Stylable//EN"   "http://www.w3.org/TR/2000/03/WD-SVG-20000303/DTD/svg-20000303-stylable.dtd" [
	<!ENTITY st0 "fill:none;stroke:#FFFFFF;stroke-width:7.504;stroke-linejoin:round;">
	<!ENTITY st1 "fill:none;stroke-width:3.3351;stroke-linecap:round;stroke-linejoin:round;">
	<!ENTITY st2 "fill:none;stroke:none;">
	<!ENTITY st3 "fill-rule:nonzero;clip-rule:nonzero;stroke:#000000;stroke-miterlimit:4;">
]>
<svg  width="48pt" height="48pt" viewBox="0 0 48 48" xml:space="preserve">
	<g id="Layer_x0020_3" style="&st3;">
		<g>
			<path style="&st0;" d="M18.3,5.4c-0.7,0-1.3,0.6-1.3,1.3v18.9c0,0.4,0.2,0.8,0.5,1l6.1,4.6c0.5,0.4,1.1,0.3,1.6-0.1l5.1-4.4c0.3-0.2,0.4-0.6,0.4-0.9V15c0-0.7-0.6-1.3-1.3-1.3c-0.7,0-1.3,0.6-1.3,1.3c0,0,0,9.1,0,10.1c-0.6,0.5-2.9,2.5-3.9,3.4
				c-1.1-0.8-4.1-3.1-4.8-3.6c0-1.1,0-15,0-17.1c1.9,0,10.3,0,12.2,0c0,2.2,0,24.5,0,25.6c-0.8,0.6-6.4,5.1-7.6,6.1c-1.2-0.9-7.1-5.1-7.9-5.7c0-1.2,0-18.5,0-18.5c0-0.7-0.6-1.3-1.3-1.3c-0.7,0-1.3,0.6-1.3,1.3v19.2c0,0.4,0.2,0.8,0.5,1l9.2,6.7
				c0.5,0.3,1.1,0.3,1.5,0l8.8-7.1c0.3-0.2,0.5-0.6,0.5-1V6.6c0-0.7-0.6-1.3-1.3-1.3H18.3z"/>
			<path style="&st1;" d="M14.3,15.3v19.2l9.9,6.7l8.8-7.1V6.6H18.3v18.9l6.1,4.6l5.1-4.5V15"/>
		</g>
	</g>
	<g id="crop_x0020_marks" style="&st3;">
		<path style="&st2;" d="M48,48H0V0h48v48z"/>
	</g>
</svg>
