<?xml version="1.0" encoding="iso-8859-1"?>
<!-- Generator: Adobe Illustrator 9.0, SVG Export Plug-In  -->
<!DOCTYPE svg PUBLIC "-//W3C//DTD SVG 20000303 Stylable//EN"   "http://www.w3.org/TR/2000/03/WD-SVG-20000303/DTD/svg-20000303-stylable.dtd" [
	<!ENTITY st0 "stroke:#FFFFFF;stroke-width:5.0958;stroke-linejoin:round;">
	<!ENTITY st1 "fill:none;stroke:none;">
	<!ENTITY st2 "fill-rule:nonzero;clip-rule:nonzero;stroke:#000000;stroke-miterlimit:4;">
	<!ENTITY st3 "stroke:none;">
	<!ENTITY st4 "stroke:#FFFFFF;stroke-width:7.1726;stroke-linejoin:round;">
]>
<svg  width="48pt" height="48pt" viewBox="0 0 48 48" xml:space="preserve">
	<g id="Layer_x0020_4" style="&st2;">
		<g style="&st3;">
			<g>
				<path style="&st4;" d="M31.8,10.1c0,0-3.2,0-10.2,0c-7,0-8.3,11.3-8.3,11.3H5.1v5.3h8.1c0,0,1.3,11.3,8.3,11.3c7,0,10.2,0,10.2,0V10.1z"/>
			</g>
			<path style="&st0;" d="M40.6,29.2H31v4.5h9.6c1.3,0,2.3-1,2.3-2.3c0-1.3-1-2.3-2.3-2.3z"/>
			<path style="&st0;" d="M40.6,13.7H31v4.5h9.6c1.3,0,2.3-1,2.3-2.3c0-1.3-1-2.3-2.3-2.3z"/>
			<path d="M40.6,29.2H31v4.5h9.6c1.3,0,2.3-1,2.3-2.3c0-1.3-1-2.3-2.3-2.3z"/>
			<path d="M40.6,13.7H31v4.5h9.6c1.3,0,2.3-1,2.3-2.3c0-1.3-1-2.3-2.3-2.3z"/>
			<g>
				<path d="M31.8,10.1c0,0-3.2,0-10.2,0c-7,0-8.3,11.3-8.3,11.3H5.1v5.3h8.1c0,0,1.3,11.3,8.3,11.3c7,0,10.2,0,10.2,0V10.1z"/>
			</g>
		</g>
	</g>
	<g id="crop_x0020_marks" style="&st2;">
		<path style="&st1;" d="M48,48H0V0h48v48z"/>
	</g>
</svg>
