<?xml version="1.0" encoding="iso-8859-1"?>
<!-- Generator: Adobe Illustrator 9.0, SVG Export Plug-In  -->
<!DOCTYPE svg PUBLIC "-//W3C//DTD SVG 20000303 Stylable//EN"   "http://www.w3.org/TR/2000/03/WD-SVG-20000303/DTD/svg-20000303-stylable.dtd" [
	<!ENTITY st0 "fill:none;stroke:#FFFFFF;stroke-width:6.5067;stroke-linejoin:round;">
	<!ENTITY st1 "fill:none;stroke:none;">
	<!ENTITY st2 "fill-rule:nonzero;clip-rule:nonzero;stroke:#000000;stroke-miterlimit:4;">
	<!ENTITY st3 "stroke:none;">
]>
<svg  width="48pt" height="48pt" viewBox="0 0 48 48" xml:space="preserve">
	<g id="Layer_x0020_3" style="&st2;">
		<g style="&st3;">
			<g>
				<g>
					<path d="M37.7,22c0,0-0.4-10.6-6.3-10.6c-5.9,0-5.9,0-5.9,0v25.3c0,0-0.2,0,5.9,0c6,0,6.3-10.6,6.3-10.6h5.4v-4h-5.4z"/>
					<path d="M22.8,11.4c0,0,0,0-5.3,0c-5.3,0-6.3,10.6-6.3,10.6H4.9v4h6.2c0,0,1,10.6,6.3,10.6s5.3,0,5.3,0V11.4z"/>
				</g>
				<g style="&st0;">
					<path d="M37.7,22c0,0-0.4-10.6-6.3-10.6c-5.9,0-5.9,0-5.9,0v25.3c0,0-0.2,0,5.9,0c6,0,6.3-10.6,6.3-10.6h5.4v-4h-5.4z"/>
					<path d="M22.8,11.4c0,0,0,0-5.3,0c-5.3,0-6.3,10.6-6.3,10.6H4.9v4h6.2c0,0,1,10.6,6.3,10.6s5.3,0,5.3,0V11.4z"/>
				</g>
			</g>
			<g>
				<path d="M37.7,22c0,0-0.4-10.6-6.3-10.6c-5.9,0-5.9,0-5.9,0v25.3c0,0-0.2,0,5.9,0c6,0,6.3-10.6,6.3-10.6h5.4v-4h-5.4z"/>
				<path d="M22.8,11.4c0,0,0,0-5.3,0c-5.3,0-6.3,10.6-6.3,10.6H4.9v4h6.2c0,0,1,10.6,6.3,10.6s5.3,0,5.3,0V11.4z"/>
			</g>
		</g>
	</g>
	<g id="crop_x0020_marks" style="&st2;">
		<path style="&st1;" d="M48,48H0V0h48v48z"/>
	</g>
</svg>
