<?xml version="1.0" encoding="iso-8859-1"?>
<!-- Generator: Adobe Illustrator 9.0, SVG Export Plug-In  -->
<!DOCTYPE svg PUBLIC "-//W3C//DTD SVG 20000303 Stylable//EN"   "http://www.w3.org/TR/2000/03/WD-SVG-20000303/DTD/svg-20000303-stylable.dtd" [
	<!ENTITY st0 "fill:#000000;stroke:none;">
	<!ENTITY st1 "stroke:#000000;stroke-width:3.4201;stroke-linejoin:miter;">
	<!ENTITY st2 "fill:#FFFFFF;stroke:none;">
	<!ENTITY st3 "stroke-width:6.823;stroke-linejoin:miter;">
	<!ENTITY st4 "fill:none;stroke:none;">
	<!ENTITY st5 "fill-rule:nonzero;clip-rule:nonzero;stroke:#000000;stroke-miterlimit:4;">
	<!ENTITY st6 "fill-rule:nonzero;clip-rule:nonzero;fill:none;stroke:#FFFFFF;stroke-width:7.4556;stroke-linejoin:round;stroke-miterlimit:4;">
]>
<svg  width="48pt" height="48pt" viewBox="0 0 48 48" xml:space="preserve">
	<g id="Layer_x0020_4" style="&st6;">
		<g>
			<path d="M40.8,41.5c0,0.4-0.3,0.7-0.7,0.7h-32c-0.4,0-0.7-0.3-0.7-0.7V40c0-0.4,0.3-0.7,0.7-0.7h32c0.4,0,0.7,0.3,0.7,0.7v1.5z"/>
			<path d="M42.4,39.5c0,0.4-0.3,0.7-0.7,0.7H6.8c-0.4,0-0.7-0.3-0.7-0.7V25.1c0-0.4,0.3-0.7,0.7-0.7h34.9c0.4,0,0.7,0.3,0.7,0.7v14.4z"/>
			<path d="M12.2,5.7c-1.3,0-2.4,1.1-2.4,2.4v18.1h28.8V8.1c0-1.3-1.1-2.4-2.4-2.4H12.2z"/>
			<path style="&st0;" d="M40.8,41.6c0,0.4-0.3,0.7-0.7,0.7h-32c-0.4,0-0.7-0.3-0.7-0.7v-1.5c0-0.4,0.3-0.7,0.7-0.7h32c0.4,0,0.7,0.3,0.7,0.7v1.5z"/>
			<path style="&st0;" d="M42.4,39.7c0,0.4-0.3,0.7-0.7,0.7H6.8c-0.4,0-0.7-0.3-0.7-0.7V25.3c0-0.4,0.3-0.7,0.7-0.7h34.9c0.4,0,0.7,0.3,0.7,0.7v14.4z"/>
			<path style="&st0;" d="M12.2,5.9c-1.3,0-2.4,1.1-2.4,2.4v18.1h28.8V8.2c0-1.3-1.1-2.4-2.4-2.4H12.2z"/>
			<path style="&st2;" d="M36,26.7H12.6V9c0-0.4,0.3-0.7,0.6-0.7h22.1C35.7,8.3,36,8.6,36,9v17.7z"/>
			<path style="&st1;" d="M16.8,20.7h14.4"/>
			<path style="&st1;" d="M16.8,14.2h14.4"/>
			<path style="&st3;" d="M37.7,34.2L30,26.5c-0.7-0.7-1.7-0.9-2.6-0.6c1.8-2.1,2.9-4.9,2.9-7.9c0-6.8-5.5-12.3-12.3-12.3C11.1,5.7,5.6,11.2,5.6,18c0,6.8,5.5,12.3,12.3,12.3c3,0,5.7-1.1,7.8-2.8c-0.3,0.9-0.1,1.9,0.6,2.7l7.7,7.7c1,1,2.7,1,3.7,0c1-1,1-2.6,0-3.7z
				 M17.9,27c-5,0-9-4.1-9-9c0-5,4.1-9,9-9c5,0,9,4.1,9,9c0,5-4.1,9-9,9z"/>
			<path style="&st0;" d="M37.7,34.2L30,26.5c-0.7-0.7-1.7-0.9-2.6-0.6c1.8-2.1,2.9-4.9,2.9-7.9c0-6.8-5.5-12.3-12.3-12.3C11.1,5.7,5.6,11.2,5.6,18c0,6.8,5.5,12.3,12.3,12.3c3,0,5.7-1.1,7.8-2.8c-0.3,0.9-0.1,1.9,0.6,2.7l7.7,7.7c1,1,2.7,1,3.7,0c1-1,1-2.6,0-3.7z
				 M17.9,27c-5,0-9-4.1-9-9c0-5,4.1-9,9-9c5,0,9,4.1,9,9c0,5-4.1,9-9,9z"/>
		</g>
	</g>
	<g id="crop_x0020_marks" style="&st5;">
		<path style="&st4;" d="M48,48H0V0h48v48z"/>
	</g>
</svg>
