<?xml version="1.0" encoding="UTF-8" standalone="no"?>
<!-- Generator: Adobe Illustrator 9.0, SVG Export Plug-In  -->
<svg
   xmlns:dc="http://purl.org/dc/elements/1.1/"
   xmlns:cc="http://creativecommons.org/ns#"
   xmlns:rdf="http://www.w3.org/1999/02/22-rdf-syntax-ns#"
   xmlns:svg="http://www.w3.org/2000/svg"
   xmlns="http://www.w3.org/2000/svg"
   xmlns:sodipodi="http://sodipodi.sourceforge.net/DTD/sodipodi-0.dtd"
   xmlns:inkscape="http://www.inkscape.org/namespaces/inkscape"
   width="48pt"
   height="48pt"
   viewBox="0 0 48 48"
   xml:space="preserve"
   id="svg2"
   sodipodi:version="0.32"
   inkscape:version="0.46"
   sodipodi:docname="document-save-as.svg"
   inkscape:output_extension="org.inkscape.output.svg.inkscape"><metadata
   id="metadata37"><rdf:RDF><cc:Work
       rdf:about=""><dc:format>image/svg+xml</dc:format><dc:type
         rdf:resource="http://purl.org/dc/dcmitype/StillImage" /></cc:Work></rdf:RDF></metadata><defs
   id="defs35" /><sodipodi:namedview
   inkscape:window-height="480"
   inkscape:window-width="640"
   inkscape:pageshadow="2"
   inkscape:pageopacity="0.0"
   guidetolerance="10.0"
   gridtolerance="10.0"
   objecttolerance="10.0"
   borderopacity="1.0"
   bordercolor="#666666"
   pagecolor="#ffffff"
   id="base" />
	<g
   id="Layer_x0020_4"
   style="fill-rule:nonzero;clip-rule:nonzero;stroke:#000000;stroke-miterlimit:4;">
		<g
   style="stroke:none;"
   id="g5">
			<path
   style="fill:none;stroke:#FFFFFF;stroke-width:12.3375;stroke-linecap:round;stroke-linejoin:round;"
   d="M37.3,37H11.7l-3.5-3.5V9.4h29.2V37z"
   id="path7" />
			<path
   style="fill:none;stroke:#000000;stroke-width:6.1688;stroke-linecap:round;stroke-linejoin:round;"
   d="M37.3,37H11.7l-3.5-3.5V9.4h29.2V37z"
   id="path9" />
			<path
   d="M37.3,37H11.7l-3.5-3.5V9.4h29.2V37z"
   id="path11" />
			<path
   style="fill:#FFFFFF;stroke:#000000;stroke-width:1.5422;"
   d="M31,37.2c0,1-0.8,1.9-1.9,1.9H13.4c-1,0-1.9-0.8-1.9-1.9v-10c0-1,0.8-1.9,1.9-1.9h15.7c1,0,1.9,0.8,1.9,1.9v10z"
   id="path13" />
			<path
   d="M20.6,36.4h-5.7V28h5.7v8.4z"
   id="path15" />
			<path
   style="fill:#FFFFFF;stroke:#000000;stroke-width:1.5422;"
   d="M35.6,22.9H10.2V7.8h25.4v15.2z"
   id="path17" />
			<path
   style="fill:none;stroke:#FFFFFF;stroke-width:12.3375;stroke-linejoin:round;"
   d="M39.9,33.6l-17-17l-9.6-3.8l3.4,10.8l16.5,16.6l6.7-6.7z"
   id="path19" />
			<path
   style="fill:none;stroke:#000000;stroke-width:6.1688;stroke-linejoin:round;"
   d="M39.9,33.6l-17-17l-9.6-3.8l3.4,10.8l16.5,16.6l6.7-6.7z"
   id="path21" />
			<path
   d="M39.9,33.6l-17-17l-9.6-3.8l3.4,10.8l16.5,16.6l6.7-6.7z"
   id="path23" />
			<path
   d="M17.4,14.1l-3.1,3.1l-1.4-4.7l4.5,1.7z"
   id="path25" />
			<path
   style="fill:none;stroke:#000000;stroke-width:1.5422;"
   d="M16.2,23.4l3.8-0.3l3-3l0.4-3.5"
   id="path27" />
			<path
   style="fill:#FFFFFF;"
   d="M17.2,14.3l-2.6,2.6l2,6.5l3.3-0.3l3-3l0.4-3l-6.2-2.7z"
   id="path29" />
		</g>
	</g>
	<g
   id="crop_x0020_marks"
   style="fill-rule:nonzero;clip-rule:nonzero;stroke:#000000;stroke-miterlimit:4;">
		<path
   style="fill:none;stroke:none;"
   d="M48,48H0V0h48v48z"
   id="path32" />
	</g>
</svg>