<?xml version="1.0" encoding="iso-8859-1"?>
<!-- Generator: Adobe Illustrator 9.0, SVG Export Plug-In  -->
<!DOCTYPE svg PUBLIC "-//W3C//DTD SVG 20000303 Stylable//EN"   "http://www.w3.org/TR/2000/03/WD-SVG-20000303/DTD/svg-20000303-stylable.dtd" [
	<!ENTITY st0 "fill-rule:nonzero;clip-rule:nonzero;fill:none;stroke:#FFFFFF;stroke-width:7.4329;stroke-linejoin:round;stroke-miterlimit:4;">
	<!ENTITY st1 "fill:#000000;stroke:none;">
	<!ENTITY st2 "fill:#FFFFFF;stroke:none;">
	<!ENTITY st3 "fill:none;stroke:none;">
	<!ENTITY st4 "fill-rule:nonzero;clip-rule:nonzero;stroke:#000000;stroke-miterlimit:4;">
	<!ENTITY st5 "stroke:#000000;stroke-width:3.4097;stroke-linejoin:miter;">
]>
<svg  width="48pt" height="48pt" viewBox="0 0 48 48" xml:space="preserve">
	<g id="Layer_x0020_3" style="&st0;">
		<g>
			<path d="M40.6,41.4c0,0.4-0.3,0.7-0.7,0.7H8c-0.4,0-0.7-0.3-0.7-0.7v-1.5c0-0.4,0.3-0.7,0.7-0.7h31.9c0.4,0,0.7,0.3,0.7,0.7v1.5z"/>
			<path d="M42.1,39.5c0,0.4-0.3,0.7-0.7,0.7H6.6c-0.4,0-0.7-0.3-0.7-0.7V25.1c0-0.4,0.3-0.7,0.7-0.7h34.8c0.4,0,0.7,0.3,0.7,0.7v14.3z"/>
			<path d="M12,5.8c-1.3,0-2.3,1.1-2.3,2.3v18h28.8v-18c0-1.3-1.1-2.3-2.3-2.3H12z"/>
			<path style="&st1;" d="M40.5,41.5c0,0.4-0.3,0.7-0.7,0.7H7.9c-0.4,0-0.7-0.3-0.7-0.7V40c0-0.4,0.3-0.7,0.7-0.7h31.9c0.4,0,0.7,0.3,0.7,0.7v1.5z"/>
			<path style="&st1;" d="M42.1,39.6c0,0.4-0.3,0.7-0.7,0.7H6.6c-0.4,0-0.7-0.3-0.7-0.7V25.3c0-0.4,0.3-0.7,0.7-0.7h34.8c0.4,0,0.7,0.3,0.7,0.7v14.3z"/>
			<path style="&st1;" d="M12,5.9c-1.3,0-2.3,1.1-2.3,2.3v18h28.8v-18c0-1.3-1.1-2.3-2.3-2.3H12z"/>
			<path style="&st2;" d="M35.7,26.7H12.4V9c0-0.4,0.3-0.7,0.6-0.7h22.1c0.3,0,0.6,0.3,0.6,0.7v17.7z"/>
			<path style="&st5;" d="M16.6,20.7H31"/>
			<path style="&st5;" d="M16.6,14.2H31"/>
		</g>
	</g>
	<g id="crop_x0020_marks" style="&st4;">
		<path style="&st3;" d="M48,48H0V0h48v48z"/>
	</g>
</svg>
