<?xml version="1.0" encoding="iso-8859-1"?>
<!-- Generator: Adobe Illustrator 9.0, SVG Export Plug-In  -->
<!DOCTYPE svg PUBLIC "-//W3C//DTD SVG 20000303 Stylable//EN"   "http://www.w3.org/TR/2000/03/WD-SVG-20000303/DTD/svg-20000303-stylable.dtd" [
	<!ENTITY st0 "fill:none;stroke:#FFFFFF;stroke-width:13.4323;stroke-linecap:round;stroke-linejoin:round;">
	<!ENTITY st1 "fill:#FFFFFF;stroke:none;">
	<!ENTITY st2 "fill:none;stroke:none;">
	<!ENTITY st3 "fill-rule:nonzero;clip-rule:nonzero;stroke:#000000;stroke-miterlimit:4;">
	<!ENTITY st4 "stroke:none;">
	<!ENTITY st5 "fill:none;stroke-width:6.6992;stroke-linecap:round;stroke-linejoin:round;">
]>
<svg  width="48pt" height="48pt" viewBox="0 0 48 48" xml:space="preserve">
	<g id="Layer_x0020_4" style="&st3;">
		<g>
			<path style="&st0;" d="M39.8,39.1H12l-3.8-3.8V9.2h31.7v30z"/>
			<path style="&st5;" d="M39.8,39.1H12l-3.8-3.8V9.2h31.7v30z"/>
			<path style="&st4;" d="M39.8,39.1H12l-3.8-3.8V9.2h31.7v30z"/>
			<path style="&st1;" d="M20.4,9c0-0.2-0.2-0.2-0.4-0.1L8.6,20.5c-0.4,0.4-0.2,0.5,0,0.7l11.5,11.5c0.1,0.1,0.3,0,0.3-0.1v-6.9h3.2c1,0,3.6,0.5,3.6,3v3c0,2.9-5.3,3.7-5.3,4.6s1.2,1.2,1.2,1.2h4c4,0,6-3.7,6-7.4V25c0-6-3.4-9-8.2-9h-4.4l0.1-7z"/>
		</g>
	</g>
	<g id="crop_x0020_marks" style="&st3;">
		<path style="&st2;" d="M48,48H0V0h48v48z"/>
	</g>
</svg>
