<?xml version="1.0" encoding="UTF-8" standalone="no"?>
<!-- Generator: Adobe Illustrator 9.0, SVG Export Plug-In  -->
<svg
   xmlns:dc="http://purl.org/dc/elements/1.1/"
   xmlns:cc="http://creativecommons.org/ns#"
   xmlns:rdf="http://www.w3.org/1999/02/22-rdf-syntax-ns#"
   xmlns:svg="http://www.w3.org/2000/svg"
   xmlns="http://www.w3.org/2000/svg"
   xmlns:sodipodi="http://sodipodi.sourceforge.net/DTD/sodipodi-0.dtd"
   xmlns:inkscape="http://www.inkscape.org/namespaces/inkscape"
   width="48pt"
   height="48pt"
   viewBox="0 0 48 48"
   xml:space="preserve"
   id="svg2"
   sodipodi:version="0.32"
   inkscape:version="0.46"
   sodipodi:docname="edit-find.svg"
   inkscape:output_extension="org.inkscape.output.svg.inkscape"><metadata
   id="metadata27"><rdf:RDF><cc:Work
       rdf:about=""><dc:format>image/svg+xml</dc:format><dc:type
         rdf:resource="http://purl.org/dc/dcmitype/StillImage" /></cc:Work></rdf:RDF></metadata><defs
   id="defs25" /><sodipodi:namedview
   inkscape:window-height="480"
   inkscape:window-width="640"
   inkscape:pageshadow="2"
   inkscape:pageopacity="0.0"
   guidetolerance="10.0"
   gridtolerance="10.0"
   objecttolerance="10.0"
   borderopacity="1.0"
   bordercolor="#666666"
   pagecolor="#ffffff"
   id="base" />
	<g
   id="Layer_x0020_3"
   style="fill-rule:nonzero;clip-rule:nonzero;fill:#FFFFFF;stroke:#000000;stroke-miterlimit:4;">
		<g
   style="stroke:none;"
   id="g5">
			<path
   style="fill:none;stroke:#FFFFFF;stroke-width:6.9612;"
   d="M37.9,38.8L30.1,31c-0.7-0.7-1.8-0.9-2.7-0.6c1.8-2.2,2.9-5,2.9-8c0-6.9-5.6-12.5-12.5-12.5S5.2,15.4,5.2,22.3c0,6.9,5.6,12.5,12.5,12.5c3,0,5.8-1.1,8-2.9c-0.3,0.9-0.1,2,0.6,2.7l7.8,7.8c1,1,2.7,1,3.7,0s1-2.7,0-3.7z M17.8,31.5     c-5.1,0-9.2-4.1-9.2-9.2c0-5.1,4.1-9.2,9.2-9.2c5.1,0,9.2,4.1,9.2,9.2c0,5.1-4.1,9.2-9.2,9.2z"
   id="path7" />
			<path
   style="fill:none;stroke:#FFFFFF;stroke-width:13.245;stroke-linejoin:round;"
   d="M38.3,17.1v20.6H13V8.5h16.9l8.3,8.5z"
   id="path9" />
			<path
   style="fill:none;stroke:#000000;stroke-width:6.6225;stroke-linejoin:round;"
   d="M38.3,17.1v20.6H13V8.5h16.9l8.3,8.5z"
   id="path11" />
			<path
   d="M38.3,17.1v20.6H13V8.5h16.9l8.3,8.5z"
   id="path13" />
			<g
   id="g15">
				<path
   style="fill:#000000;"
   d="M38,38.9l-7.8-7.8c-0.7-0.7-1.8-0.9-2.7-0.6c1.8-2.2,2.9-5,2.9-8c0-6.9-5.6-12.5-12.5-12.5c-6.9,0-12.5,5.6-12.5,12.5c0,6.9,5.6,12.5,12.5,12.5c3,0,5.8-1.1,8-2.9c-0.3,0.9-0.1,2,0.6,2.7l7.8,7.8c1,1,2.7,1,3.7,0c1-1,1-2.7,0-3.7z       M17.9,31.6c-5.1,0-9.2-4.1-9.2-9.2c0-5.1,4.1-9.2,9.2-9.2c5.1,0,9.2,4.1,9.2,9.2c0,5.1-4.1,9.2-9.2,9.2z"
   id="path17" />
				<path
   d="M27.1,22.4c0,5.1-4.1,9.2-9.2,9.2c-5.1,0-9.2-4.1-9.2-9.2c0-5.1,4.1-9.2,9.2-9.2c5.1,0,9.2,4.1,9.2,9.2z"
   id="path19" />
			</g>
		</g>
	</g>
	<g
   id="crop_x0020_marks"
   style="fill-rule:nonzero;clip-rule:nonzero;stroke:#000000;stroke-miterlimit:4;">
		<path
   style="fill:none;stroke:none;"
   d="M48,48H0V0h48v48z"
   id="path22" />
	</g>
</svg>