<?xml version="1.0" encoding="iso-8859-1"?>
<!-- Generator: Adobe Illustrator 9.0, SVG Export Plug-In  -->
<!DOCTYPE svg PUBLIC "-//W3C//DTD SVG 20000303 Stylable//EN"   "http://www.w3.org/TR/2000/03/WD-SVG-20000303/DTD/svg-20000303-stylable.dtd" [
	<!ENTITY st0 "fill-rule:nonzero;clip-rule:nonzero;stroke:#FFFFFF;stroke-width:7.7624;stroke-linejoin:round;stroke-miterlimit:4;">
	<!ENTITY st1 "fill:none;stroke:none;">
	<!ENTITY st2 "fill-rule:nonzero;clip-rule:nonzero;stroke:#000000;stroke-miterlimit:4;">
	<!ENTITY st3 "stroke:none;">
]>
<svg  width="48pt" height="48pt" viewBox="0 0 48 48" xml:space="preserve">
	<g id="Layer_x0020_4" style="&st0;">
		<g>
			<g>
				<path d="M17.5,31.4l-3,7.8H4.6l13-30.3h12.5l13.2,30.3H33l-3.3-7.8H17.5z M28.3,26.2c0,0-4.1-10.5-4.7-12.3h-0.2c-0.6,1.8-4.5,12.3-4.5,12.3h9.4z"/>
				<path style="&st3;" d="M17.5,31.4l-3,7.8H4.6l13-30.3h12.5l13.2,30.3H33l-3.3-7.8H17.5z M28.3,26.2c0,0-4.1-10.5-4.7-12.3h-0.2c-0.6,1.8-4.5,12.3-4.5,12.3h9.4z"/>
			</g>
			<g>
				<path d="M43.4,28.5H4.6V23h38.7v5.5z"/>
				<path style="&st3;" d="M43.4,28.5H4.6V23h38.7v5.5z"/>
			</g>
		</g>
	</g>
	<g id="crop_x0020_marks" style="&st2;">
		<path style="&st1;" d="M48,48H0V0h48v48z"/>
	</g>
</svg>
