<?xml version="1.0" encoding="iso-8859-1"?>
<!-- Generator: Adobe Illustrator 9.0, SVG Export Plug-In  -->
<!DOCTYPE svg PUBLIC "-//W3C//DTD SVG 20000303 Stylable//EN"   "http://www.w3.org/TR/2000/03/WD-SVG-20000303/DTD/svg-20000303-stylable.dtd" [
	<!ENTITY st0 "fill-rule:nonzero;clip-rule:nonzero;stroke:#FFFFFF;stroke-width:7.1934;stroke-linejoin:round;stroke-miterlimit:4;">
	<!ENTITY st1 "fill:none;stroke:none;">
	<!ENTITY st2 "fill-rule:nonzero;clip-rule:nonzero;stroke:#000000;stroke-miterlimit:4;">
	<!ENTITY st3 "stroke:none;">
]>
<svg  width="48pt" height="48pt" viewBox="0 0 48 48" xml:space="preserve">
	<g id="Layer_x0020_3" style="&st0;">
		<g>
			<g>
				<path d="M18,25.9l-2.7,7.2H6.1L18.1,5h11.6l12.3,28.1h-9.6l-3-7.2H18z M28,21.1c0,0-3.8-9.7-4.4-11.4h-0.2c-0.5,1.7-4.1,11.4-4.1,11.4H28z"/>
				<path style="&st3;" d="M18,25.9l-2.7,7.2H6.1L18.1,5h11.6l12.3,28.1h-9.6l-3-7.2H18z M28,21.1c0,0-3.8-9.7-4.4-11.4h-0.2c-0.5,1.7-4.1,11.4-4.1,11.4H28z"/>
			</g>
			<g>
				<path d="M41.9,43H6.1v-5.1h35.9V43z"/>
				<path style="&st3;" d="M41.9,43H6.1v-5.1h35.9V43z"/>
			</g>
		</g>
	</g>
	<g id="crop_x0020_marks" style="&st2;">
		<path style="&st1;" d="M48,48H0V0h48v48z"/>
	</g>
</svg>
