<?xml version="1.0" encoding="UTF-8" standalone="no"?>
<!-- Generator: Adobe Illustrator 9.0, SVG Export Plug-In  -->
<svg
   xmlns:dc="http://purl.org/dc/elements/1.1/"
   xmlns:cc="http://creativecommons.org/ns#"
   xmlns:rdf="http://www.w3.org/1999/02/22-rdf-syntax-ns#"
   xmlns:svg="http://www.w3.org/2000/svg"
   xmlns="http://www.w3.org/2000/svg"
   xmlns:sodipodi="http://sodipodi.sourceforge.net/DTD/sodipodi-0.dtd"
   xmlns:inkscape="http://www.inkscape.org/namespaces/inkscape"
   width="48pt"
   height="48pt"
   viewBox="0 0 48 48"
   xml:space="preserve"
   id="svg2"
   sodipodi:version="0.32"
   inkscape:version="0.46"
   sodipodi:docname="go-bottom.svg"
   inkscape:output_extension="org.inkscape.output.svg.inkscape"><metadata
   id="metadata21"><rdf:RDF><cc:Work
       rdf:about=""><dc:format>image/svg+xml</dc:format><dc:type
         rdf:resource="http://purl.org/dc/dcmitype/StillImage" /></cc:Work></rdf:RDF></metadata><defs
   id="defs19" /><sodipodi:namedview
   inkscape:window-height="480"
   inkscape:window-width="640"
   inkscape:pageshadow="2"
   inkscape:pageopacity="0.0"
   guidetolerance="10.0"
   gridtolerance="10.0"
   objecttolerance="10.0"
   borderopacity="1.0"
   bordercolor="#666666"
   pagecolor="#ffffff"
   id="base" />
	<g
   id="Layer_x0020_3"
   style="fill-rule:nonzero;clip-rule:nonzero;fill:#FFFFFF;stroke:#FFFFFF;stroke-width:7.5901;stroke-linejoin:round;stroke-miterlimit:4;">
		<g
   id="g5">
			<path
   d="M6.9,20c-0.3,0-0.3,0.3-0.2,0.5l16.9,16.6c0.5,0.5,0.7,0.4,1,0l16.6-16.6c0.1-0.1,0.1-0.4-0.1-0.4h-10V6.5c0-0.3-0.2-0.5-0.4-0.5l-13.3,0c-0.3,0-0.5,0.2-0.5,0.5v13.5L6.9,20z"
   id="path7" />
			<path
   d="M6.8,37.9c0-0.2,0.1-0.3,0.3-0.3h33.7c0.2,0,0.3,0.1,0.3,0.3v3.8c0,0.2-0.1,0.3-0.3,0.3H7.2c-0.2,0-0.3-0.1-0.3-0.3v-3.8z"
   id="path9" />
			<path
   style="fill:#000000;stroke:none;"
   d="M6.9,20c-0.3,0-0.3,0.3-0.2,0.5l16.9,16.6c0.5,0.5,0.7,0.4,1,0l16.6-16.6c0.1-0.1,0.1-0.4-0.1-0.4h-10V6.5c0-0.3-0.2-0.5-0.4-0.5l-13.3,0c-0.3,0-0.5,0.2-0.5,0.5v13.5L6.9,20z"
   id="path11" />
			<path
   style="fill:#000000;stroke:none;"
   d="M6.8,37.9c0-0.2,0.1-0.3,0.3-0.3h33.7c0.2,0,0.3,0.1,0.3,0.3v3.8c0,0.2-0.1,0.3-0.3,0.3H7.2c-0.2,0-0.3-0.1-0.3-0.3v-3.8z"
   id="path13" />
		</g>
	</g>
	<g
   id="crop_x0020_marks"
   style="fill-rule:nonzero;clip-rule:nonzero;stroke:#000000;stroke-miterlimit:4;">
		<path
   style="fill:none;stroke:none;"
   d="M48,48H0V0h48v48z"
   id="path16" />
	</g>
</svg>