<?xml version="1.0" encoding="iso-8859-1"?>
<!-- Generator: Adobe Illustrator 9.0, SVG Export Plug-In  -->
<!DOCTYPE svg PUBLIC "-//W3C//DTD SVG 20000303 Stylable//EN"   "http://www.w3.org/TR/2000/03/WD-SVG-20000303/DTD/svg-20000303-stylable.dtd" [
	<!ENTITY st0 "fill:none;stroke:#FFFFFF;stroke-width:7.0203;stroke-linejoin:round;">
	<!ENTITY st1 "fill:#FFFFFF;stroke:none;">
	<!ENTITY st2 "fill:none;stroke:none;">
	<!ENTITY st3 "fill-rule:nonzero;clip-rule:nonzero;stroke:#000000;stroke-miterlimit:4;">
	<!ENTITY st4 "stroke:none;">
]>
<svg  width="48pt" height="48pt" viewBox="0 0 48 48" xml:space="preserve">
	<g id="Layer_x0020_3" style="&st3;">
		<g>
			<path style="&st0;" d="M42.3,24c0,10-8.1,18.2-18.2,18.2S6,34,6,24S14.1,5.8,24.2,5.8S42.3,14,42.3,24z"/>
			<path style="&st4;" d="M42.3,24c0,10-8.1,18.2-18.2,18.2S6,34,6,24S14.1,5.8,24.2,5.8S42.3,14,42.3,24z"/>
			<path style="&st1;" d="M17.4,6.8c0-0.3,0.3-0.3,0.4-0.2l13.9,14.1c0.4,0.4,0.3,0.6,0,0.9L17.8,35.6c-0.1,0.1-0.3,0.1-0.3-0.1v-8.3H6.1c-0.3,0-0.4-0.2-0.4-0.4l0-11.1c0-0.3,0.1-0.4,0.4-0.4h11.3l-0.1-8.4z"/>
		</g>
	</g>
	<g id="crop_x0020_marks" style="&st3;">
		<path style="&st2;" d="M48,48H0V0h48v48z"/>
	</g>
</svg>
