<?xml version="1.0" encoding="UTF-8" standalone="no"?>
<!-- Generator: Adobe Illustrator 9.0, SVG Export Plug-In  -->
<svg
   xmlns:dc="http://purl.org/dc/elements/1.1/"
   xmlns:cc="http://creativecommons.org/ns#"
   xmlns:rdf="http://www.w3.org/1999/02/22-rdf-syntax-ns#"
   xmlns:svg="http://www.w3.org/2000/svg"
   xmlns="http://www.w3.org/2000/svg"
   xmlns:sodipodi="http://sodipodi.sourceforge.net/DTD/sodipodi-0.dtd"
   xmlns:inkscape="http://www.inkscape.org/namespaces/inkscape"
   width="48pt"
   height="48pt"
   viewBox="0 0 48 48"
   xml:space="preserve"
   id="svg2"
   sodipodi:version="0.32"
   inkscape:version="0.46"
   sodipodi:docname="insert-object.svg"
   inkscape:output_extension="org.inkscape.output.svg.inkscape"><metadata
   id="metadata17"><rdf:RDF><cc:Work
       rdf:about=""><dc:format>image/svg+xml</dc:format><dc:type
         rdf:resource="http://purl.org/dc/dcmitype/StillImage" /></cc:Work></rdf:RDF></metadata><defs
   id="defs15" /><sodipodi:namedview
   inkscape:window-height="480"
   inkscape:window-width="640"
   inkscape:pageshadow="2"
   inkscape:pageopacity="0.0"
   guidetolerance="10.0"
   gridtolerance="10.0"
   objecttolerance="10.0"
   borderopacity="1.0"
   bordercolor="#666666"
   pagecolor="#ffffff"
   id="base" />
	<g
   id="Layer_x0020_3"
   style="fill-rule:nonzero;clip-rule:nonzero;stroke:#000000;stroke-miterlimit:4;">
		<g
   id="g5">
			<path
   style="stroke:#FFFFFF;stroke-width:6.8141;stroke-linejoin:round;"
   d="M39.6,17.9c-1.3,0-2.5,1.2-3.2,2.9c-1,0.5-2.5,0.1-2.9-1v-7.2h-0.2H14.7h-0.2v7.3c-0.4,1.2-1.8,1.6-2.8,1.1c-0.6-1.9-1.9-3.1-3.3-3.1c-2.1,0-3.8,2.8-3.8,6.2c0,3.4,1.7,6.2,3.8,6.2c1.3,0,2.5-1.2,3.2-2.9c1-0.5,2.5-0.1,2.9,1v7.2h0.2h18.7     h0.2v-7.3c0.4-1.2,1.8-1.6,2.8-1.1c0.6,1.9,1.9,3.1,3.3,3.1c2.1,0,3.8-2.8,3.8-6.2c0-3.4-1.7-6.2-3.8-6.2z"
   id="path7" />
			<path
   style="stroke:none;"
   d="M39.6,17.9c-1.3,0-2.5,1.2-3.2,2.9c-1,0.5-2.5,0.1-2.9-1v-7.2h-0.2H14.7h-0.2v7.3c-0.4,1.2-1.8,1.6-2.8,1.1c-0.6-1.9-1.9-3.1-3.3-3.1c-2.1,0-3.8,2.8-3.8,6.2c0,3.4,1.7,6.2,3.8,6.2c1.3,0,2.5-1.2,3.2-2.9c1-0.5,2.5-0.1,2.9,1v7.2h0.2h18.7     h0.2v-7.3c0.4-1.2,1.8-1.6,2.8-1.1c0.6,1.9,1.9,3.1,3.3,3.1c2.1,0,3.8-2.8,3.8-6.2c0-3.4-1.7-6.2-3.8-6.2z"
   id="path9" />
		</g>
	</g>
	<g
   id="crop_x0020_marks"
   style="fill-rule:nonzero;clip-rule:nonzero;stroke:#000000;stroke-miterlimit:4;">
		<path
   style="fill:none;stroke:none;"
   d="M48,48H0V0h48v48z"
   id="path12" />
	</g>
</svg>