<?xml version="1.0" encoding="iso-8859-1"?>
<!-- Generator: Adobe Illustrator 9.0, SVG Export Plug-In  -->
<!DOCTYPE svg PUBLIC "-//W3C//DTD SVG 20000303 Stylable//EN"   "http://www.w3.org/TR/2000/03/WD-SVG-20000303/DTD/svg-20000303-stylable.dtd" [
	<!ENTITY st0 "fill:#FFFFFF;stroke:#000000;stroke-width:0.7571;stroke-linecap:round;stroke-linejoin:round;">
	<!ENTITY st1 "fill:#FFFFFF;">
	<!ENTITY st2 "stroke:#FFFFFF;stroke-width:6.057;stroke-linejoin:round;">
	<!ENTITY st3 "fill:none;stroke:none;">
	<!ENTITY st4 "fill-rule:nonzero;clip-rule:nonzero;stroke:#000000;stroke-miterlimit:4;">
	<!ENTITY st5 "stroke:none;">
]>
<svg  width="48pt" height="48pt" viewBox="0 0 48 48" xml:space="preserve">
	<g id="Layer_x0020_3" style="&st4;">
		<g style="&st5;">
			<path style="&st2;" d="M11.5,5.2c-1.2,0-2.2,1-2.2,2.2v33.1c0,1.2,1,2.2,2.2,2.2h26.6c1.2,0,2.2-1,2.2-2.2V7.5c0-1.2-1-2.2-2.2-2.2H11.5z"/>
			<path d="M11.5,5.2c-1.2,0-2.2,1-2.2,2.2v33.1c0,1.2,1,2.2,2.2,2.2h26.6c1.2,0,2.2-1,2.2-2.2V7.5c0-1.2-1-2.2-2.2-2.2H11.5z"/>
			<path d="M38.7,40.5c0,0.4-0.3,0.7-0.7,0.7H11.5c-0.4,0-0.7-0.3-0.7-0.7V7.5c0-0.4,0.3-0.7,0.7-0.7h26.6c0.4,0,0.7,0.3,0.7,0.7v33.1z"/>
			<path style="&st0;" d="M28.1,29.6c0,0.4-0.1,0.6-0.4,0.8L11.5,41.3c-0.4,0-0.7-0.3-0.7-0.7V7.5c0-0.4,0.3-0.7,0.7-0.7h16c0.4,0,0.7,0.3,0.7,0.7v22.2z"/>
			<path d="M25.5,15.1c0,1.2-1,2.2-2.2,2.2s-2.2-1-2.2-2.2s1-2.2,2.2-2.2s2.2,1,2.2,2.2z"/>
			<path style="&st1;" d="M12.8,12.3c-0.6,0.3-1,0.9-1,1.5c0,0,0,2.6,0,4.3c-2,0-6.3,0-6.3,0c-1.1,0-1.8,0.8-1.8,1.8l0,7.7c0,1,0.8,1.8,1.8,1.8c0,0,4.3,0,6.3,0c0,1.6,0,4.2,0,4.2c0,0.7,0.4,1.3,1,1.5c0.6,0.3,1.3,0.1,1.8-0.4l9.6-9.6c1-1,0.7-2.1,0-2.7l0,0
				l-9.6-9.7c-0.5-0.5-1.2-0.6-1.9-0.4z"/>
			<path d="M13.3,13.8c0-0.2,0.2-0.2,0.3-0.1l9.6,9.7c0.3,0.3,0.2,0.4,0,0.6l-9.6,9.6c-0.1,0.1-0.2,0-0.2-0.1v-5.7H5.5c-0.2,0-0.3-0.1-0.3-0.2l0-7.7c0-0.2,0.1-0.3,0.3-0.3h7.8l0-5.8z"/>
		</g>
	</g>
	<g id="crop_x0020_marks" style="&st4;">
		<path style="&st3;" d="M48,48H0V0h48v48z"/>
	</g>
</svg>
