<?xml version="1.0" encoding="UTF-8" standalone="no"?>
<!-- Generator: Adobe Illustrator 9.0, SVG Export Plug-In  -->
<svg
   xmlns:dc="http://purl.org/dc/elements/1.1/"
   xmlns:cc="http://web.resource.org/cc/"
   xmlns:rdf="http://www.w3.org/1999/02/22-rdf-syntax-ns#"
   xmlns:svg="http://www.w3.org/2000/svg"
   xmlns="http://www.w3.org/2000/svg"
   xmlns:sodipodi="http://inkscape.sourceforge.net/DTD/sodipodi-0.dtd"
   xmlns:inkscape="http://www.inkscape.org/namespaces/inkscape"
   width="48pt"
   height="48pt"
   viewBox="0 0 48 48"
   xml:space="preserve"
   id="svg2"
   sodipodi:version="0.32"
   inkscape:version="0.42"
   sodipodi:docname="system-search.svg"
   sodipodi:docbase="/home/luca/Desktop/Black-and-white/scalable/actions"><metadata
   id="metadata29"><rdf:RDF><cc:Work
       rdf:about=""><dc:format>image/svg+xml</dc:format><dc:type
         rdf:resource="http://purl.org/dc/dcmitype/StillImage" /></cc:Work></rdf:RDF></metadata><defs
   id="defs27">
		
		
	</defs><sodipodi:namedview
   inkscape:window-height="950"
   inkscape:window-width="1280"
   inkscape:pageshadow="2"
   inkscape:pageopacity="0.0"
   borderopacity="1.0"
   bordercolor="#666666"
   pagecolor="#ffffff"
   id="base"
   inkscape:zoom="6.1833333"
   inkscape:cx="30.000000"
   inkscape:cy="30.000000"
   inkscape:window-x="0"
   inkscape:window-y="26"
   inkscape:current-layer="svg2" />
	<g
   style="fill-rule:nonzero;stroke:#000000;stroke-miterlimit:4.0000000"
   id="g5"
   transform="matrix(-1.000000,0.000000,0.000000,1.000000,47.75000,-2.664535e-15)">
			<g
   id="g7">
				<path
   id="path9"
   d="M 5.2000000,42.400000 C 6.6000000,43.800000 8.8000000,43.800000 10.100000,42.400000 L 15.800000,37.700000 C 16.800000,36.700000 17.100000,35.300000 16.600000,34.100000 C 19.500000,36.500000 23.100000,37.900000 27.100000,37.900000 C 36.300000,37.900000 43.700000,30.500000 43.700000,21.300000 C 43.700000,12.100000 36.300000,4.7000000 27.100000,4.7000000 C 17.900000,4.7000000 10.500000,12.100000 10.500000,21.300000 C 10.500000,25.300000 12.000000,29.100000 14.400000,31.900000 C 13.200000,31.500000 11.800000,31.800000 10.800000,32.700000 L 5.1000000,37.400000 C 3.7000000,38.800000 3.7000000,41.000000 5.1000000,42.300000 L 5.2000000,42.400000 z M 15.000000,21.200000 C 15.000000,14.500000 20.500000,9.0000000 27.200000,9.0000000 C 33.900000,9.0000000 39.400000,14.500000 39.400000,21.200000 C 39.400000,27.900000 33.900000,33.400000 27.200000,33.400000 C 20.500000,33.400000 15.000000,27.900000 15.000000,21.200000 z "
   style="stroke:#ffffff;stroke-width:7.1255002;stroke-linejoin:round" />
				<path
   id="path11"
   d="M 15.000000,21.200000 C 15.000000,27.900000 20.500000,33.400000 27.200000,33.400000 C 33.900000,33.400000 39.400000,27.900000 39.400000,21.200000 C 39.400000,14.500000 33.900000,9.0000000 27.200000,9.0000000 C 20.500000,9.0000000 15.000000,14.500000 15.000000,21.200000 z "
   style="fill:#ffffff;stroke:#ffffff;stroke-width:7.1255002;stroke-linejoin:round" />
			</g>
			<g
   id="g13">
				<path
   id="path15"
   d="M 5.2000000,42.400000 C 6.6000000,43.800000 8.8000000,43.800000 10.100000,42.400000 L 15.800000,37.700000 C 16.800000,36.700000 17.100000,35.300000 16.600000,34.100000 C 19.500000,36.500000 23.100000,37.900000 27.100000,37.900000 C 36.300000,37.900000 43.700000,30.500000 43.700000,21.300000 C 43.700000,12.100000 36.300000,4.7000000 27.100000,4.7000000 C 17.900000,4.7000000 10.500000,12.100000 10.500000,21.300000 C 10.500000,25.300000 12.000000,29.100000 14.400000,31.900000 C 13.200000,31.500000 11.800000,31.800000 10.800000,32.700000 L 5.1000000,37.400000 C 3.7000000,38.800000 3.7000000,41.000000 5.1000000,42.300000 L 5.2000000,42.400000 z M 15.000000,21.200000 C 15.000000,14.500000 20.500000,9.0000000 27.200000,9.0000000 C 33.900000,9.0000000 39.400000,14.500000 39.400000,21.200000 C 39.400000,27.900000 33.900000,33.400000 27.200000,33.400000 C 20.500000,33.400000 15.000000,27.900000 15.000000,21.200000 z "
   style="stroke:none" />
				<path
   id="path17"
   d="M 15.000000,21.200000 C 15.000000,27.900000 20.500000,33.400000 27.200000,33.400000 C 33.900000,33.400000 39.400000,27.900000 39.400000,21.200000 C 39.400000,14.500000 33.900000,9.0000000 27.200000,9.0000000 C 20.500000,9.0000000 15.000000,14.500000 15.000000,21.200000 z "
   style="fill:#ffffff;stroke:none" />
			</g>
		</g>
	<g
   id="crop_x0020_marks"
   style="fill-rule:nonzero;clip-rule:nonzero;stroke:#000000;stroke-miterlimit:4;">
		<path
   style="fill:none;stroke:none;"
   d="M48,48H0V0h48v48z"
   id="path24" />
	</g>
</svg>