<?xml version="1.0" encoding="UTF-8" standalone="no"?>
<!-- Generator: Adobe Illustrator 9.0, SVG Export Plug-In  -->
<svg
   xmlns:dc="http://purl.org/dc/elements/1.1/"
   xmlns:cc="http://creativecommons.org/ns#"
   xmlns:rdf="http://www.w3.org/1999/02/22-rdf-syntax-ns#"
   xmlns:svg="http://www.w3.org/2000/svg"
   xmlns="http://www.w3.org/2000/svg"
   xmlns:sodipodi="http://sodipodi.sourceforge.net/DTD/sodipodi-0.dtd"
   xmlns:inkscape="http://www.inkscape.org/namespaces/inkscape"
   width="48pt"
   height="48pt"
   viewBox="0 0 48 48"
   xml:space="preserve"
   id="svg2"
   sodipodi:version="0.32"
   inkscape:version="0.46"
   sodipodi:docname="view-sort-descending.svg"
   inkscape:output_extension="org.inkscape.output.svg.inkscape"><metadata
   id="metadata45"><rdf:RDF><cc:Work
       rdf:about=""><dc:format>image/svg+xml</dc:format><dc:type
         rdf:resource="http://purl.org/dc/dcmitype/StillImage" /></cc:Work></rdf:RDF></metadata><defs
   id="defs43" /><sodipodi:namedview
   inkscape:window-height="480"
   inkscape:window-width="640"
   inkscape:pageshadow="2"
   inkscape:pageopacity="0.0"
   guidetolerance="10.0"
   gridtolerance="10.0"
   objecttolerance="10.0"
   borderopacity="1.0"
   bordercolor="#666666"
   pagecolor="#ffffff"
   id="base" />
	<g
   id="Layer_x0020_4"
   style="fill-rule:nonzero;clip-rule:nonzero;stroke:#000000;stroke-miterlimit:4;">
		<g
   style="stroke:none;"
   id="g5">
			<g
   id="g7">
				<g
   id="g9">
					<path
   d="M36.7,9.2h0l-1.8,0.9l-0.4-1.7l2.6-1.2h1.9v9.6h-2.2V9.2z"
   id="path11" />
					<path
   d="M34.6,38.9c0.3,0,0.5,0,1,0c0.7,0,1.4-0.2,1.9-0.6c0.6-0.4,1.1-1.1,1.2-1.8l0,0c-0.4,0.4-1.1,0.7-2,0.7c-1.6,0-3-1.1-3-3c0-1.9,1.5-3.5,3.6-3.5c2.5,0,3.6,1.9,3.6,4.1c0,2-0.6,3.5-1.7,4.4c-0.9,0.8-2.2,1.3-3.7,1.3c-0.4,0-0.8,0-1,0v-1.8z M37.2,32.3       c-0.8,0-1.3,0.7-1.3,1.7c0,0.8,0.5,1.5,1.4,1.5c0.6,0,1-0.3,1.3-0.6c0.1-0.1,0.1-0.3,0.1-0.6c0-1-0.4-2-1.4-2h0z"
   id="path13" />
				</g>
				<g
   style="fill:none;stroke:#FFFFFF;stroke-width:6;"
   id="g15">
					<path
   d="M36.7,9.2h0l-1.8,0.9l-0.4-1.7l2.6-1.2h1.9v9.6h-2.2V9.2z"
   id="path17" />
					<path
   d="M34.6,38.9c0.3,0,0.5,0,1,0c0.7,0,1.4-0.2,1.9-0.6c0.6-0.4,1.1-1.1,1.2-1.8l0,0c-0.4,0.4-1.1,0.7-2,0.7c-1.6,0-3-1.1-3-3c0-1.9,1.5-3.5,3.6-3.5c2.5,0,3.6,1.9,3.6,4.1c0,2-0.6,3.5-1.7,4.4c-0.9,0.8-2.2,1.3-3.7,1.3c-0.4,0-0.8,0-1,0v-1.8z M37.2,32.3       c-0.8,0-1.3,0.7-1.3,1.7c0,0.8,0.5,1.5,1.4,1.5c0.6,0,1-0.3,1.3-0.6c0.1-0.1,0.1-0.3,0.1-0.6c0-1-0.4-2-1.4-2h0z"
   id="path19" />
				</g>
			</g>
			<path
   style="stroke:#FFFFFF;stroke-width:6;stroke-linejoin:round;"
   d="M39.2,26.7c0,1-0.8,1.7-1.7,1.7c-1,0-1.7-0.8-1.7-1.7c0-1,0.8-1.7,1.7-1.7c1,0,1.7,0.8,1.7,1.7z"
   id="path21" />
			<path
   style="stroke:#FFFFFF;stroke-width:6;stroke-linejoin:round;"
   d="M39.2,21.5c0,1-0.8,1.7-1.7,1.7c-1,0-1.7-0.8-1.7-1.7c0-1,0.8-1.7,1.7-1.7c1,0,1.7,0.8,1.7,1.7z"
   id="path23" />
			<path
   style="stroke:#FFFFFF;stroke-width:6;stroke-linejoin:round;"
   d="M11.2,22.5c0,0,2.1-2.1,4.2-4.2v23.4h5.9V18.3c2.1,2.1,4.2,4.2,4.2,4.2l4.2-4.2L20.5,9c-1.2-1.2-3-1.2-4.2,0l-9.3,9.3l4.2,4.2z"
   id="path25" />
			<g
   id="g27">
				<path
   d="M36.6,9.4h0l-1.8,0.9l-0.4-1.7l2.5-1.2h1.8v9.5h-2.1V9.4z"
   id="path29" />
				<path
   d="M34.4,38.6c0.3,0,0.5,0,1,0c0.7,0,1.4-0.2,1.9-0.6c0.6-0.4,1-1,1.2-1.7l0,0c-0.4,0.4-1,0.7-1.9,0.7c-1.6,0-2.9-1.1-2.9-3c0-1.8,1.5-3.4,3.6-3.4c2.4,0,3.6,1.9,3.6,4.1c0,2-0.6,3.4-1.6,4.3c-0.9,0.8-2.2,1.3-3.6,1.3c-0.4,0-0.7,0-1,0v-1.7z M37,32.2      c-0.7,0-1.3,0.7-1.3,1.7c0,0.8,0.5,1.5,1.3,1.5c0.6,0,1-0.3,1.3-0.6c0.1-0.1,0.1-0.3,0.1-0.6c0-1-0.4-2-1.4-2h0z"
   id="path31" />
			</g>
			<path
   d="M39.3,26.7c0,1-0.8,1.7-1.7,1.7c-1,0-1.7-0.8-1.7-1.7c0-1,0.8-1.7,1.7-1.7c1,0,1.7,0.8,1.7,1.7z"
   id="path33" />
			<path
   d="M39.3,21.4c0,1-0.8,1.7-1.7,1.7c-1,0-1.7-0.8-1.7-1.7c0-1,0.8-1.7,1.7-1.7c1,0,1.7,0.8,1.7,1.7z"
   id="path35" />
			<path
   d="M11.2,22.5c0,0,2.1-2.1,4.2-4.2v23.4h5.9V18.3c2.1,2.1,4.2,4.2,4.2,4.2l4.2-4.2l-9.3-9.3c-1.2-1.2-3-1.2-4.2,0L7,18.4l4.2,4.2z"
   id="path37" />
		</g>
	</g>
	<g
   id="crop_x0020_marks"
   style="fill-rule:nonzero;clip-rule:nonzero;stroke:#000000;stroke-miterlimit:4;">
		<path
   style="fill:none;stroke:none;"
   d="M48,48H0V0h48v48z"
   id="path40" />
	</g>
</svg>