<?xml version="1.0" encoding="iso-8859-1"?>
<!-- Generator: Adobe Illustrator 9.0, SVG Export Plug-In  -->
<!DOCTYPE svg PUBLIC "-//W3C//DTD SVG 20000303 Stylable//EN"   "http://www.w3.org/TR/2000/03/WD-SVG-20000303/DTD/svg-20000303-stylable.dtd" [
	<!ENTITY st0 "fill-rule:nonzero;clip-rule:nonzero;fill:#FFFFFF;stroke:#000000;stroke-miterlimit:4;">
	<!ENTITY st1 "fill:none;stroke:none;">
	<!ENTITY st2 "fill:#000000;">
	<!ENTITY st3 "fill:#000000;stroke:#FFFFFF;stroke-width:6.9716;stroke-linejoin:round;">
	<!ENTITY st4 "fill-rule:nonzero;clip-rule:nonzero;stroke:#000000;stroke-miterlimit:4;">
	<!ENTITY st5 "stroke:none;">
]>
<svg  width="48pt" height="48pt" viewBox="0 0 48 48" xml:space="preserve">
	<g id="Layer_x0020_3" style="&st0;">
		<g style="&st5;">
			<path style="&st3;" d="M42.9,24c0,10.4-8.5,18.9-18.9,18.9C13.6,42.9,5.1,34.4,5.1,24C5.1,13.6,13.6,5.1,24,5.1c10.4,0,18.9,8.5,18.9,18.9z"/>
			<path style="&st2;" d="M42.9,24c0,10.4-8.5,18.9-18.9,18.9C13.6,42.9,5.1,34.4,5.1,24C5.1,13.6,13.6,5.1,24,5.1c10.4,0,18.9,8.5,18.9,18.9z"/>
			<path d="M29.1,8.9c0-0.1-0.2-0.2-0.2-0.1l-8,8.1c-0.3,0.3-0.2,0.3,0,0.5l8,8c0.1,0.1,0.2,0,0.2-0.1v-4.8h2.2c0.7,0,2.5,0.3,2.5,2.1v2.1c0,2-3.7,2.6-3.7,3.2c0,0.6,0.8,0.8,0.8,0.8h2.8c2.7,0,4.1-2.6,4.1-5.2V20c0-4.2-2.3-6.3-5.7-6.3H29l0-4.8z"/>
			<path d="M18.9,39.1c0,0.1,0.2,0.2,0.2,0.1l8-8.1c0.3-0.3,0.2-0.3,0-0.5l-8-8c-0.1-0.1-0.2,0-0.2,0.1v4.8h-2.2c-0.7,0-2.5-0.3-2.5-2.1v-2.1c0-2,3.6-2.6,3.6-3.2c0-0.6-0.8-0.8-0.8-0.8h-2.8c-2.7,0-4.1,2.6-4.1,5.2V28c0,4.2,2.3,6.3,5.7,6.3H19l0,4.8z"/>
		</g>
	</g>
	<g id="crop_x0020_marks" style="&st4;">
		<path style="&st1;" d="M48,48H0V0h48v48z"/>
	</g>
</svg>
