<?xml version="1.0" encoding="iso-8859-1"?>
<!-- Generator: Adobe Illustrator 9.0, SVG Export Plug-In  -->
<!DOCTYPE svg PUBLIC "-//W3C//DTD SVG 20000303 Stylable//EN"   "http://www.w3.org/TR/2000/03/WD-SVG-20000303/DTD/svg-20000303-stylable.dtd" [
	<!ENTITY st0 "stroke:#FFFFFF;stroke-width:7.1255;stroke-linejoin:round;">
	<!ENTITY st1 "fill:#FFFFFF;stroke:none;">
	<!ENTITY st2 "fill:none;stroke:none;">
	<!ENTITY st3 "fill:#FFFFFF;stroke:#FFFFFF;stroke-width:7.1255;stroke-linejoin:round;">
	<!ENTITY st4 "fill-rule:nonzero;clip-rule:nonzero;stroke:#000000;stroke-miterlimit:4;">
	<!ENTITY st5 "stroke:none;">
]>
<svg  width="48pt" height="48pt" viewBox="0 0 48 48" xml:space="preserve">
	<g id="Layer_x0020_4" style="&st4;">
		<g>
			<g>
				<path style="&st0;" d="M5.2,42.4c1.4,1.4,3.6,1.4,4.9,0l5.7-4.7c1-1,1.3-2.4,0.8-3.6c2.9,2.4,6.5,3.8,10.5,3.8c9.2,0,16.6-7.4,16.6-16.6c0-9.2-7.4-16.6-16.6-16.6c-9.2,0-16.6,7.4-16.6,16.6c0,4,1.5,7.8,3.9,10.6c-1.2-0.4-2.6-0.1-3.6,0.8l-5.7,4.7
					c-1.4,1.4-1.4,3.6,0,4.9z M15,21.2C15,14.5,20.5,9,27.2,9c6.7,0,12.2,5.5,12.2,12.2c0,6.7-5.5,12.2-12.2,12.2c-6.7,0-12.2-5.5-12.2-12.2z"/>
				<path style="&st3;" d="M15,21.2c0,6.7,5.5,12.2,12.2,12.2c6.7,0,12.2-5.5,12.2-12.2C39.4,14.5,33.9,9,27.2,9C20.5,9,15,14.5,15,21.2z"/>
			</g>
			<g>
				<path style="&st5;" d="M5.2,42.4c1.4,1.4,3.6,1.4,4.9,0l5.7-4.7c1-1,1.3-2.4,0.8-3.6c2.9,2.4,6.5,3.8,10.5,3.8c9.2,0,16.6-7.4,16.6-16.6c0-9.2-7.4-16.6-16.6-16.6c-9.2,0-16.6,7.4-16.6,16.6c0,4,1.5,7.8,3.9,10.6c-1.2-0.4-2.6-0.1-3.6,0.8l-5.7,4.7
					c-1.4,1.4-1.4,3.6,0,4.9z M15,21.2C15,14.5,20.5,9,27.2,9c6.7,0,12.2,5.5,12.2,12.2c0,6.7-5.5,12.2-12.2,12.2c-6.7,0-12.2-5.5-12.2-12.2z"/>
				<path style="&st1;" d="M15,21.2c0,6.7,5.5,12.2,12.2,12.2c6.7,0,12.2-5.5,12.2-12.2C39.4,14.5,33.9,9,27.2,9C20.5,9,15,14.5,15,21.2z"/>
			</g>
		</g>
		<path style="&st5;" d="M35.7,29.6H18.8V12.7h16.9v16.9z"/>
		<path style="&st1;" d="M32.5,26.4H22V15.9h10.4v10.4z"/>
	</g>
	<g id="crop_x0020_marks" style="&st4;">
		<path style="&st2;" d="M48,48H0V0h48v48z"/>
	</g>
</svg>
