<?xml version="1.0" encoding="utf-8"?>
<!DOCTYPE svg PUBLIC "-//W3C//DTD SVG 1.0//EN"    "http://www.w3.org/TR/2001/REC-SVG-20010904/DTD/svg10.dtd">
<svg  xmlns="http://www.w3.org/2000/svg" width="51" height="29" viewBox="0 0 51 29" overflow="visible" enable-background="new 0 0 51 29" xml:space="preserve">
 <polygon fill="#409D27" points="51,14.54 25.44,29 0,14.54 25.44,0 51,14.54 "/>
 <path fill="#FFFFFF" d="M10.71,9.95h1.34v1.4c0.32-0.48,0.65-0.83,0.99-1.07c0.55-0.39,1.22-0.58,2-0.58 c0.77,0,1.42,0.17,1.93,0.51c0.62,0.41,0.92,1.01,0.92,1.78v6.36h-1.44v-5.82c0-0.56-0.2-0.99-0.59-1.27 c-0.35-0.25-0.77-0.38-1.27-0.38c-0.67,0-1.24,0.23-1.7,0.69c-0.5,0.5-0.75,1.21-0.75,2.15v4.63h-1.44V9.95z"/>
 <path fill="#FFFFFF" d="M27.98,14.61h-6.68c0.01,0.75,0.17,1.35,0.48,1.79c0.51,0.72,1.24,1.09,2.18,1.09 c1.18,0,1.97-0.56,2.38-1.69h1.45c-0.14,0.68-0.42,1.26-0.85,1.75c-0.71,0.79-1.72,1.19-3.02,1.19c-1.28,0-2.3-0.41-3.04-1.22 c-0.72-0.79-1.08-1.86-1.08-3.23c0-1.44,0.4-2.57,1.19-3.39c0.77-0.79,1.75-1.18,2.96-1.18c0.98,0,1.84,0.27,2.56,0.8 c0.81,0.61,1.28,1.54,1.41,2.8C27.96,13.65,27.98,14.09,27.98,14.61z M26.43,13.51c0-0.03,0-0.06,0-0.09 c0-0.54-0.16-1.04-0.49-1.48c-0.48-0.66-1.15-0.98-2.01-0.98c-0.94,0-1.65,0.38-2.13,1.14c-0.26,0.4-0.41,0.88-0.45,1.42H26.43z" />
 <polygon fill="#FFFFFF" points="38.29,18.36 36.66,18.36 34.82,11.76 33.08,18.36 31.46,18.36 28.83,9.95 30.42,9.95 32.27,16.49 34,9.95 35.77,9.95 37.54,16.49 39.35,9.95 40.97,9.95 "/>
</svg>
