<?xml version="1.0" encoding="iso-8859-1"?>
<!-- Generator: Adobe Illustrator 9.0, SVG Export Plug-In  -->
<!DOCTYPE svg PUBLIC "-//W3C//DTD SVG 20000303 Stylable//EN"   "http://www.w3.org/TR/2000/03/WD-SVG-20000303/DTD/svg-20000303-stylable.dtd" [
	<!ENTITY st0 "fill:none;stroke:#FFFFFF;stroke-width:6.709;">
	<!ENTITY st1 "fill:#FFFFFF;stroke:none;">
	<!ENTITY st2 "fill:none;stroke:none;">
	<!ENTITY st3 "fill-rule:nonzero;clip-rule:nonzero;stroke:#000000;stroke-miterlimit:4;">
	<!ENTITY st4 "stroke:none;">
]>
<svg  width="48pt" height="48pt" viewBox="0 0 48 48" xml:space="preserve">
	<g id="Layer_x0020_4" style="&st3;">
		<g>
			<path style="&st0;" d="M7.1,10.6c-1.3,0-2.3,1-2.3,2.3l0.1,22.3c0,1.4,0.9,2.3,2.3,2.3c0,0,0.1,0,0.1,0h0h27.5c1.1,0,2.1-0.6,2.9-1.6c0.6-0.9,2.2-4.5,3.1-6.8c1.6-4.1,2.5-6.7,2.5-7.9c0-0.3,0-1.2-0.7-1.7c-0.6-0.5-1.4-0.6-2.2-0.6c0,0-2.4,0-4,0
				c0-0.8,0-1.7,0-1.7c0-1.3-0.9-2.2-2.2-2.2c0,0-11.6,0-14,0c0-1.1,0-2.2,0-2.2c0-1.2-1-2.2-2.3-2.2H7.1z"/>
			<path style="&st4;" d="M7.1,10.6c-1.3,0-2.3,1-2.3,2.3l0.1,22.3c0,1.4,0.9,2.3,2.3,2.3c0,0,0.1,0,0.1,0h0h27.5c1.1,0,2.1-0.6,2.9-1.6c0.6-0.9,2.2-4.5,3.1-6.8c1.6-4.1,2.5-6.7,2.5-7.9c0-0.3,0-1.2-0.7-1.7c-0.6-0.5-1.4-0.6-2.2-0.6c0,0-2.4,0-4,0
				c0-0.8,0-1.7,0-1.7c0-1.3-0.9-2.2-2.2-2.2c0,0-11.6,0-14,0c0-1.1,0-2.2,0-2.2c0-1.2-1-2.2-2.3-2.2H7.1z"/>
			<path style="&st1;" d="M8.9,35.3h25.1c0.6,0,1.2-0.4,1.5-0.9c0.7-1,4.8-10.6,4.8-12.5c0-0.4,0-0.7-1.3-0.7H14.9c-0.4,0-0.8,0.1-0.9,0.7c-0.1,1.5-3.2,11.8-4.3,13.1c-0.3,0.4-0.9,0.4-0.9,0.4z"/>
		</g>
	</g>
	<g id="crop_x0020_marks" style="&st3;">
		<path style="&st2;" d="M48,48H0V0h48v48z"/>
	</g>
</svg>
