<?xml version="1.0" encoding="UTF-8" standalone="no"?>
<!-- Generator: Adobe Illustrator 9.0, SVG Export Plug-In  -->
<svg
   xmlns:dc="http://purl.org/dc/elements/1.1/"
   xmlns:cc="http://web.resource.org/cc/"
   xmlns:rdf="http://www.w3.org/1999/02/22-rdf-syntax-ns#"
   xmlns:svg="http://www.w3.org/2000/svg"
   xmlns="http://www.w3.org/2000/svg"
   xmlns:sodipodi="http://inkscape.sourceforge.net/DTD/sodipodi-0.dtd"
   xmlns:inkscape="http://www.inkscape.org/namespaces/inkscape"
   width="48pt"
   height="48pt"
   viewBox="0 0 48 48"
   xml:space="preserve"
   id="svg2"
   sodipodi:version="0.32"
   inkscape:version="0.42.2"
   sodipodi:docname="gnome-fs-trash-full.svg"
   sodipodi:docbase="/home/luca/Desktop/Black-and-White/scalable/filesystems"><metadata
   id="metadata23"><rdf:RDF><cc:Work
       rdf:about=""><dc:format>image/svg+xml</dc:format><dc:type
         rdf:resource="http://purl.org/dc/dcmitype/StillImage" /></cc:Work></rdf:RDF></metadata><defs
   id="defs21" /><sodipodi:namedview
   inkscape:window-height="561"
   inkscape:window-width="922"
   inkscape:pageshadow="2"
   inkscape:pageopacity="0.0"
   borderopacity="1.0"
   bordercolor="#666666"
   pagecolor="#ffffff"
   id="base"
   inkscape:zoom="6.1833333"
   inkscape:cx="30.000000"
   inkscape:cy="29.486932"
   inkscape:window-x="387"
   inkscape:window-y="278"
   inkscape:current-layer="svg2" />
	<g
   id="Layer_x0020_3"
   style="fill-rule:nonzero;clip-rule:nonzero;fill:none;stroke:#FFFFFF;stroke-width:6.4814;stroke-linejoin:round;stroke-miterlimit:4;">
		<g
   id="g5">
			<path
   d="M24,6.3c-7.9,0-14.3,2.8-14.3,6.2v24.2c0,3.4,6.4,6.2,14.3,6.2c7.9,0,14.3-2.8,14.3-6.2V12.6c0-3.4-6.4-6.2-14.3-6.2z"
   id="path7" />
			<path
   d="M24,4.9c-8.8,0-16,3.1-16,7v5.8c0,3.9,7.2,7,16,7c8.8,0,16-3.1,16-7v-5.8c0-3.9-7.2-7-16-7z"
   id="path9" />
			<path
   style="fill:#000000;stroke:none;"
   d="M24,6.4c-7.9,0-14.3,2.8-14.3,6.2v24.2c0,3.4,6.4,6.2,14.3,6.2c7.9,0,14.3-2.8,14.3-6.2V12.7c0-3.4-6.4-6.2-14.3-6.2z"
   id="path11" />
			<path
   style="fill:#000000;stroke:none;"
   d="M24,5C15.2,5,8,8.1,8,12v5.8c0,3.9,7.2,7,16,7c8.8,0,16-3.1,16-7V12c0-3.9-7.2-7-16-7z"
   id="path13" />
			<path
   style="fill:#FFFFFF;stroke:none;"
   d="M35.8,12.1c0,2.3-5.2,4.1-11.6,4.1c-6.4,0-11.6-1.9-11.6-4.1c0-2.3,5.2-4.1,11.6-4.1c6.4,0,11.6,1.9,11.6,4.1z"
   id="path15" />
		</g>
	</g>
	<g
   id="crop_x0020_marks"
   style="fill-rule:nonzero;clip-rule:nonzero;stroke:#000000;stroke-miterlimit:4;">
		<path
   style="fill:none;stroke:none;"
   d="M48,48H0V0h48v48z"
   id="path18" />
	</g>
<path
   style="fill:#000000;fill-opacity:1.0000000;fill-rule:nonzero;stroke:#ffffff;stroke-width:3.1528344;stroke-linecap:round;stroke-linejoin:round;stroke-miterlimit:4.0000000;stroke-dashoffset:0.0000000;stroke-opacity:1.0000000"
   d="M 14.741093,11.480142 L 28.511369,2.3317738 L 34.247758,12.361829 C 29.664923,14.401292 21.244030,15.694905 14.741093,11.480142 z "
   id="rect4045"
   sodipodi:nodetypes="cccc" /></svg>