<?xml version="1.0" encoding="UTF-8" standalone="no"?>
<!-- Created with Inkscape (http://www.inkscape.org/) -->
<svg
   xmlns:dc="http://purl.org/dc/elements/1.1/"
   xmlns:cc="http://web.resource.org/cc/"
   xmlns:rdf="http://www.w3.org/1999/02/22-rdf-syntax-ns#"
   xmlns:svg="http://www.w3.org/2000/svg"
   xmlns="http://www.w3.org/2000/svg"
   xmlns:xlink="http://www.w3.org/1999/xlink"
   xmlns:sodipodi="http://sodipodi.sourceforge.net/DTD/sodipodi-0.dtd"
   xmlns:inkscape="http://www.inkscape.org/namespaces/inkscape"
   version="1.0"
   x="0.0000000"
   y="0.0000000"
   width="32"
   height="32"
   id="svg1"
   sodipodi:version="0.32"
   inkscape:version="0.44"
   sodipodi:docname="document-open.svg"
   sodipodi:docbase="/home/lapo/Icone/Crux/crux-icon-theme/32x32/actions"
   inkscape:export-filename="/home/lapo/Icone/Crux/folderx-daritaliare.png"
   inkscape:export-xdpi="90"
   inkscape:export-ydpi="90"
   inkscape:output_extension="org.inkscape.output.svg.inkscape">
  <metadata
     id="metadata162">
    <rdf:RDF>
      <cc:Work
         rdf:about="">
        <dc:format>image/svg+xml</dc:format>
        <dc:type
           rdf:resource="http://purl.org/dc/dcmitype/StillImage" />
        <dc:title>Folder</dc:title>
        <dc:creator>
          <cc:Agent>
            <dc:title>Lapo Calamandrei</dc:title>
          </cc:Agent>
        </dc:creator>
        <dc:date />
        <cc:license
           rdf:resource="http://creativecommons.org/licenses/GPL/2.0/" />
        <dc:identifier />
        <dc:subject>
          <rdf:Bag>
            <rdf:li>folder</rdf:li>
            <rdf:li>directory</rdf:li>
            <rdf:li>storage</rdf:li>
          </rdf:Bag>
        </dc:subject>
      </cc:Work>
      <cc:License
         rdf:about="http://creativecommons.org/licenses/GPL/2.0/">
        <cc:permits
           rdf:resource="http://web.resource.org/cc/Reproduction" />
        <cc:permits
           rdf:resource="http://web.resource.org/cc/Distribution" />
        <cc:requires
           rdf:resource="http://web.resource.org/cc/Notice" />
        <cc:permits
           rdf:resource="http://web.resource.org/cc/DerivativeWorks" />
        <cc:requires
           rdf:resource="http://web.resource.org/cc/ShareAlike" />
        <cc:requires
           rdf:resource="http://web.resource.org/cc/SourceCode" />
      </cc:License>
    </rdf:RDF>
  </metadata>
  <sodipodi:namedview
     id="base"
     pagecolor="#ffffff"
     bordercolor="#666"
     borderopacity="1"
     inkscape:pageopacity="0.0"
     inkscape:pageshadow="2"
     inkscape:window-width="1051"
     inkscape:window-height="655"
     inkscape:cy="27.697829"
     inkscape:cx="49.126717"
     inkscape:zoom="1"
     inkscape:document-units="px"
     showgrid="false"
     inkscape:window-x="326"
     inkscape:window-y="0"
     inkscape:current-layer="layer1"
     inkscape:showpageshadow="false"
     showguides="false"
     inkscape:guide-bbox="true"
     inkscape:object-paths="false"
     gridspacingx="0.5px"
     gridspacingy="0.5px"
     gridempspacing="2"
     inkscape:grid-points="true"
     showborder="true"
     inkscape:grid-bbox="false"
     width="32px"
     height="32px">
    <sodipodi:guide
       orientation="horizontal"
       position="36.062446"
       id="guide1934" />
    <sodipodi:guide
       orientation="horizontal"
       position="15.003922"
       id="guide1941" />
    <sodipodi:guide
       orientation="vertical"
       position="4.5"
       id="guide1943" />
    <sodipodi:guide
       orientation="vertical"
       position="44.503533"
       id="guide1945" />
    <sodipodi:guide
       orientation="horizontal"
       position="43.125"
       id="guide1947" />
    <sodipodi:guide
       orientation="horizontal"
       position="39"
       id="guide1949" />
    <sodipodi:guide
       orientation="horizontal"
       position="19.003495"
       id="guide2919" />
    <sodipodi:guide
       orientation="vertical"
       position="0.97227183"
       id="guide2212" />
    <sodipodi:guide
       orientation="vertical"
       position="47.994873"
       id="guide2214" />
    <sodipodi:guide
       orientation="horizontal"
       position="111"
       id="guide4328" />
    <sodipodi:guide
       orientation="vertical"
       position="65.75"
       id="guide3135" />
    <sodipodi:guide
       orientation="vertical"
       position="129.75"
       id="guide3137" />
    <sodipodi:guide
       orientation="vertical"
       position="190.75"
       id="guide3139" />
    <sodipodi:guide
       orientation="vertical"
       position="212.48559"
       id="guide3316" />
    <sodipodi:guide
       orientation="horizontal"
       position="178.01413"
       id="guide3318" />
  </sodipodi:namedview>
  <defs
     id="defs3">
    <linearGradient
       id="linearGradient16514">
      <stop
         style="stop-color:white;stop-opacity:0.18292683;"
         offset="0"
         id="stop16516" />
      <stop
         id="stop2824"
         offset="0.8214286"
         style="stop-color:white;stop-opacity:1;" />
      <stop
         style="stop-color:white;stop-opacity:0;"
         offset="1"
         id="stop16518" />
    </linearGradient>
    <linearGradient
       id="linearGradient11425">
      <stop
         style="stop-color:#555753;stop-opacity:1;"
         offset="0"
         id="stop11427" />
      <stop
         style="stop-color:#2e3436;stop-opacity:1"
         offset="1"
         id="stop11429" />
    </linearGradient>
    <linearGradient
       id="linearGradient2502">
      <stop
         style="stop-color:#babdb6;stop-opacity:1"
         offset="0"
         id="stop2504" />
      <stop
         id="stop13256"
         offset="0.26671854"
         style="stop-color:#eeeeec;stop-opacity:1;" />
      <stop
         style="stop-color:white;stop-opacity:1;"
         offset="0.37147304"
         id="stop2460" />
      <stop
         style="stop-color:#888a85;stop-opacity:1"
         offset="1"
         id="stop2506" />
    </linearGradient>
    <linearGradient
       inkscape:collect="always"
       id="linearGradient4100">
      <stop
         style="stop-color:#75507b;stop-opacity:1;"
         offset="0"
         id="stop4102" />
      <stop
         style="stop-color:#5c3566;stop-opacity:1"
         offset="1"
         id="stop4104" />
    </linearGradient>
    <linearGradient
       inkscape:collect="always"
       id="linearGradient3311">
      <stop
         style="stop-color:#888a85;stop-opacity:1;"
         offset="0"
         id="stop3313" />
      <stop
         style="stop-color:#555753;stop-opacity:1"
         offset="1"
         id="stop3315" />
    </linearGradient>
    <linearGradient
       inkscape:collect="always"
       id="linearGradient3923">
      <stop
         style="stop-color:white;stop-opacity:1;"
         offset="0"
         id="stop3925" />
      <stop
         style="stop-color:white;stop-opacity:0;"
         offset="1"
         id="stop3927" />
    </linearGradient>
    <linearGradient
       id="linearGradient3908">
      <stop
         style="stop-color:white;stop-opacity:1;"
         offset="0"
         id="stop3910" />
      <stop
         style="stop-color:white;stop-opacity:0;"
         offset="1"
         id="stop3912" />
    </linearGradient>
    <linearGradient
       id="linearGradient2894">
      <stop
         style="stop-color:#39213f;stop-opacity:1;"
         offset="0"
         id="stop2896" />
      <stop
         id="stop2900"
         offset="0.47619048"
         style="stop-color:#75507b;stop-opacity:1;" />
      <stop
         style="stop-color:#5c3566;stop-opacity:1"
         offset="1"
         id="stop2898" />
    </linearGradient>
    <linearGradient
       id="linearGradient3100">
      <stop
         style="stop-color:white;stop-opacity:1;"
         offset="0"
         id="stop3102" />
      <stop
         id="stop2071"
         offset="1"
         style="stop-color:white;stop-opacity:0;" />
    </linearGradient>
    <linearGradient
       id="linearGradient3018">
      <stop
         style="stop-color:white;stop-opacity:1;"
         offset="0"
         id="stop3020" />
      <stop
         style="stop-color:white;stop-opacity:0;"
         offset="1"
         id="stop3022" />
    </linearGradient>
    <linearGradient
       inkscape:collect="always"
       xlink:href="#linearGradient2502"
       id="linearGradient3783"
       gradientUnits="userSpaceOnUse"
       gradientTransform="matrix(0.967744,0,0,1,4.3388,62)"
       x1="84.25"
       y1="-51.881321"
       x2="84.25"
       y2="-27.44416" />
    <linearGradient
       inkscape:collect="always"
       xlink:href="#linearGradient11425"
       id="linearGradient3785"
       gradientUnits="userSpaceOnUse"
       gradientTransform="translate(1.0003,55)"
       x1="103.8125"
       y1="-41.689045"
       x2="103.8125"
       y2="-21.4375" />
    <linearGradient
       inkscape:collect="always"
       xlink:href="#linearGradient16514"
       id="linearGradient3787"
       gradientUnits="userSpaceOnUse"
       x1="100.7497"
       y1="-26.998718"
       x2="100.7497"
       y2="-51.375" />
    <linearGradient
       inkscape:collect="always"
       xlink:href="#linearGradient3311"
       id="linearGradient3789"
       gradientUnits="userSpaceOnUse"
       gradientTransform="matrix(0.988198,0,0,1,6.305831e-2,1)"
       x1="20.625"
       y1="-90.064087"
       x2="20.625"
       y2="-72.44783" />
    <linearGradient
       inkscape:collect="always"
       xlink:href="#linearGradient3018"
       id="linearGradient3791"
       gradientUnits="userSpaceOnUse"
       gradientTransform="matrix(0.956801,0,0,0.971989,0.778587,-2.22687)"
       x1="9"
       y1="-92.805496"
       x2="9"
       y2="-71.257133" />
    <linearGradient
       inkscape:collect="always"
       xlink:href="#linearGradient3100"
       id="linearGradient3793"
       gradientUnits="userSpaceOnUse"
       x1="17.02047"
       y1="-16.276186"
       x2="17.02047"
       y2="-29.344501" />
    <linearGradient
       inkscape:collect="always"
       xlink:href="#linearGradient4100"
       id="linearGradient3795"
       gradientUnits="userSpaceOnUse"
       x1="29.98797"
       y1="35.783714"
       x2="29.98797"
       y2="27.05674" />
    <linearGradient
       inkscape:collect="always"
       xlink:href="#linearGradient2894"
       id="linearGradient3797"
       gradientUnits="userSpaceOnUse"
       gradientTransform="matrix(1,0,0,0.996152,0,85.74795)"
       x1="9.4176369"
       y1="-44.922661"
       x2="9.4176369"
       y2="-59.636772" />
    <linearGradient
       inkscape:collect="always"
       xlink:href="#linearGradient3908"
       id="linearGradient3799"
       gradientUnits="userSpaceOnUse"
       x1="8.25"
       y1="-14.375"
       x2="8.25"
       y2="-30.879261" />
    <radialGradient
       inkscape:collect="always"
       xlink:href="#linearGradient3923"
       id="radialGradient3801"
       gradientUnits="userSpaceOnUse"
       gradientTransform="matrix(2.268741,0,-1.646661e-6,0.184077,-10.86781,19.78961)"
       cx="10.189716"
       cy="16.554359"
       fx="10.189716"
       fy="16.554359"
       r="22.5" />
  </defs>
  <g
     inkscape:groupmode="layer"
     id="layer1"
     inkscape:label="32"
     style="display:inline">
    <g
       style="display:inline"
       transform="matrix(0.147619,0,0,0.186667,-1.56027,-9.6806)"
       id="g3706"
       inkscape:export-filename="/home/lapo/Icone/Crux/folderx.png"
       inkscape:export-xdpi="90"
       inkscape:export-ydpi="90">
      <path
         d="M 32.706693,164.36026 C 22.319193,164.36026 13.956693,172.72276 13.956693,183.11026 C 13.956693,193.49776 22.319193,201.86026 32.706693,201.86026 L 205.20669,201.86026 C 215.59419,201.86026 223.95669,193.49776 223.95669,183.11026 C 223.95669,172.72276 215.59419,164.36026 205.20669,164.36026 L 32.706693,164.36026 z "
         style="opacity:0.04787233;fill-rule:evenodd;stroke-width:3pt"
         id="path3709" />
      <path
         d="M 32.706693,165.61026 C 23.011693,165.61026 15.206693,173.41526 15.206693,183.11026 C 15.206693,192.80526 23.011693,200.61026 32.706693,200.61026 L 205.20669,200.61026 C 214.90169,200.61026 222.70669,192.80526 222.70669,183.11026 C 222.70669,173.41526 214.90169,165.61026 205.20669,165.61026 L 32.706693,165.61026 z "
         style="opacity:0.04787233;fill-rule:evenodd;stroke-width:3pt"
         id="path3711" />
      <path
         d="M 32.706694,166.86026 C 23.704194,166.86026 16.456694,174.10776 16.456694,183.11026 C 16.456694,192.11276 23.704194,199.36026 32.706694,199.36026 L 205.20669,199.36026 C 214.20919,199.36026 221.45669,192.11276 221.45669,183.11026 C 221.45669,174.10776 214.20919,166.86026 205.20669,166.86026 L 32.706694,166.86026 z "
         style="opacity:0.04787233;fill-rule:evenodd;stroke-width:3pt"
         id="path3713" />
      <path
         d="M 32.706694,168.11026 C 24.396694,168.11026 17.706694,174.80026 17.706694,183.11026 C 17.706694,191.42026 24.396694,198.11026 32.706694,198.11026 L 205.20669,198.11026 C 213.51669,198.11026 220.20669,191.42026 220.20669,183.11026 C 220.20669,174.80026 213.51669,168.11026 205.20669,168.11026 L 32.706694,168.11026 z "
         style="opacity:0.04787233;fill-rule:evenodd;stroke-width:3pt"
         id="path3715" />
      <path
         d="M 32.707764,169.36026 C 25.090264,169.36026 18.957764,175.49276 18.957764,183.11026 C 18.957764,190.72776 25.090264,196.86026 32.707764,196.86026 L 205.20618,196.86026 C 212.82368,196.86026 218.95618,190.72776 218.95618,183.11026 C 218.95618,175.49276 212.82368,169.36026 205.20618,169.36026 L 32.707764,169.36026 z "
         style="opacity:0.04787233;fill-rule:evenodd;stroke-width:3pt"
         id="path3717" />
      <path
         d="M 32.706694,170.61026 C 25.781694,170.61026 20.206694,176.18526 20.206694,183.11026 C 20.206694,190.03526 25.781694,195.61026 32.706694,195.61026 L 205.20669,195.61026 C 212.13169,195.61026 217.70669,190.03526 217.70669,183.11026 C 217.70669,176.18526 212.13169,170.61026 205.20669,170.61026 L 32.706694,170.61026 z "
         style="opacity:0.04787233;fill-rule:evenodd;stroke-width:3pt"
         id="path3719" />
      <path
         d="M 32.706694,171.86026 C 26.474194,171.86026 21.456694,176.87776 21.456694,183.11026 C 21.456694,189.34276 26.474194,194.36026 32.706694,194.36026 L 205.20669,194.36026 C 211.43919,194.36026 216.45669,189.34276 216.45669,183.11026 C 216.45669,176.87776 211.43919,171.86026 205.20669,171.86026 L 32.706694,171.86026 z "
         style="opacity:0.04787233;fill-rule:evenodd;stroke-width:3pt"
         id="path3721" />
      <path
         d="M 32.706694,173.11026 C 27.166694,173.11026 22.706694,177.57026 22.706694,183.11026 C 22.706694,188.65026 27.166694,193.11026 32.706694,193.11026 L 205.20669,193.11026 C 210.74669,193.11026 215.20669,188.65026 215.20669,183.11026 C 215.20669,177.57026 210.74669,173.11026 205.20669,173.11026 L 32.706694,173.11026 z "
         style="opacity:0.04787233;fill-rule:evenodd;stroke-width:3pt"
         id="path3723" />
    </g>
    <g
       style="display:inline"
       id="g3755"
       inkscape:export-filename="/home/lapo/Icone/Crux/folderx.png"
       inkscape:export-xdpi="90"
       inkscape:export-ydpi="90"
       transform="matrix(0.66413,0,0,0.676142,-8.647e-2,68.4069)">
      <path
         inkscape:export-ydpi="90"
         inkscape:export-xdpi="90"
         inkscape:export-filename="/home/lapo/Icone/Crux/folderx-alt.png"
         sodipodi:nodetypes="czcccccccscc"
         id="path3757"
         d="M 8.4627413,-94.500002 C 7.5708926,-94.500002 7.1465871,-94.186392 6.9804443,-93.04412 C 5.1206814,-83.070943 5.217258,-76.444719 5.4981473,-66.343878 C 5.4981473,-65.594581 6.1071807,-64.978989 6.8569196,-64.978989 L 41.690899,-64.978989 C 42.440635,-64.978989 42.998443,-65.596272 43.049671,-66.343878 C 44.037869,-84.390749 42.061473,-88.658009 42.061473,-88.658009 C 42.061473,-89.407306 41.452437,-90.022898 40.702701,-90.022898 L 23.285711,-90.022898 L 22.297513,-92.897058 C 22.0156,-93.717 21.294479,-94.500002 20.402631,-94.500002 L 8.4627413,-94.500002 z "
         style="fill:url(#linearGradient3789);fill-opacity:1;stroke:#555753;stroke-width:1.49229598;stroke-linecap:round;stroke-linejoin:miter;stroke-miterlimit:4;stroke-dasharray:none;stroke-opacity:1;display:inline" />
      <path
         id="path3759"
         d="M 8.9113928,-93.107841 C 8.5935025,-93.107841 8.5795165,-93.074654 8.5824926,-93.077467 C 8.5854687,-93.08028 8.4685479,-92.952118 8.4030925,-92.500348 C 8.4032502,-92.490224 8.4032502,-92.480098 8.4030925,-92.469974 C 6.7774954,-83.718672 6.7278674,-74.843592 6.9379914,-65.89215 L 41.562216,-65.89215 C 42.215717,-81.49735 40.545616,-87.967214 40.545616,-87.967214 C 40.515315,-88.045211 40.495211,-88.126905 40.485816,-88.210212 C 40.485816,-88.4125 40.333746,-88.574707 40.127016,-88.574707 L 22.940606,-88.574707 C 22.52229,-88.580044 22.157282,-88.864325 22.043605,-89.273325 C 22.043605,-89.273325 21.299361,-91.300096 20.858553,-92.257351 C 20.702083,-92.59714 20.35233,-93.014439 20.073149,-93.016718 L 8.9113928,-93.107841 z "
         style="opacity:0.5;fill:none;fill-opacity:1;stroke:url(#linearGradient3791);stroke-width:1.49229586;stroke-linecap:round;stroke-linejoin:miter;stroke-miterlimit:4;stroke-dasharray:none;stroke-opacity:1;display:inline"
         sodipodi:nodetypes="cssscccscccssc" />
    </g>
    <g
       style="display:inline"
       id="g3725"
       transform="matrix(0.706381,0,0,0.777486,-47.20769,-6.1034)">
      <rect
         style="fill:#eeeeec;fill-opacity:1;stroke:#d3d7cf;stroke-width:1.34938097;stroke-linecap:round;stroke-linejoin:round;stroke-miterlimit:4;stroke-dasharray:none;stroke-opacity:1;display:inline"
         id="rect3727"
         width="10.000002"
         height="3"
         x="74.50032"
         y="16.499987"
         rx="1.5"
         ry="1.5"
         inkscape:export-filename="/home/lapo/Icone/Crux/folderx.png"
         inkscape:export-xdpi="90"
         inkscape:export-ydpi="90" />
      <path
         sodipodi:type="arc"
         style="fill:black;fill-opacity:1;stroke:none;stroke-width:1;stroke-linecap:round;stroke-linejoin:round;stroke-miterlimit:4;stroke-dasharray:none;stroke-opacity:1;display:inline"
         id="path3729"
         sodipodi:cx="11.75"
         sodipodi:cy="11.5"
         sodipodi:rx="0.25"
         sodipodi:ry="0.5"
         d="M 12 11.5 A 0.25 0.5 0 1 1  11.5,11.5 A 0.25 0.5 0 1 1  12 11.5 z"
         transform="matrix(2,0,0,1,52.0003,7)"
         inkscape:export-filename="/home/lapo/Icone/Crux/folderx.png"
         inkscape:export-xdpi="90"
         inkscape:export-ydpi="90" />
      <path
         sodipodi:type="arc"
         style="fill:black;fill-opacity:1;stroke:none;stroke-width:1;stroke-linecap:round;stroke-linejoin:round;stroke-miterlimit:4;stroke-dasharray:none;stroke-opacity:1;display:inline"
         id="path3731"
         sodipodi:cx="11.75"
         sodipodi:cy="11.5"
         sodipodi:rx="0.25"
         sodipodi:ry="0.5"
         d="M 12 11.5 A 0.25 0.5 0 1 1  11.5,11.5 A 0.25 0.5 0 1 1  12 11.5 z"
         transform="matrix(2,0,0,1,54.0003,7)"
         inkscape:export-filename="/home/lapo/Icone/Crux/folderx.png"
         inkscape:export-xdpi="90"
         inkscape:export-ydpi="90" />
      <path
         sodipodi:type="arc"
         style="fill:black;fill-opacity:1;stroke:none;stroke-width:1;stroke-linecap:round;stroke-linejoin:round;stroke-miterlimit:4;stroke-dasharray:none;stroke-opacity:1;display:inline"
         id="path3733"
         sodipodi:cx="11.75"
         sodipodi:cy="11.5"
         sodipodi:rx="0.25"
         sodipodi:ry="0.5"
         d="M 12 11.5 A 0.25 0.5 0 1 1  11.5,11.5 A 0.25 0.5 0 1 1  12 11.5 z"
         transform="matrix(2,0,0,1,56.0003,7)"
         inkscape:export-filename="/home/lapo/Icone/Crux/folderx.png"
         inkscape:export-xdpi="90"
         inkscape:export-ydpi="90" />
      <path
         sodipodi:type="arc"
         style="fill:black;fill-opacity:1;stroke:none;stroke-width:1;stroke-linecap:round;stroke-linejoin:round;stroke-miterlimit:4;stroke-dasharray:none;stroke-opacity:1;display:inline"
         id="path3735"
         sodipodi:cx="11.75"
         sodipodi:cy="11.5"
         sodipodi:rx="0.25"
         sodipodi:ry="0.5"
         d="M 12 11.5 A 0.25 0.5 0 1 1  11.5,11.5 A 0.25 0.5 0 1 1  12 11.5 z"
         transform="matrix(2,0,0,1,58.0003,7)"
         inkscape:export-filename="/home/lapo/Icone/Crux/folderx.png"
         inkscape:export-xdpi="90"
         inkscape:export-ydpi="90" />
      <path
         sodipodi:type="arc"
         style="fill:black;fill-opacity:1;stroke:none;stroke-width:1;stroke-linecap:round;stroke-linejoin:round;stroke-miterlimit:4;stroke-dasharray:none;stroke-opacity:1;display:inline"
         id="path3737"
         sodipodi:cx="11.75"
         sodipodi:cy="11.5"
         sodipodi:rx="0.25"
         sodipodi:ry="0.5"
         d="M 12 11.5 A 0.25 0.5 0 1 1  11.5,11.5 A 0.25 0.5 0 1 1  12 11.5 z"
         transform="matrix(2,0,0,1,60.0003,7)"
         inkscape:export-filename="/home/lapo/Icone/Crux/folderx.png"
         inkscape:export-xdpi="90"
         inkscape:export-ydpi="90" />
      <path
         style="fill:url(#linearGradient3783);fill-opacity:1;stroke:url(#linearGradient3785);stroke-width:1.34938157;stroke-linecap:round;stroke-linejoin:round;stroke-miterlimit:4;stroke-dashoffset:10;stroke-opacity:1;display:inline"
         d="M 73.146393,8.49999 L 105.76571,8.49999 C 105.76571,8.49999 104.0003,11 104.50027,35.5 L 74.50031,35.5 C 75.0003,11 73.146393,8.49999 73.146393,8.49999 z "
         id="path3739"
         sodipodi:nodetypes="ccccc" />
      <path
         sodipodi:type="inkscape:offset"
         inkscape:radius="-1"
         inkscape:original="M 72.5 -53.5 C 72.5 -53.5 73.999985 -51 73.5 -26.5 L 103.5 -26.5 C 103.00003 -51 104.5 -53.5 104.5 -53.5 L 72.5 -53.5 z "
         style="opacity:0.7;fill:none;fill-opacity:1;stroke:url(#linearGradient3787);stroke-width:1.3801738;stroke-linecap:round;stroke-linejoin:round;stroke-miterlimit:4;stroke-dashoffset:10;stroke-opacity:1;display:inline"
         id="path3741"
         d="M 73.78125,-52.5 C 73.915239,-51.807177 74.047834,-50.929319 74.1875,-49.28125 C 74.493666,-45.66847 74.708056,-38.965936 74.5,-27.5 L 102.5,-27.5 C 102.29195,-38.965936 102.50634,-45.668471 102.8125,-49.28125 C 102.95217,-50.929319 103.08476,-51.807178 103.21875,-52.5 L 73.78125,-52.5 z "
         transform="matrix(0.977737,0,0,0.977642,2.970578,61.1057)" />
      <path
         style="fill:none;fill-rule:evenodd;stroke:white;stroke-width:1.34938109px;stroke-linecap:round;stroke-linejoin:miter;stroke-opacity:1;display:inline"
         d="M 75.018243,9.7794687 L 104.07438,9.7794687"
         id="path3743"
         sodipodi:nodetypes="cc" />
      <path
         style="opacity:0.2;fill:none;fill-rule:evenodd;stroke:black;stroke-width:1.34938109px;stroke-linecap:round;stroke-linejoin:miter;stroke-opacity:1;display:inline"
         d="M 78.0003,12.351863 L 101.0003,12.351863"
         id="path3745"
         sodipodi:nodetypes="cc" />
      <path
         style="opacity:0.2;fill:none;fill-rule:evenodd;stroke:black;stroke-width:1.34938109px;stroke-linecap:round;stroke-linejoin:miter;stroke-opacity:1;display:inline"
         d="M 78.5003,16.218644 L 100.5003,16.218644"
         id="path3747"
         sodipodi:nodetypes="cc" />
      <path
         style="opacity:0.2;fill:none;fill-rule:evenodd;stroke:black;stroke-width:1.34938109px;stroke-linecap:round;stroke-linejoin:miter;stroke-opacity:1;display:inline"
         d="M 78.5003,20.069044 L 100.5003,20.069044"
         id="path3749"
         sodipodi:nodetypes="cc" />
      <path
         style="opacity:0.2;fill:none;fill-rule:evenodd;stroke:black;stroke-width:1.34938109px;stroke-linecap:round;stroke-linejoin:miter;stroke-opacity:1;display:inline"
         d="M 78.5003,23.937289 L 100.5003,23.937289"
         id="path3751"
         sodipodi:nodetypes="cc" />
      <path
         style="opacity:0.2;fill:none;fill-rule:evenodd;stroke:black;stroke-width:1.34938109px;stroke-linecap:round;stroke-linejoin:miter;stroke-opacity:1;display:inline"
         d="M 78.5003,27.816708 L 100.5003,27.816708"
         id="path3753"
         sodipodi:nodetypes="cc" />
    </g>
    <g
       style="display:inline"
       id="g3761"
       transform="matrix(0.673631,0,0,0.351421,-0.50518,11.282)"
       inkscape:export-filename="/home/lapo/Icone/Crux/folderx.png"
       inkscape:export-xdpi="90"
       inkscape:export-ydpi="90">
      <g
         id="g3763">
        <path
           sodipodi:type="inkscape:offset"
           inkscape:radius="-0.99436891"
           inkscape:original="M 2.65625 -33.5 C 2.021877 -33.5 1.5 -33.140103 1.5 -32.6875 C 4.500001 -25.004483 4.5 -23.258435 4.5 -16.5 C 4.5 -15.5 5.5111718 -13.51291 6.65625 -13.4375 L 42.34375 -13.4375 C 43.989096 -13.51291 44.500268 -15.758435 44.5 -16.5 C 44.5 -21.258435 44.500267 -25.004482 47.5 -32.6875 C 47.5 -33.140104 46.978125 -33.5 46.34375 -33.5 L 2.65625 -33.5 z "
           style="opacity:0.32156863;fill:none;fill-opacity:1;stroke:url(#linearGradient3793);stroke-width:2.05530238;stroke-linecap:round;stroke-linejoin:miter;stroke-miterlimit:4;stroke-opacity:1;display:inline"
           id="path3765"
           d="M 2.625,-32.5 C 5.3597846,-25.370787 5.5,-23.037216 5.5,-16.5 C 5.5,-16.335159 5.6904313,-15.649773 6,-15.15625 C 6.3095687,-14.662727 6.6985247,-14.438832 6.71875,-14.4375 L 42.3125,-14.4375 L 42.34375,-14.4375 C 42.706073,-14.463351 42.916739,-14.679637 43.15625,-15.15625 C 43.401014,-15.643317 43.500051,-16.358058 43.5,-16.5 C 43.5,-21.130327 43.573003,-25.119501 46.375,-32.5 C 46.360642,-32.501163 46.358943,-32.5 46.34375,-32.5 L 2.65625,-32.5 C 2.6410568,-32.5 2.6393578,-32.501163 2.625,-32.5 z "
           transform="translate(0,54)" />
        <path
           style="opacity:0.3254902;fill:none;fill-rule:evenodd;stroke:white;stroke-width:2.0553019px;stroke-linecap:round;stroke-linejoin:miter;stroke-opacity:1"
           d="M 2.5,21.5 L 46.5,21.5"
           id="path3767"
           sodipodi:nodetypes="cc" />
      </g>
      <path
         sodipodi:nodetypes="ccccccccc"
         id="path3769"
         d="M 2.645078,20.5 L 46.354654,20.5 C 46.989027,20.5 47.499732,20.862969 47.499732,21.313831 C 44.5,28.967284 44.542457,32.872881 44.542457,37.613005 C 44.542457,37.613005 43.800284,40.498152 40.870162,40.498152 L 8.1723971,40.458595 C 5.2462394,40.419038 4.4223328,37.791435 4.4611664,37.613005 C 4.4611664,30.880577 4.5,28.967284 1.499999,21.313831 C 1.499999,20.862969 2.010705,20.5 2.645078,20.5 z "
         style="fill:url(#linearGradient3795);fill-opacity:1;stroke:url(#linearGradient3797);stroke-width:2.05530238;stroke-linecap:round;stroke-linejoin:miter;stroke-miterlimit:4;stroke-opacity:1;display:inline" />
      <path
         transform="matrix(0.972431,0,0,0.787684,0.675444,48.98519)"
         d="M 2.625,-32.5 C 5.3597846,-25.370787 5.5,-23.037216 5.5,-16.5 C 5.5,-16.335159 5.6904313,-15.649773 6,-15.15625 C 6.3095687,-14.662727 6.6985247,-14.438832 6.71875,-14.4375 L 42.3125,-14.4375 L 42.34375,-14.4375 C 42.706073,-14.463351 42.916739,-14.679637 43.15625,-15.15625 C 43.401014,-15.643317 43.500051,-16.358058 43.5,-16.5 C 43.5,-21.130327 43.573003,-25.119501 46.375,-32.5 C 46.360642,-32.501163 46.358943,-32.5 46.34375,-32.5 L 2.65625,-32.5 C 2.6410568,-32.5 2.6393578,-32.501163 2.625,-32.5 z "
         id="path3771"
         style="opacity:0.15;fill:none;fill-opacity:1;stroke:url(#linearGradient3799);stroke-width:2.34839082;stroke-linecap:round;stroke-linejoin:miter;stroke-miterlimit:4;stroke-opacity:1;display:inline"
         inkscape:original="M 2.65625 -33.5 C 2.021877 -33.5 1.5 -33.140103 1.5 -32.6875 C 4.500001 -25.004483 4.5 -23.258435 4.5 -16.5 C 4.5 -15.5 5.5111718 -13.51291 6.65625 -13.4375 L 42.34375 -13.4375 C 43.989096 -13.51291 44.500268 -15.758435 44.5 -16.5 C 44.5 -21.258435 44.500267 -25.004482 47.5 -32.6875 C 47.5 -33.140104 46.978125 -33.5 46.34375 -33.5 L 2.65625 -33.5 z "
         inkscape:radius="-0.99436891"
         sodipodi:type="inkscape:offset" />
      <path
         sodipodi:nodetypes="cc"
         id="path3773"
         d="M 2.976674,23.385057 L 46.026949,23.385057"
         style="opacity:0.4;fill:none;fill-opacity:1;fill-rule:evenodd;stroke:url(#radialGradient3801);stroke-width:2.05529904;stroke-linecap:round;stroke-linejoin:miter;stroke-miterlimit:4;stroke-dasharray:none;stroke-opacity:1" />
    </g>
  </g>
</svg>
