<?xml version="1.0" encoding="iso-8859-1"?>
<!-- Generator: Adobe Illustrator 9.0, SVG Export Plug-In  -->
<!DOCTYPE svg PUBLIC "-//W3C//DTD SVG 20000303 Stylable//EN"   "http://www.w3.org/TR/2000/03/WD-SVG-20000303/DTD/svg-20000303-stylable.dtd" [
	<!ENTITY st0 "stroke:#FFFFFF;stroke-width:7.1208;stroke-linejoin:round;">
	<!ENTITY st1 "fill:none;stroke:none;">
	<!ENTITY st2 "fill-rule:nonzero;clip-rule:nonzero;stroke:#000000;stroke-miterlimit:4;">
	<!ENTITY st3 "stroke:none;">
]>
<svg  width="48pt" height="48pt" viewBox="0 0 48 48" xml:space="preserve">
	<g id="Layer_x0020_3" style="&st2;">
		<g>
			<path style="&st0;" d="M39.4,26.8c1.3-1.2,2.2-2.7,2.8-4.2l-2-5.5l-5.8,5.8l-7.2-2l-2-7.2L31,7.8l-5.5-2c-1.5,0.6-3,1.6-4.2,2.8c-3.8,3.8-4.7,9.4-2.8,14.1L7.2,34c-1.9,1.9-1.9,4.9,0,6.8c1.9,1.9,4.9,1.9,6.8,0l11.3-11.3c4.7,2,10.3,1.1,14.1-2.7z M8.7,39.3
				c-0.8-0.8-0.8-2.1,0-2.9c0.8-0.8,2.1-0.8,2.9,0s0.8,2.1,0,2.9c-0.8,0.8-2.1,0.8-2.9,0z"/>
			<path style="&st3;" d="M39.4,26.8c1.3-1.2,2.2-2.7,2.8-4.2l-2-5.5l-5.8,5.8l-7.2-2l-2-7.2L31,7.8l-5.5-2c-1.5,0.6-3,1.6-4.2,2.8c-3.8,3.8-4.7,9.4-2.8,14.1L7.2,34c-1.9,1.9-1.9,4.9,0,6.8c1.9,1.9,4.9,1.9,6.8,0l11.3-11.3c4.7,2,10.3,1.1,14.1-2.7z M8.7,39.3
				c-0.8-0.8-0.8-2.1,0-2.9c0.8-0.8,2.1-0.8,2.9,0s0.8,2.1,0,2.9c-0.8,0.8-2.1,0.8-2.9,0z"/>
		</g>
	</g>
	<g id="crop_x0020_marks" style="&st2;">
		<path style="&st1;" d="M48,48H0V0h48v48z"/>
	</g>
</svg>
