<?xml version="1.0" encoding="iso-8859-1"?>
<!-- Generator: Adobe Illustrator 9.0, SVG Export Plug-In  -->
<!DOCTYPE svg PUBLIC "-//W3C//DTD SVG 20000303 Stylable//EN"   "http://www.w3.org/TR/2000/03/WD-SVG-20000303/DTD/svg-20000303-stylable.dtd" [
	<!ENTITY st0 "fill:#000000;stroke:none;">
	<!ENTITY st1 "stroke:#FFFFFF;stroke-width:12.144;">
	<!ENTITY st2 "fill:none;stroke-width:2.5072;stroke-linejoin:miter;">
	<!ENTITY st3 "stroke:#FFFFFF;stroke-width:12.144;stroke-linejoin:miter;">
	<!ENTITY st4 "fill:#000000;stroke:#FFFFFF;stroke-width:12.144;">
	<!ENTITY st5 "fill-rule:nonzero;clip-rule:nonzero;fill:#FFFFFF;stroke:#000000;stroke-width:5.0144;stroke-linejoin:round;stroke-miterlimit:4;">
	<!ENTITY st6 "stroke-width:3.036;stroke-linejoin:miter;">
	<!ENTITY st7 "fill:none;stroke:none;">
	<!ENTITY st8 "fill-rule:nonzero;clip-rule:nonzero;stroke:#000000;stroke-miterlimit:4;">
	<!ENTITY st9 "stroke:none;">
]>
<svg  width="48pt" height="48pt" viewBox="0 0 48 48" xml:space="preserve">
	<g id="Layer_x0020_3" style="&st5;">
		<g>
			<path style="&st4;" d="M32.8,39.3H9.7V11.5h23.1v27.8z"/>
			<path style="&st1;" d="M38.3,34.6H20.5V19.7h17.8v14.9z"/>
			<path style="&st3;" d="M15.6,8.6c-1.7,0-3,1.4-3,3s1.4,3,3,3h12c1.7,0,3-1.4,3-3s-1.4-3-3-3h-12z"/>
			<path d="M32.8,39.4H9.7V11.6h23.1v27.8z"/>
			<path style="&st0;" d="M32.8,39.4H9.7V11.6h23.1v27.8z"/>
			<path d="M38.3,34.8H20.5V19.9h17.8v14.9z"/>
			<path style="&st9;" d="M38.3,34.8H20.5V19.9h17.8v14.9z"/>
			<path style="&st2;" d="M23.2,30.4h12.1"/>
			<path style="&st2;" d="M23.2,24.4h12.1"/>
			<path style="&st9;" d="M15.6,11.6h12"/>
			<path style="&st6;" d="M15.6,8.6c-1.7,0-3,1.4-3,3c0,1.7,1.4,3,3,3h12c1.7,0,3-1.4,3-3c0-1.7-1.4-3-3-3h-12z"/>
		</g>
	</g>
	<g id="crop_x0020_marks" style="&st8;">
		<path style="&st7;" d="M48,48H0V0h48v48z"/>
	</g>
</svg>
