<?xml version="1.0" encoding="iso-8859-1"?>
<!-- Generator: Adobe Illustrator 9.0, SVG Export Plug-In  -->
<!DOCTYPE svg PUBLIC "-//W3C//DTD SVG 20000303 Stylable//EN"   "http://www.w3.org/TR/2000/03/WD-SVG-20000303/DTD/svg-20000303-stylable.dtd" [
	<!ENTITY st0 "stroke:#FFFFFF;stroke-width:6.9782;stroke-linejoin:round;">
	<!ENTITY st1 "fill:none;stroke:none;">
	<!ENTITY st2 "fill-rule:nonzero;clip-rule:nonzero;stroke:#000000;stroke-miterlimit:4;">
	<!ENTITY st3 "stroke:none;">
]>
<svg  width="48pt" height="48pt" viewBox="0 0 48 48" xml:space="preserve">
	<g id="Layer_x0020_4" style="&st2;">
		<g>
			<path style="&st0;" d="M38.1,31.4c-1.3-1.4-3-2.1-4.9-2.1c-1.3,0-2.6,0.4-3.7,1.1l-2.7-4.4c2.9-2,6.9-5.2,9.6-10C40.3,9.2,34,5.3,34,5.3L24,21.4L14,5.2c0,0-6.3,3.9-2.4,10.7c2.7,4.7,6.8,8.1,9.7,10l-2.8,4.5c-1.1-0.7-2.3-1.1-3.7-1.1c-1.9,0-3.7,0.8-4.9,2.1
				c-1.2,1.2-1.8,2.9-1.8,4.6c0,1.7,0.6,3.4,1.8,4.6c1.3,1.4,3,2.1,4.9,2.1s3.7-0.8,4.9-2.1c1.2-1.2,1.7-3,1.8-4.6c0.1-1.6,1.5-8,1.5-8s0.4-0.2,1.1-0.6C24.7,27.9,25,28,25,28s1.4,6.3,1.5,8c0.1,1.6,0.6,3.4,1.8,4.6c1.3,1.4,3,2.1,4.9,2.1c1.9,0,3.7-0.8,4.9-2.1
				c1.2-1.2,1.8-2.9,1.8-4.6c0-1.7-0.6-3.4-1.8-4.6z M17.3,39.5c-0.4,0.4-1.3,1.2-2.5,1.2c-1.2,0-2.1-0.8-2.5-1.2c-0.8-0.9-1.3-2.1-1.3-3.4s0.5-2.5,1.3-3.4c0.4-0.4,1.3-1.2,2.5-1.2c1.2,0,2.1,0.8,2.5,1.2c0.8,0.9,1.3,2.1,1.3,3.4s-0.5,2.5-1.3,3.4z M35.7,39.4
				c-0.4,0.4-1.3,1.2-2.5,1.2c-1.2,0-2.1-0.8-2.5-1.2c-0.8-0.9-1.3-2.1-1.3-3.4s0.5-2.5,1.3-3.4c0.4-0.4,1.3-1.2,2.5-1.2c1.2,0,2.1,0.8,2.5,1.2c0.8,0.9,1.3,2.1,1.3,3.4s-0.5,2.5-1.3,3.4z"/>
			<path style="&st3;" d="M38.1,31.4c-1.3-1.4-3-2.1-4.9-2.1c-1.3,0-2.6,0.4-3.7,1.1l-2.7-4.4c2.9-2,6.9-5.2,9.6-10C40.3,9.2,34,5.3,34,5.3L24,21.4L14,5.2c0,0-6.3,3.9-2.4,10.7c2.7,4.7,6.8,8.1,9.7,10l-2.8,4.5c-1.1-0.7-2.3-1.1-3.7-1.1c-1.9,0-3.7,0.8-4.9,2.1
				c-1.2,1.2-1.8,2.9-1.8,4.6c0,1.7,0.6,3.4,1.8,4.6c1.3,1.4,3,2.1,4.9,2.1s3.7-0.8,4.9-2.1c1.2-1.2,1.7-3,1.8-4.6c0.1-1.6,1.5-8,1.5-8s0.4-0.2,1.1-0.6C24.7,27.9,25,28,25,28s1.4,6.3,1.5,8c0.1,1.6,0.6,3.4,1.8,4.6c1.3,1.4,3,2.1,4.9,2.1c1.9,0,3.7-0.8,4.9-2.1
				c1.2-1.2,1.8-2.9,1.8-4.6c0-1.7-0.6-3.4-1.8-4.6z M17.3,39.5c-0.4,0.4-1.3,1.2-2.5,1.2c-1.2,0-2.1-0.8-2.5-1.2c-0.8-0.9-1.3-2.1-1.3-3.4s0.5-2.5,1.3-3.4c0.4-0.4,1.3-1.2,2.5-1.2c1.2,0,2.1,0.8,2.5,1.2c0.8,0.9,1.3,2.1,1.3,3.4s-0.5,2.5-1.3,3.4z M35.7,39.4
				c-0.4,0.4-1.3,1.2-2.5,1.2c-1.2,0-2.1-0.8-2.5-1.2c-0.8-0.9-1.3-2.1-1.3-3.4s0.5-2.5,1.3-3.4c0.4-0.4,1.3-1.2,2.5-1.2c1.2,0,2.1,0.8,2.5,1.2c0.8,0.9,1.3,2.1,1.3,3.4s-0.5,2.5-1.3,3.4z"/>
		</g>
	</g>
	<g id="crop_x0020_marks" style="&st2;">
		<path style="&st1;" d="M48,48H0V0h48v48z"/>
	</g>
</svg>
