<?xml version="1.0" encoding="iso-8859-1"?>
<!-- Generator: Adobe Illustrator 9.0, SVG Export Plug-In  -->
<!DOCTYPE svg PUBLIC "-//W3C//DTD SVG 20000303 Stylable//EN"   "http://www.w3.org/TR/2000/03/WD-SVG-20000303/DTD/svg-20000303-stylable.dtd" [
	<!ENTITY st0 "stroke:#FFFFFF;stroke-width:7.852;stroke-linejoin:round;">
	<!ENTITY st1 "fill:none;stroke:none;">
	<!ENTITY st2 "fill-rule:nonzero;clip-rule:nonzero;stroke:#000000;stroke-miterlimit:4;">
	<!ENTITY st3 "stroke:none;">
]>
<svg  width="48pt" height="48pt" viewBox="0 0 48 48" xml:space="preserve">
	<g id="Layer_x0020_4" style="&st2;">
		<g>
			<path style="&st0;" d="M24.4,5.3c0-0.3,0.3-0.3,0.5-0.2L40,20.5c0.5,0.5,0.3,0.6,0,1L24.9,36.6c-0.1,0.1-0.4,0.1-0.4-0.1v-9.1h-4.2c-1.4,0-4.7,0.7-4.7,3.9v3.9c0,3.8,6.9,4.8,6.9,6c0,1.2-1.5,1.5-1.5,1.5h-5.3C10.6,42.9,8,38,8,33.1v-6.7
				c0-7.9,4.4-11.9,10.7-11.9h5.8l-0.1-9.2z"/>
			<path style="&st3;" d="M24.4,5.3c0-0.3,0.3-0.3,0.5-0.2L40,20.5c0.5,0.5,0.3,0.6,0,1L24.9,36.6c-0.1,0.1-0.4,0.1-0.4-0.1v-9.1h-4.2c-1.4,0-4.7,0.7-4.7,3.9v3.9c0,3.8,6.9,4.8,6.9,6c0,1.2-1.5,1.5-1.5,1.5h-5.3C10.6,42.9,8,38,8,33.1v-6.7
				c0-7.9,4.4-11.9,10.7-11.9h5.8l-0.1-9.2z"/>
		</g>
	</g>
	<g id="crop_x0020_marks" style="&st2;">
		<path style="&st1;" d="M48,48H0V0h48v48z"/>
	</g>
</svg>
