<?xml version="1.0" encoding="UTF-8" standalone="no"?>
<!-- Generator: Adobe Illustrator 9.0, SVG Export Plug-In  -->
<svg
   xmlns:dc="http://purl.org/dc/elements/1.1/"
   xmlns:cc="http://web.resource.org/cc/"
   xmlns:rdf="http://www.w3.org/1999/02/22-rdf-syntax-ns#"
   xmlns:svg="http://www.w3.org/2000/svg"
   xmlns="http://www.w3.org/2000/svg"
   xmlns:sodipodi="http://inkscape.sourceforge.net/DTD/sodipodi-0.dtd"
   xmlns:inkscape="http://www.inkscape.org/namespaces/inkscape"
   width="48pt"
   height="48pt"
   viewBox="0 0 48 48"
   xml:space="preserve"
   id="svg2"
   sodipodi:version="0.32"
   inkscape:version="0.42"
   sodipodi:docname="edit-undo.svg"
   sodipodi:docbase="/home/luca/Desktop/Black-and-white/scalable/actions"><metadata
   id="metadata17"><rdf:RDF><cc:Work
       rdf:about=""><dc:format>image/svg+xml</dc:format><dc:type
         rdf:resource="http://purl.org/dc/dcmitype/StillImage" /></cc:Work></rdf:RDF></metadata><defs
   id="defs15" /><sodipodi:namedview
   inkscape:window-height="529"
   inkscape:window-width="873"
   inkscape:pageshadow="2"
   inkscape:pageopacity="0.0"
   borderopacity="1.0"
   bordercolor="#666666"
   pagecolor="#ffffff"
   id="base"
   inkscape:zoom="5.7500000"
   inkscape:cx="30.000000"
   inkscape:cy="30.000000"
   inkscape:window-x="0"
   inkscape:window-y="26"
   inkscape:current-layer="svg2" />
	<g
   id="Layer_x0020_4"
   style="fill-rule:nonzero;stroke:#000000;stroke-miterlimit:4.0000000"
   transform="matrix(-1.000000,0.000000,0.000000,1.000000,48.30455,-2.664535e-15)">
		<g
   id="g5">
			<path
   style="stroke:#ffffff;stroke-width:7.8520002;stroke-linejoin:round"
   d="M 24.400000,5.3000000 C 24.400000,5.0000000 24.700000,5.0000000 24.900000,5.1000000 L 40.000000,20.500000 C 40.500000,21.000000 40.300000,21.100000 40.000000,21.500000 L 24.900000,36.600000 C 24.800000,36.700000 24.500000,36.700000 24.500000,36.500000 L 24.500000,27.400000 L 20.300000,27.400000 C 18.900000,27.400000 15.600000,28.100000 15.600000,31.300000 L 15.600000,35.200000 C 15.600000,39.000000 22.500000,40.000000 22.500000,41.200000 C 22.500000,42.400000 21.000000,42.700000 21.000000,42.700000 L 15.700000,42.700000 C 10.600000,42.900000 8.0000000,38.000000 8.0000000,33.100000 L 8.0000000,26.400000 C 8.0000000,18.500000 12.400000,14.500000 18.700000,14.500000 L 24.500000,14.500000 L 24.400000,5.3000000 L 24.400000,5.3000000 z "
   id="path7" />
			<path
   style="stroke:none"
   d="M 24.400000,5.3000000 C 24.400000,5.0000000 24.700000,5.0000000 24.900000,5.1000000 L 40.000000,20.500000 C 40.500000,21.000000 40.300000,21.100000 40.000000,21.500000 L 24.900000,36.600000 C 24.800000,36.700000 24.500000,36.700000 24.500000,36.500000 L 24.500000,27.400000 L 20.300000,27.400000 C 18.900000,27.400000 15.600000,28.100000 15.600000,31.300000 L 15.600000,35.200000 C 15.600000,39.000000 22.500000,40.000000 22.500000,41.200000 C 22.500000,42.400000 21.000000,42.700000 21.000000,42.700000 L 15.700000,42.700000 C 10.600000,42.900000 8.0000000,38.000000 8.0000000,33.100000 L 8.0000000,26.400000 C 8.0000000,18.500000 12.400000,14.500000 18.700000,14.500000 L 24.500000,14.500000 L 24.400000,5.3000000 L 24.400000,5.3000000 z "
   id="path9" />
		</g>
	</g>
	<g
   id="crop_x0020_marks"
   style="fill-rule:nonzero;clip-rule:nonzero;stroke:#000000;stroke-miterlimit:4;">
		<path
   style="fill:none;stroke:none;"
   d="M48,48H0V0h48v48z"
   id="path12" />
	</g>
</svg>