<?xml version="1.0" encoding="iso-8859-1"?>
<!-- Generator: Adobe Illustrator 9.0, SVG Export Plug-In  -->
<!DOCTYPE svg PUBLIC "-//W3C//DTD SVG 20000303 Stylable//EN"   "http://www.w3.org/TR/2000/03/WD-SVG-20000303/DTD/svg-20000303-stylable.dtd" [
	<!ENTITY st0 "stroke:#FFFFFF;stroke-width:11.8353;stroke-linejoin:round;">
	<!ENTITY st1 "fill:none;stroke:none;">
	<!ENTITY st2 "stroke-width:3.9451;stroke-linejoin:round;">
	<!ENTITY st3 "fill-rule:nonzero;clip-rule:nonzero;stroke:#000000;stroke-miterlimit:4;">
]>
<svg  width="48pt" height="48pt" viewBox="0 0 48 48" xml:space="preserve">
	<g id="Layer_x0020_3" style="&st3;">
		<g>
			<path style="&st0;" d="M19.5,29.7l-6.3,9.8H8.1L28.6,8.5h5.8l5.5,30.9h-5l-1.6-9.8H19.5z M32.9,26.7c0,0-2.1-12.8-2.2-14.6h-0.2c-1.1,1.8-9.1,14.6-9.1,14.6h11.6z"/>
			<path style="&st2;" d="M19.5,29.7l-6.3,9.8H8.1L28.6,8.5h5.8l5.5,30.9h-5l-1.6-9.8H19.5z M32.9,26.7c0,0-2.1-12.8-2.2-14.6h-0.2c-1.1,1.8-9.1,14.6-9.1,14.6h11.6z"/>
		</g>
	</g>
	<g id="crop_x0020_marks" style="&st3;">
		<path style="&st1;" d="M48,48H0V0h48v48z"/>
	</g>
</svg>
