<?xml version="1.0" encoding="UTF-8" standalone="no"?>
<!-- Created with Inkscape (http://www.inkscape.org/) -->
<svg
   xmlns:dc="http://purl.org/dc/elements/1.1/"
   xmlns:cc="http://web.resource.org/cc/"
   xmlns:rdf="http://www.w3.org/1999/02/22-rdf-syntax-ns#"
   xmlns:svg="http://www.w3.org/2000/svg"
   xmlns="http://www.w3.org/2000/svg"
   xmlns:xlink="http://www.w3.org/1999/xlink"
   xmlns:sodipodi="http://sodipodi.sourceforge.net/DTD/sodipodi-0.dtd"
   xmlns:inkscape="http://www.inkscape.org/namespaces/inkscape"
   version="1.0"
   x="0.0000000"
   y="0.0000000"
   width="32"
   height="32"
   id="svg1"
   sodipodi:version="0.32"
   inkscape:version="0.44"
   sodipodi:docname="folder-drag-accept.svg"
   sodipodi:docbase="/home/lapo/Icone/Crux/crux-icon-theme/32x32/status"
   inkscape:export-filename="/home/lapo/Icone/Crux/folderx-daritaliare.png"
   inkscape:export-xdpi="90"
   inkscape:export-ydpi="90"
   inkscape:output_extension="org.inkscape.output.svg.inkscape">
  <metadata
     id="metadata162">
    <rdf:RDF>
      <cc:Work
         rdf:about="">
        <dc:format>image/svg+xml</dc:format>
        <dc:type
           rdf:resource="http://purl.org/dc/dcmitype/StillImage" />
        <dc:title>Folder</dc:title>
        <dc:creator>
          <cc:Agent>
            <dc:title>Lapo Calamandrei</dc:title>
          </cc:Agent>
        </dc:creator>
        <dc:date />
        <cc:license
           rdf:resource="http://creativecommons.org/licenses/GPL/2.0/" />
        <dc:identifier />
        <dc:subject>
          <rdf:Bag>
            <rdf:li>folder</rdf:li>
            <rdf:li>directory</rdf:li>
            <rdf:li>storage</rdf:li>
          </rdf:Bag>
        </dc:subject>
      </cc:Work>
      <cc:License
         rdf:about="http://creativecommons.org/licenses/GPL/2.0/">
        <cc:permits
           rdf:resource="http://web.resource.org/cc/Reproduction" />
        <cc:permits
           rdf:resource="http://web.resource.org/cc/Distribution" />
        <cc:requires
           rdf:resource="http://web.resource.org/cc/Notice" />
        <cc:permits
           rdf:resource="http://web.resource.org/cc/DerivativeWorks" />
        <cc:requires
           rdf:resource="http://web.resource.org/cc/ShareAlike" />
        <cc:requires
           rdf:resource="http://web.resource.org/cc/SourceCode" />
      </cc:License>
    </rdf:RDF>
  </metadata>
  <sodipodi:namedview
     id="base"
     pagecolor="#ffffff"
     bordercolor="#666"
     borderopacity="1"
     inkscape:pageopacity="0.0"
     inkscape:pageshadow="2"
     inkscape:window-width="1051"
     inkscape:window-height="655"
     inkscape:cy="12.797481"
     inkscape:cx="7.540664"
     inkscape:zoom="4"
     inkscape:document-units="px"
     showgrid="false"
     inkscape:window-x="326"
     inkscape:window-y="0"
     inkscape:current-layer="layer1"
     inkscape:showpageshadow="false"
     showguides="false"
     inkscape:guide-bbox="true"
     inkscape:object-paths="false"
     gridspacingx="0.5px"
     gridspacingy="0.5px"
     gridempspacing="2"
     inkscape:grid-points="true"
     showborder="true"
     inkscape:grid-bbox="false"
     width="32px"
     height="32px">
    <sodipodi:guide
       orientation="horizontal"
       position="36.062446"
       id="guide1934" />
    <sodipodi:guide
       orientation="horizontal"
       position="15.003922"
       id="guide1941" />
    <sodipodi:guide
       orientation="vertical"
       position="4.5"
       id="guide1943" />
    <sodipodi:guide
       orientation="vertical"
       position="44.503533"
       id="guide1945" />
    <sodipodi:guide
       orientation="horizontal"
       position="43.125"
       id="guide1947" />
    <sodipodi:guide
       orientation="horizontal"
       position="39"
       id="guide1949" />
    <sodipodi:guide
       orientation="horizontal"
       position="19.003495"
       id="guide2919" />
    <sodipodi:guide
       orientation="vertical"
       position="0.97227183"
       id="guide2212" />
    <sodipodi:guide
       orientation="vertical"
       position="47.994873"
       id="guide2214" />
    <sodipodi:guide
       orientation="horizontal"
       position="111"
       id="guide4328" />
    <sodipodi:guide
       orientation="vertical"
       position="65.75"
       id="guide3135" />
    <sodipodi:guide
       orientation="vertical"
       position="129.75"
       id="guide3137" />
    <sodipodi:guide
       orientation="vertical"
       position="190.75"
       id="guide3139" />
    <sodipodi:guide
       orientation="vertical"
       position="212.48559"
       id="guide3316" />
    <sodipodi:guide
       orientation="horizontal"
       position="178.01413"
       id="guide3318" />
  </sodipodi:namedview>
  <defs
     id="defs3">
    <linearGradient
       id="linearGradient3582"
       inkscape:collect="always">
      <stop
         id="stop3584"
         offset="0"
         style="stop-color:#555753;stop-opacity:1" />
      <stop
         id="stop3586"
         offset="1"
         style="stop-color:#d3d7cf;stop-opacity:1" />
    </linearGradient>
    <linearGradient
       id="linearGradient3135">
      <stop
         style="stop-color:#555753;stop-opacity:1;"
         offset="0"
         id="stop3137" />
      <stop
         style="stop-color:#2e3436;stop-opacity:1"
         offset="1"
         id="stop3139" />
    </linearGradient>
    <linearGradient
       inkscape:collect="always"
       id="linearGradient4100">
      <stop
         style="stop-color:#75507b;stop-opacity:1;"
         offset="0"
         id="stop4102" />
      <stop
         style="stop-color:#5c3566;stop-opacity:1"
         offset="1"
         id="stop4104" />
    </linearGradient>
    <linearGradient
       inkscape:collect="always"
       id="linearGradient3311">
      <stop
         style="stop-color:#888a85;stop-opacity:1;"
         offset="0"
         id="stop3313" />
      <stop
         style="stop-color:#555753;stop-opacity:1"
         offset="1"
         id="stop3315" />
    </linearGradient>
    <linearGradient
       id="linearGradient2894">
      <stop
         style="stop-color:#39213f;stop-opacity:1;"
         offset="0"
         id="stop2896" />
      <stop
         id="stop2900"
         offset="0.47619048"
         style="stop-color:#75507b;stop-opacity:1;" />
      <stop
         style="stop-color:#5c3566;stop-opacity:1"
         offset="1"
         id="stop2898" />
    </linearGradient>
    <linearGradient
       id="linearGradient3018">
      <stop
         style="stop-color:white;stop-opacity:1;"
         offset="0"
         id="stop3020" />
      <stop
         style="stop-color:white;stop-opacity:0;"
         offset="1"
         id="stop3022" />
    </linearGradient>
    <linearGradient
       inkscape:collect="always"
       xlink:href="#linearGradient3311"
       id="linearGradient2607"
       gradientUnits="userSpaceOnUse"
       gradientTransform="matrix(0.988198,0,0,1,6.305831e-2,1)"
       x1="20.625"
       y1="-90.064087"
       x2="20.625"
       y2="-69.766335" />
    <linearGradient
       inkscape:collect="always"
       xlink:href="#linearGradient3018"
       id="linearGradient2609"
       gradientUnits="userSpaceOnUse"
       gradientTransform="matrix(0.956801,0,0,0.971989,0.778587,-2.22687)"
       x1="9"
       y1="-92.805496"
       x2="9"
       y2="-71.257133" />
    <linearGradient
       inkscape:collect="always"
       xlink:href="#linearGradient3582"
       id="linearGradient2625"
       gradientUnits="userSpaceOnUse"
       x1="18"
       y1="17.059633"
       x2="18"
       y2="14.475042"
       gradientTransform="matrix(0.673913,0,0,0.750014,-0.510869,10.375)" />
    <linearGradient
       inkscape:collect="always"
       xlink:href="#linearGradient3135"
       id="linearGradient2627"
       gradientUnits="userSpaceOnUse"
       x1="1.9445436"
       y1="23"
       x2="1.9445436"
       y2="27.31839"
       gradientTransform="matrix(0.673913,0,0,0.750014,-0.510869,2.8747)" />
    <linearGradient
       inkscape:collect="always"
       xlink:href="#linearGradient4100"
       id="linearGradient2671"
       gradientUnits="userSpaceOnUse"
       x1="29.98797"
       y1="35.783714"
       x2="29.98797"
       y2="27.05674"
       gradientTransform="matrix(0.673631,0,0,0.351421,-0.50518,11.282)" />
    <linearGradient
       inkscape:collect="always"
       xlink:href="#linearGradient2894"
       id="linearGradient2673"
       gradientUnits="userSpaceOnUse"
       gradientTransform="matrix(0.673631,0,0,0.350069,-0.50518,41.4156)"
       x1="9.4176369"
       y1="-44.922661"
       x2="9.4176369"
       y2="-59.636772" />
  </defs>
  <g
     inkscape:groupmode="layer"
     id="layer1"
     inkscape:label="32"
     style="display:inline">
    <g
       style="display:inline"
       transform="matrix(0.147619,0,0,0.186667,-1.560269,-9.6806)"
       id="g2561"
       inkscape:export-filename="/home/lapo/Icone/Crux/folderx.png"
       inkscape:export-xdpi="90"
       inkscape:export-ydpi="90">
      <path
         d="M 32.706693,164.36026 C 22.319193,164.36026 13.956693,172.72276 13.956693,183.11026 C 13.956693,193.49776 22.319193,201.86026 32.706693,201.86026 L 205.20669,201.86026 C 215.59419,201.86026 223.95669,193.49776 223.95669,183.11026 C 223.95669,172.72276 215.59419,164.36026 205.20669,164.36026 L 32.706693,164.36026 z "
         style="opacity:0.04787233;fill-rule:evenodd;stroke-width:3pt"
         id="path2563" />
      <path
         d="M 32.706693,165.61026 C 23.011693,165.61026 15.206693,173.41526 15.206693,183.11026 C 15.206693,192.80526 23.011693,200.61026 32.706693,200.61026 L 205.20669,200.61026 C 214.90169,200.61026 222.70669,192.80526 222.70669,183.11026 C 222.70669,173.41526 214.90169,165.61026 205.20669,165.61026 L 32.706693,165.61026 z "
         style="opacity:0.04787233;fill-rule:evenodd;stroke-width:3pt"
         id="path2565" />
      <path
         d="M 32.706694,166.86026 C 23.704194,166.86026 16.456694,174.10776 16.456694,183.11026 C 16.456694,192.11276 23.704194,199.36026 32.706694,199.36026 L 205.20669,199.36026 C 214.20919,199.36026 221.45669,192.11276 221.45669,183.11026 C 221.45669,174.10776 214.20919,166.86026 205.20669,166.86026 L 32.706694,166.86026 z "
         style="opacity:0.04787233;fill-rule:evenodd;stroke-width:3pt"
         id="path2567" />
      <path
         d="M 32.706694,168.11026 C 24.396694,168.11026 17.706694,174.80026 17.706694,183.11026 C 17.706694,191.42026 24.396694,198.11026 32.706694,198.11026 L 205.20669,198.11026 C 213.51669,198.11026 220.20669,191.42026 220.20669,183.11026 C 220.20669,174.80026 213.51669,168.11026 205.20669,168.11026 L 32.706694,168.11026 z "
         style="opacity:0.04787233;fill-rule:evenodd;stroke-width:3pt"
         id="path2569" />
      <path
         d="M 32.707764,169.36026 C 25.090264,169.36026 18.957764,175.49276 18.957764,183.11026 C 18.957764,190.72776 25.090264,196.86026 32.707764,196.86026 L 205.20618,196.86026 C 212.82368,196.86026 218.95618,190.72776 218.95618,183.11026 C 218.95618,175.49276 212.82368,169.36026 205.20618,169.36026 L 32.707764,169.36026 z "
         style="opacity:0.04787233;fill-rule:evenodd;stroke-width:3pt"
         id="path2571" />
      <path
         d="M 32.706694,170.61026 C 25.781694,170.61026 20.206694,176.18526 20.206694,183.11026 C 20.206694,190.03526 25.781694,195.61026 32.706694,195.61026 L 205.20669,195.61026 C 212.13169,195.61026 217.70669,190.03526 217.70669,183.11026 C 217.70669,176.18526 212.13169,170.61026 205.20669,170.61026 L 32.706694,170.61026 z "
         style="opacity:0.04787233;fill-rule:evenodd;stroke-width:3pt"
         id="path2573" />
      <path
         d="M 32.706694,171.86026 C 26.474194,171.86026 21.456694,176.87776 21.456694,183.11026 C 21.456694,189.34276 26.474194,194.36026 32.706694,194.36026 L 205.20669,194.36026 C 211.43919,194.36026 216.45669,189.34276 216.45669,183.11026 C 216.45669,176.87776 211.43919,171.86026 205.20669,171.86026 L 32.706694,171.86026 z "
         style="opacity:0.04787233;fill-rule:evenodd;stroke-width:3pt"
         id="path2575" />
      <path
         d="M 32.706694,173.11026 C 27.166694,173.11026 22.706694,177.57026 22.706694,183.11026 C 22.706694,188.65026 27.166694,193.11026 32.706694,193.11026 L 205.20669,193.11026 C 210.74669,193.11026 215.20669,188.65026 215.20669,183.11026 C 215.20669,177.57026 210.74669,173.11026 205.20669,173.11026 L 32.706694,173.11026 z "
         style="opacity:0.04787233;fill-rule:evenodd;stroke-width:3pt"
         id="path2577" />
    </g>
    <g
       style="display:inline"
       id="g2579"
       inkscape:export-filename="/home/lapo/Icone/Crux/folderx.png"
       inkscape:export-xdpi="90"
       inkscape:export-ydpi="90"
       transform="matrix(0.66413,0,0,0.676142,-8.646815e-2,68.4069)">
      <path
         inkscape:export-ydpi="90"
         inkscape:export-xdpi="90"
         inkscape:export-filename="/home/lapo/Icone/Crux/folderx-alt.png"
         sodipodi:nodetypes="czcccccccscc"
         id="path2581"
         d="M 8.4627413,-94.500002 C 7.5708926,-94.500002 7.1465871,-94.186392 6.9804443,-93.04412 C 5.1206814,-83.070943 5.217258,-76.444719 5.4981473,-66.343878 C 5.4981473,-65.594581 6.1071807,-64.978989 6.8569196,-64.978989 L 41.690899,-64.978989 C 42.440635,-64.978989 42.998443,-65.596272 43.049671,-66.343878 C 44.037869,-84.390749 42.061473,-88.658009 42.061473,-88.658009 C 42.061473,-89.407306 41.452437,-90.022898 40.702701,-90.022898 L 23.285711,-90.022898 L 22.297513,-92.897058 C 22.0156,-93.717 21.294479,-94.500002 20.402631,-94.500002 L 8.4627413,-94.500002 z "
         style="fill:url(#linearGradient2607);fill-opacity:1;stroke:#555753;stroke-width:1.49229598;stroke-linecap:round;stroke-linejoin:miter;stroke-miterlimit:4;stroke-dasharray:none;stroke-opacity:1;display:inline" />
      <path
         id="path2583"
         d="M 8.9113928,-93.107841 C 8.5935025,-93.107841 8.5795165,-93.074654 8.5824926,-93.077467 C 8.5854687,-93.08028 8.4685479,-92.952118 8.4030925,-92.500348 C 8.4032502,-92.490224 8.4032502,-92.480098 8.4030925,-92.469974 C 6.7774954,-83.718672 6.7278674,-74.843592 6.9379914,-65.89215 L 41.562216,-65.89215 C 42.215717,-81.49735 40.545616,-87.967214 40.545616,-87.967214 C 40.515315,-88.045211 40.495211,-88.126905 40.485816,-88.210212 C 40.485816,-88.4125 40.333746,-88.574707 40.127016,-88.574707 L 22.940606,-88.574707 C 22.52229,-88.580044 22.157282,-88.864325 22.043605,-89.273325 C 22.043605,-89.273325 21.299361,-91.300096 20.858553,-92.257351 C 20.702083,-92.59714 20.35233,-93.014439 20.073149,-93.016718 L 8.9113928,-93.107841 z "
         style="opacity:0.5;fill:none;fill-opacity:1;stroke:url(#linearGradient2609);stroke-width:1.49229586;stroke-linecap:round;stroke-linejoin:miter;stroke-miterlimit:4;stroke-dasharray:none;stroke-opacity:1;display:inline"
         sodipodi:nodetypes="cssscccscccssc" />
    </g>
    <path
       style="fill:url(#linearGradient2671);fill-opacity:1;stroke:url(#linearGradient2673);stroke-width:1.00000143;stroke-linecap:round;stroke-linejoin:miter;stroke-miterlimit:4;stroke-opacity:1;display:inline"
       d="M 2.46875,23 C 2.497874,23.43777 2.5,23.90852 2.5,24.5 C 2.4738405,24.5627 3.0288495,25.4861 5,25.5 L 27.03125,25.5 C 29.005071,25.5 29.5,24.5 29.5,24.5 C 29.5,23.98975 29.508147,23.5015 29.5625,23 L 2.46875,23 z "
       id="path2593" />
    <rect
       style="fill:#eeeeec;fill-opacity:1;stroke:#d3d7cf;stroke-width:1.00000048;stroke-linecap:round;stroke-linejoin:round;stroke-miterlimit:4;stroke-dasharray:none;stroke-opacity:1;display:inline"
       id="rect2599"
       width="6.0079002"
       height="1.9668669"
       x="6.5038786"
       y="7.5123062"
       rx="0.90118486"
       ry="0.98343343"
       inkscape:export-filename="/home/lapo/Icone/Crux/folderx-alt.png"
       inkscape:export-xdpi="90"
       inkscape:export-ydpi="90" />
    <rect
       ry="0.5"
       rx="0.5"
       y="8"
       x="7"
       height="1"
       width="1"
       id="rect2601"
       style="opacity:1;fill:#2e3436;fill-opacity:1;stroke:none;stroke-width:1;stroke-linecap:square;stroke-linejoin:miter;stroke-miterlimit:4.4000001;stroke-dasharray:none;stroke-dashoffset:10;stroke-opacity:1;display:inline" />
    <rect
       ry="0.5"
       rx="0.5"
       y="8"
       x="9"
       height="1"
       width="1"
       id="rect2603"
       style="opacity:1;fill:#2e3436;fill-opacity:1;stroke:none;stroke-width:1;stroke-linecap:square;stroke-linejoin:miter;stroke-miterlimit:4.4000001;stroke-dasharray:none;stroke-dashoffset:10;stroke-opacity:1;display:inline" />
    <rect
       ry="0.5"
       rx="0.5"
       y="8"
       x="11"
       height="1"
       width="1"
       id="rect2605"
       style="opacity:1;fill:#2e3436;fill-opacity:1;stroke:none;stroke-width:1;stroke-linecap:square;stroke-linejoin:miter;stroke-miterlimit:4.4000001;stroke-dasharray:none;stroke-dashoffset:10;stroke-opacity:1;display:inline" />
    <path
       style="fill:url(#linearGradient2625);fill-opacity:1;stroke:url(#linearGradient2627);stroke-width:1.00000036;stroke-linecap:round;stroke-linejoin:miter;stroke-miterlimit:4;stroke-dashoffset:10;stroke-opacity:1;display:inline"
       d="M 1.8478272,20.50007 L 30.152185,20.50007 C 30.510201,20.50007 31.500011,21.02165 31.500011,23.50013 L 0.5000007,23.50013 C 0.5000007,20.98063 1.5102128,20.50007 1.8478272,20.50007 z "
       id="path2621"
       sodipodi:nodetypes="ccccc"
       inkscape:export-filename="/home/lapo/Icone/Crux/folderx.png"
       inkscape:export-xdpi="90"
       inkscape:export-ydpi="90" />
  </g>
</svg>
