<?xml version="1.0" encoding="UTF-8" standalone="no"?>
<!-- Generator: Adobe Illustrator 9.0, SVG Export Plug-In  -->
<svg
   xmlns:dc="http://purl.org/dc/elements/1.1/"
   xmlns:cc="http://creativecommons.org/ns#"
   xmlns:rdf="http://www.w3.org/1999/02/22-rdf-syntax-ns#"
   xmlns:svg="http://www.w3.org/2000/svg"
   xmlns="http://www.w3.org/2000/svg"
   xmlns:sodipodi="http://sodipodi.sourceforge.net/DTD/sodipodi-0.dtd"
   xmlns:inkscape="http://www.inkscape.org/namespaces/inkscape"
   width="48pt"
   height="48pt"
   viewBox="0 0 48 48"
   xml:space="preserve"
   id="svg2"
   sodipodi:version="0.32"
   inkscape:version="0.46"
   sodipodi:docname="accessories-text-editor.svg"
   inkscape:output_extension="org.inkscape.output.svg.inkscape"><metadata
   id="metadata32"><rdf:RDF><cc:Work
       rdf:about=""><dc:format>image/svg+xml</dc:format><dc:type
         rdf:resource="http://purl.org/dc/dcmitype/StillImage" /></cc:Work></rdf:RDF></metadata><defs
   id="defs30" /><sodipodi:namedview
   inkscape:window-height="480"
   inkscape:window-width="640"
   inkscape:pageshadow="2"
   inkscape:pageopacity="0.0"
   guidetolerance="10.0"
   gridtolerance="10.0"
   objecttolerance="10.0"
   borderopacity="1.0"
   bordercolor="#666666"
   pagecolor="#ffffff"
   id="base" />
	<g
   id="Layer_x0020_1"
   style="fill-rule:nonzero;clip-rule:nonzero;stroke:#000000;stroke-miterlimit:4;">
		<path
   style="fill:none;stroke:#FFFFFF;stroke-width:12.1438;stroke-linejoin:round;"
   d="M35.7,19.8v18.9H11V8.8h13.9l10.8,11z"
   id="path5" />
		<path
   style="fill:none;stroke:#FFFFFF;stroke-width:12.7649;stroke-linejoin:round;"
   d="M38.7,30.4L25,16.7l-7.7-3l2.7,8.7l13.3,13.4l5.4-5.4z"
   id="path7" />
		<path
   style="fill:#FFFFFF;stroke:#FFFFFF;stroke-width:12.7649;stroke-linejoin:round;"
   d="M35.7,8.8H11v29.9h24.7V8.8z"
   id="path9" />
		<path
   style="fill:#FFFFFF;stroke-width:6.3824;stroke-linejoin:round;"
   d="M35.7,8.8H11v29.9h24.7V8.8z"
   id="path11" />
		<path
   style="fill:#FFFFFF;stroke:none;"
   d="M35.7,8.8H11v29.9h24.7V8.8z"
   id="path13" />
	</g>
	<g
   id="Layer_x0020_4"
   style="fill-rule:nonzero;clip-rule:nonzero;stroke:#000000;stroke-miterlimit:4;">
		<path
   style="fill:none;stroke-width:4.9715;stroke-linejoin:round;"
   d="M38.7,30.4L25,16.7l-7.7-3l2.7,8.7l13.3,13.4l5.4-5.4z"
   id="path16" />
		<path
   style="stroke:none;"
   d="M38.7,30.4L25,16.7l-7.7-3l2.7,8.7l13.3,13.4l5.4-5.4z"
   id="path18" />
		<path
   style="stroke:none;"
   d="M20.6,14.7l-2.5,2.5L17,13.4l3.6,1.3z"
   id="path20" />
		<path
   style="fill:none;stroke-width:1.2429;"
   d="M19.6,22.2l3-0.3l2.4-2.4l0.4-2.8"
   id="path22" />
		<path
   style="fill:#FFFFFF;stroke:none;"
   d="M20.4,14.9L18.3,17l1.6,5.2l2.7-0.3l2.4-2.4l0.3-2.4l-5-2.2z"
   id="path24" />
	</g>
	<g
   id="crop"
   style="fill-rule:nonzero;clip-rule:nonzero;stroke:#000000;stroke-miterlimit:4;">
		<path
   style="fill:none;stroke:none;"
   d="M48,48H0V0h48v48z"
   id="path27" />
	</g>
</svg>