<?xml version="1.0" encoding="iso-8859-1"?>
<!-- Generator: Adobe Illustrator 9.0, SVG Export Plug-In  -->
<!DOCTYPE svg PUBLIC "-//W3C//DTD SVG 20000303 Stylable//EN"   "http://www.w3.org/TR/2000/03/WD-SVG-20000303/DTD/svg-20000303-stylable.dtd" [
	<!ENTITY st0 "fill:none;stroke:#FFFFFF;stroke-width:10.8235;stroke-linejoin:round;">
	<!ENTITY st1 "fill:none;stroke:none;">
	<!ENTITY st2 "stroke-width:3.6078;stroke-linejoin:round;">
	<!ENTITY st3 "fill-rule:nonzero;clip-rule:nonzero;stroke:#000000;stroke-miterlimit:4;">
	<!ENTITY st4 "stroke:none;">
]>
<svg  width="48pt" height="48pt" viewBox="0 0 48 48" xml:space="preserve">
	<g id="Layer_x0020_4" style="&st3;">
		<g>
			<g>
				<g>
					<path style="&st4;" d="M18,30.9l-2.8,7.2H6L18.1,9.9h11.6L42,38.1h-9.6l-3-7.2H18z M28,26.1c0,0-3.8-9.8-4.4-11.4h-0.2c-0.5,1.7-4.2,11.4-4.2,11.4H28z"/>
				</g>
				<g>
					<path style="&st0;" d="M18,30.9l-2.8,7.2H6L18.1,9.9h11.6L42,38.1h-9.6l-3-7.2H18z M28,26.1c0,0-3.8-9.8-4.4-11.4h-0.2c-0.5,1.7-4.2,11.4-4.2,11.4H28z"/>
				</g>
			</g>
			<g>
				<path style="&st2;" d="M18,30.9l-2.8,7.2H6L18.1,9.9h11.6L42,38.1h-9.6l-3-7.2H18z M28,26.1c0,0-3.8-9.8-4.4-11.4h-0.2c-0.5,1.7-4.2,11.4-4.2,11.4H28z"/>
			</g>
		</g>
	</g>
	<g id="crop_x0020_marks" style="&st3;">
		<path style="&st1;" d="M48,48H0V0h48v48z"/>
	</g>
</svg>
