<?xml version="1.0" encoding="UTF-8" standalone="no"?>
<!-- Created with Inkscape (http://www.inkscape.org/) -->
<svg
   xmlns:dc="http://purl.org/dc/elements/1.1/"
   xmlns:cc="http://web.resource.org/cc/"
   xmlns:rdf="http://www.w3.org/1999/02/22-rdf-syntax-ns#"
   xmlns:svg="http://www.w3.org/2000/svg"
   xmlns="http://www.w3.org/2000/svg"
   xmlns:sodipodi="http://inkscape.sourceforge.net/DTD/sodipodi-0.dtd"
   xmlns:inkscape="http://www.inkscape.org/namespaces/inkscape"
   width="48.000000pt"
   height="48.000000pt"
   id="svg2"
   sodipodi:version="0.32"
   inkscape:version="0.42+devel"
   sodipodi:docbase="/home/luca/Desktop"
   sodipodi:docname="gnome-character-map.svg">
  <defs
     id="defs4" />
  <sodipodi:namedview
     id="base"
     pagecolor="#ffffff"
     bordercolor="#666666"
     borderopacity="1.0"
     inkscape:pageopacity="0.0"
     inkscape:pageshadow="2"
     inkscape:zoom="14.1279"
     inkscape:cx="30"
     inkscape:cy="30"
     inkscape:document-units="pt"
     inkscape:current-layer="layer1"
     showgrid="true"
     inkscape:grid-bbox="true"
     inkscape:grid-points="true"
     gridspacingy="1.0000000pt"
     gridspacingx="1.0000000pt"
     gridoriginy="0.0000000pt"
     gridoriginx="0.0000000pt"
     gridtolerance="1.0000000pt"
     guidetolerance="1.0000000pt"
     inkscape:guide-points="true"
     inkscape:window-width="1280"
     inkscape:window-height="944"
     inkscape:window-x="0"
     inkscape:window-y="26"
     showguides="true"
     inkscape:guide-bbox="true">
    <sodipodi:guide
       orientation="horizontal"
       position="46.277713"
       id="guide4178" />
    <sodipodi:guide
       orientation="horizontal"
       position="13.863787"
       id="guide4180" />
    <sodipodi:guide
       orientation="vertical"
       position="13.668523"
       id="guide4182" />
    <sodipodi:guide
       orientation="vertical"
       position="46.375345"
       id="guide4184" />
  </sodipodi:namedview>
  <metadata
     id="metadata7">
    <rdf:RDF>
      <cc:Work
         rdf:about="">
        <dc:format>image/svg+xml</dc:format>
        <dc:type
           rdf:resource="http://purl.org/dc/dcmitype/StillImage" />
        <cc:license
           rdf:resource="http://creativecommons.org/licenses/GPL/2.0/" />
      </cc:Work>
      <cc:License
         rdf:about="http://creativecommons.org/licenses/GPL/2.0/">
        <cc:permits
           rdf:resource="http://web.resource.org/cc/Reproduction" />
        <cc:permits
           rdf:resource="http://web.resource.org/cc/Distribution" />
        <cc:requires
           rdf:resource="http://web.resource.org/cc/Notice" />
        <cc:permits
           rdf:resource="http://web.resource.org/cc/DerivativeWorks" />
        <cc:requires
           rdf:resource="http://web.resource.org/cc/ShareAlike" />
        <cc:requires
           rdf:resource="http://web.resource.org/cc/SourceCode" />
      </cc:License>
    </rdf:RDF>
  </metadata>
  <g
     inkscape:label="Livello 1"
     inkscape:groupmode="layer"
     id="layer1">
    <rect
       style="fill:none;fill-opacity:1.0000000;fill-rule:nonzero;stroke:none;stroke-width:9.3750000;stroke-linecap:round;stroke-linejoin:round;stroke-miterlimit:4.0000000;stroke-dasharray:none;stroke-dashoffset:0.0000000;stroke-opacity:1.0000000;display:none"
       id="rect1306"
       width="48.000000pt"
       height="48.000000pt"
       x="0.0000000"
       y="0.0000000"
       sodipodi:insensitive="true" />
    <rect
       style="fill:#000000;fill-opacity:1;fill-rule:evenodd;stroke:#ffffff;stroke-width:4.375;stroke-linecap:butt;stroke-linejoin:miter;stroke-miterlimit:4;stroke-dasharray:none;stroke-opacity:1"
       id="rect3303"
       width="52.5"
       height="52.5"
       x="3.75"
       y="3.75"
       ry="6.1471014" />
    <rect
       style="fill:#ffffff;fill-opacity:1;fill-rule:evenodd;stroke:none;stroke-width:1px;stroke-linecap:butt;stroke-linejoin:miter;stroke-opacity:1"
       id="rect4186"
       width="27.5"
       height="27.5"
       x="16.25"
       y="16.25"
       ry="0" />
    <path
       style="font-size:30.72154999px;font-style:normal;font-variant:normal;font-weight:bold;font-stretch:normal;text-align:start;line-height:100%;writing-mode:lr-tb;text-anchor:start;fill:#000000;fill-opacity:1;fill-rule:nonzero;stroke:none;stroke-width:4.375;stroke-linecap:round;stroke-linejoin:round;stroke-miterlimit:4;stroke-dashoffset:0;stroke-opacity:1;font-family:Bitstream Vera Sans Mono"
       d="M 35.214495,34.175184 C 33.59713,34.17519 32.467941,34.353654 31.826923,34.710577 C 31.185891,35.067512 30.865378,35.67939 30.865385,36.546213 C 30.865378,37.192087 31.087272,37.706235 31.531065,38.088656 C 31.974844,38.471083 32.576422,38.662294 33.335798,38.662292 C 34.479772,38.662294 35.367345,38.292618 35.998519,37.553262 C 36.62967,36.805415 36.945252,35.764373 36.945265,34.430133 L 36.945265,34.175184 L 35.214495,34.175184 M 41.249997,32.734719 L 41.249997,40.880351 L 36.945265,40.880351 L 36.945265,39.286917 C 36.42257,39.915794 35.751959,40.400197 34.933431,40.740129 C 34.114881,41.080061 33.212516,41.250027 32.22633,41.250028 C 30.342697,41.250027 28.873271,40.820863 27.818048,39.962533 C 26.772681,39.104205 26.249999,37.905945 26.25,36.367748 C 26.249999,34.702085 26.876231,33.47408 28.128699,32.68373 C 29.381159,31.884897 31.319026,31.485477 33.942306,31.485468 L 36.945265,31.485468 L 36.945265,30.860842 C 36.945252,30.257473 36.688842,29.802813 36.176034,29.496863 C 35.673065,29.182437 34.928489,29.025219 33.942306,29.025207 C 32.906796,29.025219 31.90088,29.139946 30.924556,29.369388 C 29.958081,29.590356 28.947234,29.947285 27.892012,30.440176 L 27.892012,27.253309 C 28.848616,26.91339 29.820015,26.66269 30.806212,26.501208 C 31.792399,26.339755 32.837762,26.259021 33.942306,26.259007 C 36.634602,26.259021 38.523159,26.730677 39.607985,27.673975 C 40.702644,28.6173 41.24998,30.304213 41.249997,32.734719 M 31.974851,20 L 36.16124,24.793048 L 33.24704,24.793048 L 27.803255,20 L 31.974851,20"
       id="text4188" />
    <path
       style="fill:#ffffff;fill-opacity:1;fill-rule:evenodd;stroke:none;stroke-width:1px;stroke-linecap:butt;stroke-linejoin:miter;stroke-opacity:1"
       d="M 10,8.75 L 50,8.75 L 45,13.722287 L 15,13.75 L 10,8.75 z "
       id="rect5938"
       sodipodi:nodetypes="ccccc" />
    <path
       sodipodi:nodetypes="ccccc"
       id="path6816"
       d="M 8.75,50 L 8.75,10 L 13.668523,15 L 13.75,45 L 8.75,50 z "
       style="fill:#ffffff;fill-opacity:1;fill-rule:evenodd;stroke:none;stroke-width:1px;stroke-linecap:butt;stroke-linejoin:miter;stroke-opacity:1" />
    <path
       sodipodi:nodetypes="ccccc"
       id="path3313"
       d="M 10,51.25 L 50,51.25 L 45,46.136213 L 15,46.136213 L 10,51.25 z "
       style="fill:#ffffff;fill-opacity:1;fill-rule:evenodd;stroke:none;stroke-width:1px;stroke-linecap:butt;stroke-linejoin:miter;stroke-opacity:1" />
    <path
       style="fill:#ffffff;fill-opacity:1;fill-rule:evenodd;stroke:none;stroke-width:1px;stroke-linecap:butt;stroke-linejoin:miter;stroke-opacity:1"
       d="M 51.25,50 L 51.25,10 L 46.375345,15 L 46.375345,45 L 51.25,50 z "
       id="path3315"
       sodipodi:nodetypes="ccccc" />
  </g>
</svg>
