<?xml version="1.0" encoding="iso-8859-1"?>
<!-- Generator: Adobe Illustrator 9.0, SVG Export Plug-In  -->
<!DOCTYPE svg PUBLIC "-//W3C//DTD SVG 20000303 Stylable//EN"   "http://www.w3.org/TR/2000/03/WD-SVG-20000303/DTD/svg-20000303-stylable.dtd" [
	<!ENTITY st0 "fill:url(#aigrd1);stroke:none;">
	<!ENTITY st1 "opacity:0.5;fill:url(#aigrd5);stroke:none;">
	<!ENTITY st2 "fill:url(#aigrd3);stroke:none;">
	<!ENTITY st3 "opacity:0.61;stroke:none;">
	<!ENTITY st4 "opacity:0.62;stroke:none;">
	<!ENTITY st5 "fill-rule:nonzero;clip-rule:nonzero;fill:#F3F3F3;stroke:#000000;stroke-miterlimit:4;">
	<!ENTITY st6 "fill:url(#aigrd2);stroke:none;">
	<!ENTITY st7 "fill:#000000;stroke-width:0.9707;">
	<!ENTITY st8 "fill:url(#aigrd7);stroke:none;">
	<!ENTITY st9 "opacity:0.5;fill:url(#aigrd6);stroke:none;">
	<!ENTITY st10 "fill:url(#aigrd4);stroke:none;">
]>
<svg  width="21.3px" height="22.1px" viewBox="0 0 21.3 22.1" xml:space="preserve">
	<g id="Layer_x0020_3" style="&st5;">
		<path style="&st7;" d="M3.3,0.5c-1.6,0-2.8,1-2.8,2.3V20l0,0.1c0.1,0.5,0.7,1.5,1.9,1.5h16.2c0.6,0,1-0.5,1-1c0,0,0-0.2,0-0.2c0-0.1,0.1-0.3,0.1-0.4c0.1,0,0.2,0,0.2,0l-0.1,0c0.6,0,1-0.5,1-1V1.5c0-0.6-0.5-1-1-1H3.3z"/>
		<linearGradient id="aigrd1" gradientUnits="userSpaceOnUse" x1="16.3652" y1="15.688" x2="7.1322" y2="7.463">
			<stop  offset="0" style="stop-color:#646698"/>
			<stop  offset="1" style="stop-color:#7B7C99"/>
		</linearGradient>
		<path style="&st0;" d="M20.1,18.8c0,0.1-0.1,0.2-0.2,0.2L2.4,20.7c-0.8,0-1-0.8-1-0.8V2.8c0-0.9,0.9-1.5,1.9-1.5h16.5c0.1,0,0.2,0.1,0.2,0.2v17.3z"/>
		<linearGradient id="aigrd2" gradientUnits="userSpaceOnUse" x1="18.0537" y1="10.8174" x2="19.6073" y2="10.7765">
			<stop  offset="0" style="stop-color:#F3F3F3"/>
			<stop  offset="1" style="stop-color:#C1C1C1"/>
		</linearGradient>
		<path style="&st6;" d="M19.5,18.7c-0.7,0.1-0.8,1.4-0.8,1.4L3.2,19.4c-0.1,0,0-0.6,0-0.7L3.3,3H2c0,0,0.1-1.2,2.1-1.2l15.3,0c0.1,0,0.2,0.1,0.2,0.2v16.7z"/>
		<linearGradient id="aigrd3" gradientUnits="userSpaceOnUse" x1="15.9258" y1="16.6655" x2="6.9636" y2="8.6817">
			<stop  offset="0" style="stop-color:#646698"/>
			<stop  offset="1" style="stop-color:#7B7C99"/>
		</linearGradient>
		<path style="&st2;" d="M18.8,20.5c0,0.1-0.1,0.2-0.2,0.2H2.4c-0.1,0-0.2-0.1-0.2-0.2V3.2C2.3,3.1,2.3,3,2.4,3h16.2c0.1,0,0.2,0.1,0.2,0.2v17.3z"/>
		<linearGradient id="aigrd4" gradientUnits="userSpaceOnUse" x1="19.3506" y1="2.5215" x2="19.4313" y2="2.5194">
			<stop  offset="0" style="stop-color:#F3F3F3"/>
			<stop  offset="1" style="stop-color:#C1C1C1"/>
		</linearGradient>
		<path style="&st10;" d="M19.4,2c-0.4,0.2-0.9,0.5-0.9,1c-0.1-0.5,0.4-1,0.9-1z"/>
		<path style="&st4;" d="M18.3,3.4L1.8,3.8l0,16.7c-0.2-0.1-0.4-0.5-0.4-0.6V2.8c0,0,0,0.6,0.4,0.6l16.4,0z"/>
		<linearGradient id="aigrd5" gradientUnits="userSpaceOnUse" x1="18.1895" y1="11.8452" x2="18.7658" y2="11.8452">
			<stop  offset="5.618000e-003" style="stop-color:#646698"/>
			<stop  offset="1" style="stop-color:#303048"/>
		</linearGradient>
		<path style="&st1;" d="M18.8,3.2v17.3c0,0.1-0.1,0.2-0.1,0.2h-0.4l0-17.7h0.3c0,0,0.2,0,0.2,0.1z"/>
		<linearGradient id="aigrd6" gradientUnits="userSpaceOnUse" x1="19.7676" y1="10.1396" x2="20.0536" y2="10.1396">
			<stop  offset="5.618000e-003" style="stop-color:#646698"/>
			<stop  offset="1" style="stop-color:#303048"/>
		</linearGradient>
		<path style="&st9;" d="M20.1,1.5l0,17.3c0,0.1-0.1,0.2-0.3,0.2l0-17.7c0.1,0,0.2,0,0.2,0.2z"/>
		<path style="&st3;" d="M19.8,1.3L3.2,1.4C2.3,1.4,1.4,2.3,1.4,3C1.3,2.4,1.8,1.3,3.3,1.3l16.5,0z"/>
		<linearGradient id="aigrd7" gradientUnits="userSpaceOnUse" x1="2.3682" y1="12.1968" x2="3.3225" y2="12.1968">
			<stop  offset="0" style="stop-color:#747AB0"/>
			<stop  offset="0.2416" style="stop-color:#555778"/>
			<stop  offset="0.5449" style="stop-color:#7B7C99"/>
			<stop  offset="0.7865" style="stop-color:#9FA1BE"/>
			<stop  offset="1" style="stop-color:#7B7C99"/>
		</linearGradient>
		<path style="&st8;" d="M3.4,20.6h-1V3.8h1v16.9z"/>
	</g>
</svg>
