<?xml version="1.0" encoding="iso-8859-1"?>
<!-- Generator: Adobe Illustrator 9.0, SVG Export Plug-In  -->
<!DOCTYPE svg PUBLIC "-//W3C//DTD SVG 20000303 Stylable//EN"   "http://www.w3.org/TR/2000/03/WD-SVG-20000303/DTD/svg-20000303-stylable.dtd" [
	<!ENTITY st0 "fill-rule:evenodd;clip-rule:evenodd;fill:url(#aigrd1);stroke:none;">
	<!ENTITY st1 "fill-rule:evenodd;clip-rule:evenodd;fill:url(#aigrd3);stroke:none;">
	<!ENTITY st2 "stroke-width:0.8634;">
	<!ENTITY st3 "fill-rule:evenodd;clip-rule:evenodd;fill:#FFFFFF;stroke:none;">
	<!ENTITY st4 "fill-rule:evenodd;clip-rule:evenodd;fill:url(#aigrd2);stroke:none;">
	<!ENTITY st5 "fill-rule:evenodd;clip-rule:evenodd;stroke:none;">
	<!ENTITY st6 "fill-rule:nonzero;clip-rule:nonzero;stroke:#000000;stroke-miterlimit:4;">
]>
<svg  width="22.7px" height="22.7px" viewBox="0 0 22.7 22.7" xml:space="preserve">
	<g id="Layer_x0020_5" style="&st6;">
		<path style="&st2;" d="M0.4,11.3c0,6,4.9,10.9,10.9,10.9s10.9-4.9,10.9-10.9S17.3,0.4,11.3,0.4S0.4,5.3,0.4,11.3z"/>
		<radialGradient id="aigrd1" cx="8.1216" cy="7.2964" r="13.575" fx="8.1216" fy="7.2964" gradientUnits="userSpaceOnUse">
			<stop  offset="0" style="stop-color:#FED182"/>
			<stop  offset="0.2809" style="stop-color:#FFB310"/>
			<stop  offset="1" style="stop-color:#996E04"/>
		</radialGradient>
		<path style="&st0;" d="M20.5,11.2c0,5.1-4.2,9.3-9.3,9.3s-9.3-4.2-9.3-9.3c0-5.1,4.2-9.3,9.3-9.3s9.3,4.2,9.3,9.3z"/>
		<path style="&st5;" d="M10,5.2c0,0,0,3,0,5.4c-1-1-2-2-2-2C7.8,8.4,7.5,8.3,7.2,8.3c-0.3,0-0.6,0.1-0.8,0.3C6,9,6,9.7,6.4,10.2l3.9,3.9c0,0,0,0,0.1,0.1c0,0,0,0,0,0c0,0,0,0,0.1,0c0,0,0,0,0,0c0,0,0.1,0,0.1,0c0,0,0,0,0,0c0,0,0,0,0.1,0c0,0,0,0,0,0c0,0,0,0,0.1,0
			c0,0,0,0,0,0c0,0,0.1,0,0.1,0c0,0,0,0,0,0c0,0,0.1,0,0.1,0c0,0,0,0,0,0c0,0,0,0,0.1,0c0,0,0,0,0,0c0,0,0.1,0,0.1,0c0,0,0,0,0,0c0,0,0.1,0,0.1,0c0,0,0,0,0,0c0,0,0,0,0.1,0c0,0,0,0,0,0c0,0,0,0,0.1,0c0,0,0,0,0,0c0,0,0,0,0,0c0,0,0.1,0,0.1,0c0,0,0,0,0,0
			c0,0,0,0,0.1,0c0,0,0,0,0,0c0,0,0,0,0.1,0c0,0,0,0,0,0c0,0,0.1,0,0.1-0.1c0,0,0,0,0,0l3.9-3.9c0.4-0.4,0.4-1.1,0-1.6s-1.1-0.4-1.6,0l-2,2V5.2c0-0.6-0.5-1.1-1.1-1.1S10,4.6,10,5.2z"/>
		<path style="&st3;" d="M10.2,5.2c0,0,0,3,0,5.4c-1-1-2-2-2-2C7.9,8.4,7.7,8.3,7.4,8.3c-0.3,0-0.6,0.1-0.8,0.3c-0.4,0.4-0.4,1.1,0,1.6l3.9,3.9c0,0,0,0,0.1,0.1c0,0,0,0,0,0c0,0,0,0,0.1,0c0,0,0,0,0,0c0,0,0.1,0,0.1,0c0,0,0,0,0,0c0,0,0,0,0.1,0c0,0,0,0,0,0
			c0,0,0,0,0.1,0c0,0,0,0,0,0c0,0,0.1,0,0.1,0c0,0,0,0,0,0c0,0,0.1,0,0.1,0c0,0,0,0,0,0c0,0,0,0,0.1,0c0,0,0,0,0,0c0,0,0.1,0,0.1,0c0,0,0,0,0,0c0,0,0.1,0,0.1,0c0,0,0,0,0,0c0,0,0,0,0.1,0c0,0,0,0,0,0c0,0,0,0,0.1,0c0,0,0,0,0,0c0,0,0,0,0,0c0,0,0.1,0,0.1,0
			c0,0,0,0,0,0c0,0,0,0,0.1,0c0,0,0,0,0,0c0,0,0,0,0.1,0c0,0,0,0,0,0c0,0,0.1,0,0.1-0.1c0,0,0,0,0,0l3.9-3.9c0.4-0.4,0.4-1.1,0-1.6s-1.1-0.4-1.6,0l-2,2V5.2c0-0.6-0.5-1.1-1.1-1.1c-0.6,0-1.1,0.5-1.1,1.1z"/>
		<radialGradient id="aigrd2" cx="10.7471" cy="-44.4824" r="8.664" fx="10.7471" fy="-44.4824" gradientTransform="matrix(0 -1 1 0 54.1475 16.5757)" gradientUnits="userSpaceOnUse">
			<stop  offset="0" style="stop-color:#FFFFFF"/>
			<stop  offset="1" style="stop-color:#F0E1BD"/>
		</radialGradient>
		<path style="&st4;" d="M10.1,5.2c0,0,0,3,0,5.4c-1-1-2-2-2-2C7.9,8.4,7.6,8.3,7.3,8.3C7,8.3,6.7,8.4,6.5,8.6c-0.4,0.4-0.4,1.1,0,1.6l3.9,3.9c0,0,0,0,0.1,0.1c0,0,0,0,0,0c0,0,0,0,0.1,0c0,0,0,0,0,0c0,0,0.1,0,0.1,0c0,0,0,0,0,0c0,0,0,0,0.1,0c0,0,0,0,0,0
			c0,0,0,0,0.1,0c0,0,0,0,0,0c0,0,0.1,0,0.1,0c0,0,0,0,0,0c0,0,0.1,0,0.1,0c0,0,0,0,0,0c0,0,0,0,0.1,0c0,0,0,0,0,0c0,0,0.1,0,0.1,0c0,0,0,0,0,0c0,0,0.1,0,0.1,0c0,0,0,0,0,0c0,0,0,0,0.1,0c0,0,0,0,0,0c0,0,0,0,0.1,0c0,0,0,0,0,0c0,0,0,0,0,0c0,0,0.1,0,0.1,0
			c0,0,0,0,0,0c0,0,0,0,0.1,0c0,0,0,0,0,0c0,0,0,0,0.1,0c0,0,0,0,0,0c0,0,0.1,0,0.1-0.1c0,0,0,0,0,0l3.9-3.9c0.4-0.4,0.4-1.1,0-1.6s-1.1-0.4-1.6,0l-2,2V5.2c0-0.6-0.5-1.1-1.1-1.1s-1.1,0.5-1.1,1.1z"/>
		<path style="&st5;" d="M14.6,17.4H7.5c-0.6,0-1.2-0.5-1.2-1.2c0-0.6,0.5-1.2,1.2-1.2h7.1c0.6,0,1.2,0.5,1.2,1.2c0,0.6-0.5,1.2-1.2,1.2z"/>
		<path style="&st3;" d="M14.8,17.6H7.6c-0.6,0-1.2-0.5-1.2-1.2c0-0.6,0.5-1.2,1.2-1.2h7.1c0.6,0,1.2,0.5,1.2,1.2c0,0.6-0.5,1.2-1.2,1.2z"/>
		<radialGradient id="aigrd3" cx="-100.2993" cy="-100.6982" r="10.4871" fx="-100.2993" fy="-100.6982" gradientTransform="matrix(0 -1 -1 0 -92.8501 -92.8501)" gradientUnits="userSpaceOnUse">
			<stop  offset="0" style="stop-color:#FFFFFF"/>
			<stop  offset="1" style="stop-color:#F0E1BD"/>
		</radialGradient>
		<path style="&st1;" d="M14.7,17.5H7.5c-0.6,0-1.2-0.5-1.2-1.2c0-0.6,0.5-1.2,1.2-1.2h7.1c0.6,0,1.2,0.5,1.2,1.2c0,0.6-0.5,1.2-1.2,1.2z"/>
	</g>
</svg>
