<?xml version="1.0" encoding="iso-8859-1"?>
<!-- Generator: Adobe Illustrator 9.0, SVG Export Plug-In  -->
<!DOCTYPE svg PUBLIC "-//W3C//DTD SVG 20000303 Stylable//EN"   "http://www.w3.org/TR/2000/03/WD-SVG-20000303/DTD/svg-20000303-stylable.dtd" [
	<!ENTITY st0 "fill:url(#aigrd1);stroke:none;">
	<!ENTITY st1 "fill:url(#aigrd3);stroke:none;">
	<!ENTITY st2 "stroke-width:0.8834;">
	<!ENTITY st3 "fill:url(#aigrd2);stroke:none;">
	<!ENTITY st4 "fill-rule:nonzero;clip-rule:nonzero;stroke:#000000;stroke-miterlimit:4;">
]>
<svg  width="18.8px" height="21.7px" viewBox="0 0 18.8 21.7" xml:space="preserve">
	<g id="Layer_x0020_2" style="&st4;">
		<path style="&st2;" d="M17.2,14c-0.8-0.9-1.9-1.4-3.1-1.4c-0.5,0-1,0.1-1.5,0.3c-0.2-0.4-0.3-0.5-0.5-0.8c1.5-1.1,3.2-2.7,4.5-4.8c0.5-1,0.8-1.8,0.8-2.6c0-0.9-0.3-1.7-0.6-2.3c-0.6-1.1-1.5-1.7-1.6-1.7c-0.2-0.1-0.4-0.2-0.7-0.1c-0.2,0.1-0.4,0.2-0.6,0.4
			c0,0-3.2,5.2-4.3,7c-1.1-1.8-4.3-7-4.3-7C4.9,0.6,4.7,0.5,4.5,0.4S4,0.4,3.8,0.5c-0.1,0.1-1,0.6-1.6,1.7C1.9,2.8,1.6,3.6,1.6,4.5c0,0.8,0.2,1.6,0.8,2.6c1.3,2.2,3,3.8,4.5,4.9c-0.2,0.4-0.3,0.5-0.6,0.9c-0.5-0.2-1-0.3-1.5-0.3c-1.2,0-2.3,0.5-3.1,1.4
			c-0.7,0.8-1.1,1.8-1.1,2.9s0.4,2.1,1.1,2.9c0.8,0.9,1.9,1.4,3.1,1.4c1.2,0,2.3-0.5,3.1-1.4C8.5,19.2,8.9,18.1,9,17c0-0.3,0.2-1.3,0.4-2.2c0.2,0.9,0.3,1.9,0.4,2.2c0.1,1.1,0.5,2.2,1.1,2.9c0.8,0.9,1.9,1.4,3.1,1.4c1.2,0,2.3-0.5,3.1-1.4c0.7-0.8,1.1-1.8,1.1-2.9
			s-0.4-2.1-1.1-2.9z M4.1,15.8c0.1-0.1,0.3-0.3,0.6-0.3c0.3,0,0.5,0.2,0.6,0.3c0.3,0.3,0.4,0.7,0.4,1.1s-0.2,0.9-0.4,1.1c-0.1,0.1-0.3,0.3-0.6,0.3c-0.3,0-0.5-0.2-0.6-0.3c-0.3-0.3-0.4-0.7-0.4-1.1s0.2-0.9,0.4-1.1z M13.4,15.8c0.1-0.1,0.3-0.3,0.6-0.3
			c0.3,0,0.5,0.2,0.6,0.3c0.3,0.3,0.4,0.7,0.4,1.1s-0.2,0.9-0.4,1.1c-0.1,0.1-0.3,0.3-0.6,0.3c-0.3,0-0.5-0.2-0.6-0.3c-0.3-0.3-0.4-0.7-0.4-1.1s0.2-0.9,0.4-1.1z"/>
		<linearGradient id="aigrd1" gradientUnits="userSpaceOnUse" x1="-48.8647" y1="8.4551" x2="-39.8824" y2="14.8767" gradientTransform="matrix(-1 0 0 1 -36.0234 0)">
			<stop  offset="0" style="stop-color:#E6E6E6"/>
			<stop  offset="1" style="stop-color:#9F9F9F"/>
		</linearGradient>
		<path style="&st0;" d="M3.1,6.6c2.4,4.2,6.8,6.2,6.8,6.2s0.7,3.2,0.7,4c0,0.8,0.3,1.7,0.9,2.3c0.6,0.7,1.5,1.1,2.5,1.1c1,0,1.9-0.4,2.5-1.1c0.6-0.6,0.9-1.5,0.9-2.3c0-0.9-0.3-1.7-0.9-2.3c-0.6-0.7-1.5-1.1-2.5-1.1c-0.7,0-1.3,0.2-1.9,0.5L4.3,1.2
			c0,0-3.2,2-1.2,5.4z M12.1,16.8c0-0.7,0.2-1.3,0.7-1.7c0.2-0.2,0.7-0.6,1.3-0.6c0.6,0,1.1,0.4,1.3,0.6c0.4,0.5,0.7,1.1,0.7,1.7c0,0.7-0.2,1.3-0.7,1.7c-0.2,0.2-0.7,0.6-1.3,0.6c-0.6,0-1.1-0.4-1.3-0.6c-0.4-0.5-0.7-1.1-0.7-1.7z"/>
		<linearGradient id="aigrd2" gradientUnits="userSpaceOnUse" x1="9.1968" y1="10.8452" x2="13.2176" y2="13.6504">
			<stop  offset="0" style="stop-color:#FFFFFF"/>
			<stop  offset="1" style="stop-color:#BEBEBE"/>
		</linearGradient>
		<path style="&st3;" d="M14.5,1.3L6.6,14c-0.5-0.3-1.2-0.5-1.9-0.5c-1,0-1.9,0.4-2.5,1.1c-0.6,0.6-0.9,1.5-0.9,2.3c0,0.9,0.3,1.7,0.9,2.3c0.6,0.7,1.5,1.1,2.5,1.1c1,0,1.9-0.4,2.5-1.1c0.6-0.6,0.9-1.5,0.9-2.3c0-0.8,0.7-4,0.7-4s4.4-2,6.8-6.2
			c1.9-3.4-1.2-5.4-1.2-5.4z M6,18.6c-0.2,0.2-0.7,0.6-1.3,0.6c-0.6,0-1.1-0.4-1.3-0.6c-0.4-0.5-0.7-1.1-0.7-1.7s0.2-1.3,0.7-1.7c0.2-0.2,0.7-0.6,1.3-0.6c0.6,0,1.1,0.4,1.3,0.6c0.4,0.5,0.7,1.1,0.7,1.7S6.4,18.2,6,18.6z"/>
		<radialGradient id="aigrd3" cx="-20.3359" cy="10.896" r="0.8478" fx="-20.3359" fy="10.896" gradientTransform="matrix(1.1422 0 0 1 32.2779 0)" gradientUnits="userSpaceOnUse">
			<stop  offset="0" style="stop-color:#FFFFFF"/>
			<stop  offset="1" style="stop-color:#BEBEBE"/>
		</radialGradient>
		<path style="&st1;" d="M10.3,11.3c0,0.4-0.4,0.8-0.9,0.8s-0.9-0.4-0.9-0.8c0-0.4,0.4-0.8,0.9-0.8s0.9,0.4,0.9,0.8z"/>
	</g>
</svg>
