<?xml version="1.0" encoding="iso-8859-1"?>
<!-- Generator: Adobe Illustrator 9.0, SVG Export Plug-In  -->
<!DOCTYPE svg PUBLIC "-//W3C//DTD SVG 20000303 Stylable//EN"   "http://www.w3.org/TR/2000/03/WD-SVG-20000303/DTD/svg-20000303-stylable.dtd" [
	<!ENTITY st0 "fill:url(#aigrd1);stroke:none;">
	<!ENTITY st1 "opacity:0.27;">
	<!ENTITY st2 "fill:#FFFFFF;stroke:none;">
	<!ENTITY st3 "fill:url(#aigrd2);stroke:none;">
	<!ENTITY st4 "stroke-width:0.872;">
	<!ENTITY st5 "fill-rule:nonzero;clip-rule:nonzero;stroke:#000000;stroke-miterlimit:4;">
	<!ENTITY st6 "stroke:none;">
]>
<svg  width="22.7px" height="21.4px" viewBox="0 0 22.7 21.4" xml:space="preserve">
	<g id="Layer_x0020_2" style="&st5;">
		<path style="&st4;" d="M1.3,7.4C0.5,7.7,0.2,8.5,0.4,9.2l3.8,10.9C4.5,20.8,5.3,21.2,6,21l15.3-5.4c0.7-0.3,1.1-1.1,0.9-1.8L18.4,2.9c-0.3-0.7-1.1-1.1-1.8-0.9L1.3,7.4z"/>
		<path style="&st2;" d="M21.4,14c0.1,0.3,0,0.6-0.3,0.7L5.8,20.1c-0.3,0.1-0.6,0-0.7-0.3L1.2,9c-0.1-0.3,0-0.6,0.3-0.7l15.3-5.4c0.3-0.1,0.6,0,0.7,0.3L21.4,14z"/>
		<linearGradient id="aigrd1" gradientUnits="userSpaceOnUse" x1="-25.6113" y1="22.6333" x2="-36.1165" y2="13.1662" gradientTransform="matrix(0.943 -0.3328 0.3328 0.943 34.6732 -15.5726)">
			<stop  offset="0" style="stop-color:#FFFFFF"/>
			<stop  offset="1" style="stop-color:#EDEDED"/>
		</linearGradient>
		<path style="&st0;" d="M1.7,8.7c-0.1,0-0.1,0.1-0.1,0.1l3.8,10.9c0,0.1,0.1,0.1,0.1,0.1L21,14.3c0.1,0,0.1-0.1,0.1-0.1L17.2,3.3c0-0.1-0.1-0.1-0.1-0.1L1.7,8.7z"/>
		<g style="&st6;">
			<path style="&st1;" d="M18.4,12.8L6.8,16.9l-0.5-1.4l11.6-4.1l0.5,1.4z"/>
			<path style="&st1;" d="M17.4,9.9L5.8,14l-0.5-1.4l11.6-4.1l0.5,1.4z"/>
			<path style="&st1;" d="M16.4,7.1L4.8,11.2L4.3,9.7l11.6-4.1l0.5,1.4z"/>
		</g>
		<path style="&st4;" d="M6.9,0.4c-1.1,0-1.9,0.8-1.9,1.9c0,9.3,0,9.3,0,9.3c0,0.2,0,0.9,0.5,1.4l2.2,2.5c0,0,0.1,0.1,0.1,0.1c0.4,0.4,1,0.6,1.5,0.6c0.6,0,1.1-0.2,1.5-0.6c0,0,0,0,0,0l2.1-2.3l0,0c0.6-0.6,0.6-1.3,0.6-1.5v0V7c0-0.7-0.6-1.3-1.3-1.3
			c-0.7,0-1.3,0.6-1.3,1.3c0,0,0,4.4,0,4.7c-0.3,0.3-1.1,1.2-1.6,1.7c-0.5-0.6-1.5-1.8-1.7-1.9c0-0.2,0-7.2,0-8.4c1,0,4.1,0,5.1,0c0,0.3,0,0.8,0,0.8l2.6-1V2.3c0-1.1-0.7-1.8-1.8-1.8H6.9z M10.9,11.8c0,0,0,0,0,0v0z"/>
		<linearGradient id="aigrd2" gradientUnits="userSpaceOnUse" x1="6.1587" y1="2.7402" x2="8.4205" y2="5.2514">
			<stop  offset="0" style="stop-color:#FFFFFF"/>
			<stop  offset="1" style="stop-color:#F6F9D4"/>
		</linearGradient>
		<path style="&st3;" d="M12.6,7c0-0.2-0.2-0.4-0.4-0.4c-0.2,0-0.4,0.2-0.4,0.4v4.8c0,0,0,0,0,0v0c0,0.1,0,0.2-0.1,0.3c0,0,0,0,0,0c0,0-2,2.2-2.1,2.3c-0.1,0.1-0.2,0.1-0.3,0.1c-0.1,0-0.2,0-0.3-0.1c0,0-2.1-2.5-2.1-2.5c-0.1-0.1-0.1-0.3-0.1-0.3c0,0,0-9.3,0-9.3
			c0-0.1,0-0.1,0-0.1c0,0,0,0,0.1,0h6.6c0,0,0.1,0,0.1,0c0,0,0,0,0,0.1v0.4c0,0,0,0.1,0,0.1l0.9-0.3V2.3c0-0.4-0.1-0.9-0.9-0.9H6.9c-0.6,0-1,0.4-1,1c0,0,0,9.3,0,9.3c0,0.1,0,0.5,0.3,0.9L8.4,15c0,0,0,0,0,0c0.2,0.2,0.6,0.4,0.9,0.4c0.3,0,0.7-0.1,0.9-0.4
			c0,0,0,0,0,0l2.1-2.3c0.3-0.3,0.3-0.8,0.3-0.9V7z"/>
	</g>
</svg>
