<?xml version="1.0" encoding="iso-8859-1"?>
<!-- Generator: Adobe Illustrator 9.0, SVG Export Plug-In  -->
<!DOCTYPE svg PUBLIC "-//W3C//DTD SVG 20000303 Stylable//EN"   "http://www.w3.org/TR/2000/03/WD-SVG-20000303/DTD/svg-20000303-stylable.dtd" [
	<!ENTITY st0 "fill:url(#aigrd1);stroke:none;">
	<!ENTITY st1 "opacity:0.59;">
	<!ENTITY st2 "fill:none;stroke-width:2.4724;stroke-linecap:round;stroke-linejoin:round;">
	<!ENTITY st3 "fill-rule:nonzero;clip-rule:nonzero;fill:#FFFFFF;stroke:#000000;stroke-miterlimit:4;">
	<!ENTITY st4 "fill:url(#aigrd2);stroke:none;">
	<!ENTITY st5 "stroke:none;">
]>
<svg  width="21.9px" height="21.8px" viewBox="0 0 21.9 21.8" xml:space="preserve">
	<g id="Layer_x0020_2" style="&st3;">
		<path style="&st2;" d="M20.6,15.2V13h-1.4c-0.1-0.6-0.4-1.1-0.7-1.6l1-1L18,8.8l-1,1c-0.5-0.3-1-0.5-1.6-0.7V7.7h-2.2v1.4c-0.6,0.1-1.1,0.4-1.6,0.7l-1-1l-1.6,1.6l1,1c-0.3,0.5-0.5,1-0.7,1.6H7.8v2.2h1.4c0.1,0.6,0.4,1.1,0.7,1.6l-1,1l1.6,1.6l1-1
			c0.5,0.3,1,0.5,1.6,0.7v1.4h2.2v-1.4c0.6-0.1,1.1-0.4,1.6-0.7l1,1l1.6-1.6l-1-1c0.3-0.5,0.5-1,0.7-1.6h1.4z M14.2,15.2c-0.6,0-1.1-0.5-1.1-1.1c0-0.6,0.5-1.1,1.1-1.1c0.6,0,1.1,0.5,1.1,1.1c0,0.6-0.5,1.1-1.1,1.1z"/>
		<linearGradient id="aigrd1" gradientUnits="userSpaceOnUse" x1="11.644" y1="11.0146" x2="17.5252" y2="18.0826">
			<stop  offset="0" style="stop-color:#BBBBBB"/>
			<stop  offset="1" style="stop-color:#D2D2D2"/>
		</linearGradient>
		<path style="&st0;" d="M20.6,15.2V13h-1.4c-0.1-0.6-0.4-1.1-0.7-1.6l1-1L18,8.8l-1,1c-0.5-0.3-1-0.5-1.6-0.7V7.7h-2.2v1.4c-0.6,0.1-1.1,0.4-1.6,0.7l-1-1l-1.6,1.6l1,1c-0.3,0.5-0.5,1-0.7,1.6H7.8v2.2h1.4c0.1,0.6,0.4,1.1,0.7,1.6l-1,1l1.6,1.6l1-1
			c0.5,0.3,1,0.5,1.6,0.7v1.4h2.2v-1.4c0.6-0.1,1.1-0.4,1.6-0.7l1,1l1.6-1.6l-1-1c0.3-0.5,0.5-1,0.7-1.6h1.4z M14.2,15.2c-0.6,0-1.1-0.5-1.1-1.1c0-0.6,0.5-1.1,1.1-1.1c0.6,0,1.1,0.5,1.1,1.1c0,0.6-0.5,1.1-1.1,1.1z"/>
		<g style="&st5;">
			<path style="&st1;" d="M10.5,11.4l-1-1L10.8,9l-0.3-0.3L9,10.3l1,1c-0.3,0.5-0.5,1-0.7,1.6h0.6c0.1-0.6,0.4-1.1,0.7-1.6z"/>
			<path style="&st1;" d="M12.1,18.4l-0.2,0.2c0.4,0.2,0.8,0.4,1.2,0.5v1.4h0.6v-1.4c-0.6-0.1-1.1-0.4-1.6-0.7z"/>
			<path style="&st1;" d="M10.5,16.8c-0.3-0.5-0.5-1-0.7-1.6H9.3c0.1,0.6,0.4,1.1,0.7,1.6l-1,1l1.6,1.6l0.3-0.3l-1.3-1.3l1-1z"/>
			<path style="&st1;" d="M7.9,13v2.2h0.6l0-2.2H7.9z"/>
			<path style="&st1;" d="M13.7,9.1V7.7h-0.6v1.4c-0.4,0.1-0.8,0.2-1.2,0.4l0.2,0.2c0.5-0.3,1-0.5,1.6-0.7z"/>
		</g>
		<path style="&st2;" d="M9,7.1l0.4-1.4L8.6,5.5c0-0.4,0-0.7-0.1-1.1L9.2,4L8.5,2.7L7.7,3.2C7.5,2.9,7.2,2.7,6.9,2.5l0.2-0.9L5.8,1.2L5.5,2.1c-0.4,0-0.7,0-1.1,0.1L4,1.4L2.7,2.1l0.4,0.8C2.9,3.2,2.7,3.5,2.5,3.8L1.6,3.5L1.2,4.9l0.9,0.2c0,0.4,0,0.7,0.1,1.1
			L1.4,6.7l0.7,1.2l0.8-0.4C3.2,7.8,3.5,8,3.8,8.2L3.5,9l1.4,0.4l0.2-0.9c0.4,0,0.7,0,1.1-0.1l0.4,0.8l1.2-0.7L7.5,7.7C7.8,7.5,8,7.2,8.2,6.9L9,7.1z M5.1,6C4.8,5.9,4.5,5.5,4.6,5.1c0.1-0.4,0.5-0.6,0.9-0.5C5.9,4.8,6.1,5.2,6,5.5C5.9,5.9,5.5,6.1,5.1,6z"/>
		<linearGradient id="aigrd2" gradientUnits="userSpaceOnUse" x1="43.1328" y1="-46.3198" x2="46.8551" y2="-41.8464" gradientTransform="matrix(0.9625 0.2714 -0.2714 0.9625 -49.7917 35.8805)">
			<stop  offset="0" style="stop-color:#BBBBBB"/>
			<stop  offset="1" style="stop-color:#D2D2D2"/>
		</linearGradient>
		<path style="&st4;" d="M9,7.1l0.4-1.4L8.6,5.5c0-0.4,0-0.7-0.1-1.1L9.2,4L8.5,2.7L7.7,3.2C7.5,2.9,7.2,2.7,6.9,2.5l0.2-0.9L5.8,1.2L5.5,2.1c-0.4,0-0.7,0-1.1,0.1L4,1.4L2.7,2.1l0.4,0.8C2.9,3.2,2.7,3.5,2.5,3.8L1.6,3.5L1.2,4.9l0.9,0.2c0,0.4,0,0.7,0.1,1.1
			L1.4,6.7l0.7,1.2l0.8-0.4C3.2,7.8,3.5,8,3.8,8.2L3.5,9l1.4,0.4l0.2-0.9c0.4,0,0.7,0,1.1-0.1l0.4,0.8l1.2-0.7L7.5,7.7C7.8,7.5,8,7.2,8.2,6.9L9,7.1z M5.1,6C4.8,5.9,4.5,5.5,4.6,5.1c0.1-0.4,0.5-0.6,0.9-0.5C5.9,4.8,6.1,5.2,6,5.5C5.9,5.9,5.5,6.1,5.1,6z"/>
		<g style="&st5;">
			<path style="&st1;" d="M3.6,3L3.1,2.2l1-0.6L4,1.4L2.8,2.1l0.4,0.8C2.9,3.2,2.7,3.5,2.5,3.8l0.4,0.1C3.1,3.6,3.3,3.3,3.6,3z"/>
			<path style="&st1;" d="M3.3,7.6L3.2,7.7C3.4,7.9,3.6,8,3.8,8.2L3.6,9l0.4,0.1l0.2-0.9C3.9,8.1,3.6,7.9,3.3,7.6z"/>
			<path style="&st1;" d="M2.6,6.3C2.5,6,2.5,5.6,2.5,5.2L2.1,5.1c0,0.4,0,0.7,0.1,1.1L1.5,6.7l0.7,1.2l0.2-0.1l-0.6-1l0.8-0.4z"/>
			<path style="&st1;" d="M1.7,3.5L1.3,4.9L1.6,5L2,3.6L1.7,3.5z"/>
			<path style="&st1;" d="M5.9,2.2l0.2-0.9L5.8,1.2L5.5,2.1c-0.3,0-0.6,0-0.8,0.1l0.1,0.2c0.3-0.1,0.7-0.1,1.1-0.1z"/>
		</g>
	</g>
</svg>
