<?xml version="1.0" encoding="iso-8859-1"?>
<!-- Generator: Adobe Illustrator 9.0, SVG Export Plug-In  -->
<!DOCTYPE svg PUBLIC "-//W3C//DTD SVG 20000303 Stylable//EN"   "http://www.w3.org/TR/2000/03/WD-SVG-20000303/DTD/svg-20000303-stylable.dtd" [
	<!ENTITY st0 "fill:url(#aigrd1);stroke:none;">
	<!ENTITY st1 "opacity:0.27;">
	<!ENTITY st2 "fill:#FFFFFF;stroke:none;">
	<!ENTITY st3 "stroke-width:0.8827;">
	<!ENTITY st4 "fill:url(#aigrd2);stroke:none;">
	<!ENTITY st5 "fill-rule:nonzero;clip-rule:nonzero;stroke:#000000;stroke-miterlimit:4;">
	<!ENTITY st6 "stroke:none;">
]>
<svg  width="23.1px" height="22.5px" viewBox="0 0 23.1 22.5" xml:space="preserve">
	<g id="Layer_x0020_3" style="&st5;">
		<path style="&st3;" d="M1.9,0.4c-0.8,0-1.4,0.6-1.4,1.4v11.7c0,0.8,0.6,1.4,1.4,1.4h12.9c0.8,0,1.4-0.6,1.4-1.4V1.9c0-0.8-0.6-1.4-1.4-1.4H1.9z"/>
		<path style="&st2;" d="M15.4,13.5c0,0.3-0.2,0.5-0.5,0.5H1.9c-0.3,0-0.5-0.2-0.5-0.5V1.9c0-0.3,0.2-0.5,0.5-0.5h12.9c0.3,0,0.5,0.2,0.5,0.5v11.7z"/>
		<linearGradient id="aigrd1" gradientUnits="userSpaceOnUse" x1="13.1084" y1="11.9932" x2="3.8545" y2="3.6536">
			<stop  offset="0" style="stop-color:#FFFFFF"/>
			<stop  offset="1" style="stop-color:#EDEDED"/>
		</linearGradient>
		<path style="&st0;" d="M1.9,1.8c-0.1,0-0.1,0-0.1,0.1v11.7c0,0.1,0,0.1,0.1,0.1h12.9c0.1,0,0.1,0,0.1-0.1V1.9c0-0.1,0-0.1-0.1-0.1H1.9z"/>
		<g style="&st6;">
			<path style="&st1;" d="M12.9,11.3H4V9.8h8.9v1.5z"/>
			<path style="&st1;" d="M12.9,8.3H4V6.7h8.9v1.5z"/>
			<path style="&st1;" d="M12.9,5.2H4V3.6h8.9v1.5z"/>
		</g>
		<path style="&st3;" d="M8.3,7.6C7.5,7.6,6.9,8.2,6.9,9v11.7c0,0.8,0.6,1.4,1.4,1.4h12.9c0.8,0,1.4-0.6,1.4-1.4V9c0-0.8-0.6-1.4-1.4-1.4H8.3z"/>
		<path style="&st2;" d="M21.8,20.7c0,0.3-0.2,0.5-0.5,0.5H8.3c-0.3,0-0.5-0.2-0.5-0.5V9c0-0.3,0.2-0.5,0.5-0.5h12.9c0.3,0,0.5,0.2,0.5,0.5v11.7z"/>
		<linearGradient id="aigrd2" gradientUnits="userSpaceOnUse" x1="19.5254" y1="19.1143" x2="10.2715" y2="10.7747">
			<stop  offset="0" style="stop-color:#FFFFFF"/>
			<stop  offset="1" style="stop-color:#EDEDED"/>
		</linearGradient>
		<path style="&st4;" d="M8.3,8.9c-0.1,0-0.1,0-0.1,0.1v11.7c0,0.1,0,0.1,0.1,0.1h12.9c0.1,0,0.1,0,0.1-0.1V9c0-0.1,0-0.1-0.1-0.1H8.3z"/>
		<g style="&st6;">
			<path style="&st1;" d="M19.3,18.5h-8.9v-1.5h8.9v1.5z"/>
			<path style="&st1;" d="M19.3,15.4h-8.9v-1.5h8.9v1.5z"/>
			<path style="&st1;" d="M19.3,12.3h-8.9v-1.5h8.9v1.5z"/>
		</g>
	</g>
</svg>
