<?xml version="1.0" encoding="iso-8859-1"?>
<!-- Generator: Adobe Illustrator 9.0, SVG Export Plug-In  -->
<!DOCTYPE svg PUBLIC "-//W3C//DTD SVG 20000303 Stylable//EN"   "http://www.w3.org/TR/2000/03/WD-SVG-20000303/DTD/svg-20000303-stylable.dtd" [
	<!ENTITY st0 "fill:url(#aigrd1);stroke:none;">
	<!ENTITY st1 "opacity:0.45;">
	<!ENTITY st2 "fill:#FFFFFF;stroke:none;">
	<!ENTITY st3 "stroke-width:0.8568;">
	<!ENTITY st4 "fill-rule:nonzero;clip-rule:nonzero;stroke:#000000;stroke-miterlimit:4;">
	<!ENTITY st5 "stroke:none;">
]>
<svg  width="22.6px" height="21.8px" viewBox="0 0 22.6 21.8" xml:space="preserve">
	<g id="Layer_x0020_4" style="&st4;">
		<path style="&st3;" d="M1.8,0.4c-0.8,0-1.4,0.6-1.4,1.4V20c0,0.8,0.6,1.4,1.4,1.4h19c0.8,0,1.4-0.6,1.4-1.4V1.8c0-0.8-0.6-1.4-1.4-1.4h-19z"/>
		<path style="&st2;" d="M21.3,20c0,0.3-0.2,0.5-0.5,0.5h-19c-0.3,0-0.5-0.2-0.5-0.5V1.8c0-0.3,0.2-0.5,0.5-0.5h19c0.3,0,0.5,0.2,0.5,0.5V20z"/>
		<linearGradient id="aigrd1" gradientUnits="userSpaceOnUse" x1="18.4731" y1="17.354" x2="4.563" y2="4.8183">
			<stop  offset="0" style="stop-color:#FFFFFF"/>
			<stop  offset="1" style="stop-color:#EDEDED"/>
		</linearGradient>
		<path style="&st0;" d="M1.8,1.7c-0.1,0-0.1,0-0.1,0.1V20c0,0.1,0,0.1,0.1,0.1h19c0.1,0,0.1,0,0.1-0.1V1.8c0-0.1,0-0.1-0.1-0.1h-19z"/>
	</g>
	<g id="Layer_x0020_2" style="&st4;">
		<g style="&st5;">
			<path style="&st1;" d="M18.8,17.4H4.2v-1.4h14.6v1.4z"/>
			<path style="&st1;" d="M18.8,14.4H4.2V13h14.6v1.4z"/>
			<path style="&st1;" d="M18.8,11.5H4.2v-1.4h14.6v1.4z"/>
			<path style="&st1;" d="M18.8,8.6H4.2V7.2h14.6v1.4z"/>
			<path style="&st1;" d="M18.8,5.7H4.2V4.3h14.6v1.4z"/>
		</g>
	</g>
</svg>
