<?xml version="1.0" encoding="iso-8859-1"?>
<!-- Generator: Adobe Illustrator 9.0, SVG Export Plug-In  -->
<!DOCTYPE svg PUBLIC "-//W3C//DTD SVG 20000303 Stylable//EN"   "http://www.w3.org/TR/2000/03/WD-SVG-20000303/DTD/svg-20000303-stylable.dtd" [
	<!ENTITY st0 "fill:#D9D9D9;stroke-width:0.2296;">
	<!ENTITY st1 "fill:#7273A3;stroke:none;">
	<!ENTITY st2 "fill:#7273A3;stroke-width:0.2296;">
	<!ENTITY st3 "stroke-width:0.9183;">
	<!ENTITY st4 "fill-rule:nonzero;clip-rule:nonzero;stroke:#000000;stroke-miterlimit:4;">
	<!ENTITY st5 "fill:url(#aigrd1);stroke-width:0.2296;">
]>
<svg  width="22.5px" height="22.3px" viewBox="0 0 22.5 22.3" xml:space="preserve">
	<g id="Layer_x0020_3" style="&st4;">
		<path style="&st3;" d="M20.6,0.5c0.8,0,1.5,0.7,1.5,1.5v18.4c0,0.8-0.7,1.5-1.5,1.5H2.5l-2-2V1.9c0-0.8,0.7-1.5,1.5-1.5h18.6z"/>
		<path style="&st1;" d="M1.4,19.4l1.5,1.5h17.7c0.3,0,0.6-0.2,0.6-0.6V1.9c0-0.3-0.2-0.6-0.6-0.6H1.9c-0.3,0-0.6,0.2-0.6,0.6v17.5z"/>
		<linearGradient id="aigrd1" gradientUnits="userSpaceOnUse" x1="11.3491" y1="1.6685" x2="11.3491" y2="4.6102">
			<stop  offset="0" style="stop-color:#FFFFFF"/>
			<stop  offset="0.1236" style="stop-color:#E6E6E6"/>
		</linearGradient>
		<path style="&st5;" d="M19.1,10.5c0,0.3-0.2,0.5-0.5,0.5H4.2c-0.3,0-0.5-0.2-0.5-0.5V1.9c0-0.3,0.2-0.5,0.5-0.5h14.4c0.3,0,0.5,0.2,0.5,0.5v8.7z"/>
		<path style="&st0;" d="M16,20.4c0,0.3-0.3,0.6-0.7,0.6H5.4c-0.4,0-0.7-0.2-0.7-0.6v-7.3c0-0.3,0.3-0.6,0.7-0.6h9.9c0.4,0,0.7,0.2,0.7,0.6v7.3z"/>
		<path style="&st2;" d="M9.8,19c0,0.3-0.2,0.5-0.6,0.5H7.4c-0.3,0-0.6-0.2-0.6-0.5v-4.5c0-0.3,0.2-0.5,0.6-0.5h1.9c0.3,0,0.6,0.2,0.6,0.5V19z"/>
	</g>
</svg>
