<?xml version="1.0" encoding="iso-8859-1"?>
<!-- Generator: Adobe Illustrator 9.0, SVG Export Plug-In  -->
<!DOCTYPE svg PUBLIC "-//W3C//DTD SVG 20000303 Stylable//EN"   "http://www.w3.org/TR/2000/03/WD-SVG-20000303/DTD/svg-20000303-stylable.dtd" [
	<!ENTITY st0 "opacity:0.54;fill:#000000;stroke:none;">
	<!ENTITY st1 "fill:#A70F18;stroke-width:5.2005;">
	<!ENTITY st2 "fill:#000000;stroke:none;">
	<!ENTITY st3 "opacity:0.27;stroke:none;">
	<!ENTITY st4 "fill:url(#aigrd3);stroke:none;">
	<!ENTITY st5 "fill-rule:nonzero;clip-rule:nonzero;fill:#FFFFFF;stroke:#000000;stroke-miterlimit:4;">
	<!ENTITY st6 "opacity:0.65;fill:#737373;stroke:none;">
	<!ENTITY st7 "fill:url(#aigrd2);stroke:none;">
	<!ENTITY st8 "opacity:0.5;fill:url(#aigrd1);stroke:none;">
	<!ENTITY st9 "stroke:none;">
]>
<svg  width="45.2px" height="41.2px" viewBox="0 0 45.2 41.2" xml:space="preserve">
	<g id="Layer_x0020_2" style="&st5;">
		<linearGradient id="aigrd1" gradientUnits="userSpaceOnUse" x1="-74.4473" y1="-41.8911" x2="-74.4473" y2="-5.6658" gradientTransform="matrix(0.843 -0.843 0.7071 0.7071 106.9315 -27.0827)">
			<stop  offset="0" style="stop-color:#FFFFFF"/>
			<stop  offset="1" style="stop-color:#FFFFFF"/>
		</linearGradient>
		<path style="&st8;" d="M26.8,4c3.3,3.3-11,17.7-14.3,14.3C9.1,15,9.7,9.1,13.6,5.1c4-4,9.9-4.5,13.2-1.2z"/>
		<path style="&st1;" d="M42.2,8.1L25.4,36.9c-0.7,1.1-1.9,1.8-3.2,1.8c-1.3,0-2.5-0.7-3.2-1.9L3,8.1C2.4,6.9,2.4,5.5,3,4.4c0.7-1.1,1.9-1.8,3.2-1.8H39c1.3,0,2.5,0.7,3.2,1.8c0.7,1.1,0.7,2.5,0,3.7z"/>
		<linearGradient id="aigrd2" gradientUnits="userSpaceOnUse" x1="16.458" y1="-0.4199" x2="35.5086" y2="27.8839">
			<stop  offset="0" style="stop-color:#CE1209"/>
			<stop  offset="1" style="stop-color:#850E05"/>
		</linearGradient>
		<path style="&st7;" d="M42.2,8.1L25.4,36.9c-0.7,1.1-1.9,1.8-3.2,1.8c-1.3,0-2.5-0.7-3.2-1.9L3,8.1C2.4,6.9,2.4,5.5,3,4.4c0.7-1.1,1.9-1.8,3.2-1.8H39c1.3,0,2.5,0.7,3.2,1.8c0.7,1.1,0.7,2.5,0,3.7z"/>
		<linearGradient id="aigrd3" gradientUnits="userSpaceOnUse" x1="21.2954" y1="5.9556" x2="32.5623" y2="24.7953">
			<stop  offset="0" style="stop-color:#FFFFFF"/>
			<stop  offset="1" style="stop-color:#BFBFBF"/>
		</linearGradient>
		<path style="&st4;" d="M22.5,33.8L7.8,7.6h29.9L22.5,33.8z"/>
		<path style="&st6;" d="M22.7,34.4L7.9,7.6l29.7-0.1L9.8,8.9l13,25.5z"/>
		<path style="&st9;" d="M22.4,33.7L37.6,7.7l-1.1,0L22.4,33.7z"/>
		<path style="&st0;" d="M42.3,4.4c-0.3-0.5-0.7-1-1.2-1.3c0.1,0.1,0.2,0.3,0.3,0.4c0.7,1.1,0.6,2.5,0,3.7L24.6,36c-0.7,1.1-1.9,1.8-3.2,1.8c-0.7,0-1.4-0.2-1.9-0.6c0.7,0.9,1.7,1.4,2.9,1.4c1.3,0,2.5-0.7,3.2-1.8L42.3,8.1c0.7-1.1,0.7-2.5,0-3.7z"/>
		<path style="&st3;" d="M19.9,37.7L3.9,8.9c-0.6-1.1-0.6-2.5,0-3.6s1.9-1.8,3.2-1.8h32.8c0.7,0,1.4,0.2,2,0.6c-0.7-0.9-1.8-1.4-2.9-1.4H6.1C4.8,2.6,3.6,3.3,3,4.4c-0.7,1.1-0.7,2.5,0,3.6L19,36.8c0.3,0.5,0.7,1,1.3,1.3c-0.1-0.1-0.2-0.3-0.3-0.4z"/>
		<g>
			<path style="&st2;" d="M21,22.2l-0.1-0.6c0-1.3,0.3-2.6,1.5-3.9c0.8-0.9,1.4-1.8,1.4-2.6s-0.6-1.4-1.8-1.5c-0.8,0-1.8,0.3-2.5,0.7l-0.8-2.7c0.9-0.5,2.4-1,4.2-1c3.3,0,4.8,1.8,4.8,3.9c0,1.9-1.2,3.1-2.1,4.2c-0.9,1-1.3,2-1.3,3.1v0.4H21z M22.5,28
				c-1.3,0-2.2-1-2.2-2.3c0-1.3,0.9-2.3,2.2-2.3c1.3,0,2.2,0.9,2.2,2.3c0,1.3-0.9,2.3-2.2,2.3h0z"/>
		</g>
	</g>
</svg>
