<?xml version="1.0" encoding="iso-8859-1"?>
<!-- Generator: Adobe Illustrator 9.0, SVG Export Plug-In  -->
<!DOCTYPE svg PUBLIC "-//W3C//DTD SVG 20000303 Stylable//EN"   "http://www.w3.org/TR/2000/03/WD-SVG-20000303/DTD/svg-20000303-stylable.dtd" [
	<!ENTITY st0 "fill-rule:evenodd;clip-rule:evenodd;fill:url(#aigrd1);stroke:none;">
	<!ENTITY st1 "fill-rule:evenodd;clip-rule:evenodd;stroke-width:2.8912;">
	<!ENTITY st2 "fill-rule:nonzero;clip-rule:nonzero;stroke:#000000;stroke-miterlimit:4;">
]>
<svg  width="19.9px" height="19.9px" viewBox="0 0 19.9 19.9" xml:space="preserve">
	<g id="Layer_x0020_3" style="&st2;">
		<path style="&st1;" d="M13.9,10l3.9-3.9c1.1-1.1,1.1-2.8,0-3.9c-1.1-1.1-2.8-1.1-3.9,0L10,6L6.1,2.1C5,1.1,3.2,1.1,2.1,2.1C1.1,3.2,1.1,5,2.1,6.1L6,10l-3.9,3.9c-1.1,1.1-1.1,2.8,0,3.9c1.1,1.1,2.8,1.1,3.9,0l3.9-3.9l3.9,3.9c1.1,1.1,2.8,1.1,3.9,0
			c1.1-1.1,1.1-2.8,0-3.9L13.9,10z"/>
		<radialGradient id="aigrd1" cx="1.2129" cy="-1.0879" r="43.9955" fx="1.2129" fy="-1.0879" gradientUnits="userSpaceOnUse">
			<stop  offset="0" style="stop-color:#FED182"/>
			<stop  offset="0.2809" style="stop-color:#FFB310"/>
			<stop  offset="1" style="stop-color:#996E04"/>
		</radialGradient>
		<path style="&st0;" d="M13.9,10l3.9-3.9c1.1-1.1,1.1-2.8,0-3.9c-1.1-1.1-2.8-1.1-3.9,0L10,6L6.1,2.1C5,1.1,3.2,1.1,2.1,2.1C1.1,3.2,1.1,5,2.1,6.1L6,10l-3.9,3.9c-1.1,1.1-1.1,2.8,0,3.9c1.1,1.1,2.8,1.1,3.9,0l3.9-3.9l3.9,3.9c1.1,1.1,2.8,1.1,3.9,0
			c1.1-1.1,1.1-2.8,0-3.9L13.9,10z"/>
	</g>
</svg>
