<?xml version="1.0" encoding="iso-8859-1"?>
<!-- Generator: Adobe Illustrator 9.0, SVG Export Plug-In  -->
<!DOCTYPE svg PUBLIC "-//W3C//DTD SVG 20000303 Stylable//EN"   "http://www.w3.org/TR/2000/03/WD-SVG-20000303/DTD/svg-20000303-stylable.dtd" [
	<!ENTITY st0 "fill-rule:evenodd;clip-rule:evenodd;fill:url(#aigrd1);stroke:none;">
	<!ENTITY st1 "stroke-width:0.8874;">
	<!ENTITY st2 "fill-rule:evenodd;clip-rule:evenodd;fill:#FFFFFF;stroke:none;">
	<!ENTITY st3 "fill-rule:evenodd;clip-rule:evenodd;fill:url(#aigrd2);stroke:none;">
	<!ENTITY st4 "fill-rule:evenodd;clip-rule:evenodd;stroke:none;">
	<!ENTITY st5 "fill-rule:nonzero;clip-rule:nonzero;stroke:#000000;stroke-miterlimit:4;">
]>
<svg  width="23.3px" height="23.3px" viewBox="0 0 23.3 23.3" xml:space="preserve">
	<g id="Layer_x0020_2" style="&st5;">
		<path style="&st1;" d="M0.4,11.6c0,6.2,5,11.2,11.2,11.2c6.2,0,11.2-5,11.2-11.2c0-6.2-5-11.2-11.2-11.2c-6.2,0-11.2,5-11.2,11.2z"/>
		<radialGradient id="aigrd1" cx="8.3462" cy="7.4985" r="13.9523" fx="8.3462" fy="7.4985" gradientUnits="userSpaceOnUse">
			<stop  offset="0" style="stop-color:#FED182"/>
			<stop  offset="0.2809" style="stop-color:#FFB310"/>
			<stop  offset="1" style="stop-color:#996E04"/>
		</radialGradient>
		<path style="&st0;" d="M21.1,11.5c0,5.3-4.3,9.6-9.6,9.6c-5.3,0-9.6-4.3-9.6-9.6C2,6.3,6.3,2,11.5,2c5.3,0,9.6,4.3,9.6,9.6z"/>
	</g>
	<g id="Layer_x0020_3" style="&st5;">
		<path style="&st4;" d="M16.1,6.7c-0.5,0.1-0.9,0.3-1.2,0.7c0,0-3,4.2-4.1,5.6c-0.9-0.9-2.5-2.5-2.5-2.5C7.8,10,7.4,9.9,6.9,9.9C6.4,9.9,6,10,5.6,10.4c-0.7,0.7-0.7,1.8,0,2.5l3.9,3.9c0.4,0.4,0.9,0.5,1.4,0.5c0.5,0,1-0.3,1.3-0.7l5.4-7.1c0.6-0.8,0.5-1.9-0.3-2.5
			c-0.4-0.3-0.8-0.4-1.3-0.4z"/>
		<path style="&st2;" d="M16.2,6.9c-0.5,0.1-0.9,0.3-1.2,0.7c0,0-3,4.2-4.1,5.6c-0.9-0.9-2.5-2.5-2.5-2.5C8,10.2,7.6,10,7.1,10c-0.5,0-0.9,0.2-1.3,0.5c-0.7,0.7-0.7,1.8,0,2.5L9.8,17c0.4,0.4,0.9,0.5,1.4,0.5c0.5,0,1-0.3,1.3-0.7l5.4-7.1c0.6-0.8,0.5-1.9-0.3-2.5
			c-0.4-0.3-0.8-0.4-1.3-0.4z"/>
		<radialGradient id="aigrd2" cx="8.2959" cy="8.1221" r="11.0872" fx="8.2959" fy="8.1221" gradientUnits="userSpaceOnUse">
			<stop  offset="0" style="stop-color:#FFFFFF"/>
			<stop  offset="1" style="stop-color:#F0E1BD"/>
		</radialGradient>
		<path style="&st3;" d="M16.1,6.8c-0.5,0.1-0.9,0.3-1.2,0.7c0,0-3,4.2-4.1,5.6c-0.9-0.9-2.5-2.5-2.5-2.5C7.9,10.1,7.5,9.9,7,9.9c-0.5,0-0.9,0.2-1.3,0.5C5,11.2,5,12.3,5.7,13l3.9,3.9c0.4,0.4,0.9,0.5,1.4,0.5c0.5,0,1-0.3,1.3-0.7l5.4-7.1c0.6-0.8,0.5-1.9-0.3-2.5
			c-0.4-0.3-0.8-0.4-1.3-0.4z"/>
	</g>
	<g id="Layer_x0020_4" style="&st5;">
	</g>
</svg>
