<?xml version="1.0" encoding="iso-8859-1"?>
<!-- Generator: Adobe Illustrator 9.0, SVG Export Plug-In  -->
<!DOCTYPE svg PUBLIC "-//W3C//DTD SVG 20000303 Stylable//EN"   "http://www.w3.org/TR/2000/03/WD-SVG-20000303/DTD/svg-20000303-stylable.dtd" [
	<!ENTITY st0 "opacity:0.5;fill:#FFFFFF;">
	<!ENTITY st1 "fill:#F6F623;">
	<!ENTITY st2 "opacity:6.000000e-002;">
	<!ENTITY st3 "fill:none;stroke:#000000;stroke-width:2.5944;stroke-linecap:round;stroke-linejoin:round;">
	<!ENTITY st4 "fill-rule:nonzero;clip-rule:nonzero;stroke:#000000;stroke-miterlimit:4;">
	<!ENTITY st5 "stroke:none;">
]>
<svg  width="23.3px" height="22px" viewBox="0 0 23.3 22" xml:space="preserve">
	<g id="Layer_x0020_4" style="&st4;">
	</g>
	<g id="Layer_x0020_5" style="&st4;">
		<g style="&st5;">
			<path style="&st3;" d="M5.8,1.3l1.4,2.8l3.1,0.5L8.1,6.8l0.5,3.1L5.8,8.4L3,9.9l0.5-3.1L1.3,4.6l3.1-0.5l1.4-2.8z"/>
			<path style="&st1;" d="M5.8,1.3l1.4,2.8l3.1,0.5L8.1,6.8l0.5,3.1L5.8,8.4L3,9.9l0.5-3.1L1.3,4.6l3.1-0.5l1.4-2.8z"/>
			<path style="&st0;" d="M5.8,1.3v4.3L4.4,4.1l1.4-2.8z"/>
			<path style="&st2;" d="M5.8,1.3v4.3l1.4-1.5L5.8,1.3z"/>
			<path style="&st2;" d="M3,9.9l2.8-4.3v2.8L3,9.9z"/>
			<path style="&st2;" d="M8.1,6.8L5.8,5.6l4.5-1L8.1,6.8z"/>
			<path style="&st0;" d="M8.6,9.9L5.8,5.6v2.8l2.8,1.5z"/>
			<path style="&st0;" d="M3,9.9l2.8-4.3L3.6,6.8L3,9.9z"/>
			<path style="&st2;" d="M1.3,4.6l2.3,2.2l2.3-1.2l-4.5-1z"/>
		</g>
		<g style="&st5;">
			<path style="&st3;" d="M5.9,12.1l1.4,2.8l3.1,0.5l-2.3,2.2l0.5,3.1l-2.8-1.5l-2.8,1.5l0.5-3.1l-2.3-2.2l3.1-0.5l1.4-2.8z"/>
			<path style="&st1;" d="M5.9,12.1l1.4,2.8l3.1,0.5l-2.3,2.2l0.5,3.1l-2.8-1.5l-2.8,1.5l0.5-3.1l-2.3-2.2l3.1-0.5l1.4-2.8z"/>
			<path style="&st0;" d="M5.9,12.1v4.3l-1.4-1.5l1.4-2.8z"/>
			<path style="&st2;" d="M5.9,12.1v4.3l1.4-1.5l-1.4-2.8z"/>
			<path style="&st2;" d="M3.1,20.7l2.8-4.3v2.8l-2.8,1.5z"/>
			<path style="&st2;" d="M8.1,17.6l-2.3-1.2l4.5-1l-2.3,2.2z"/>
			<path style="&st0;" d="M8.7,20.7l-2.8-4.3v2.8l2.8,1.5z"/>
			<path style="&st0;" d="M3.1,20.7l2.8-4.3l-2.3,1.2l-0.5,3.1z"/>
			<path style="&st2;" d="M1.4,15.4l2.3,2.2l2.3-1.2l-4.5-1z"/>
		</g>
		<g style="&st5;">
			<path style="&st3;" d="M17.5,12.1l1.4,2.8l3.1,0.5l-2.3,2.2l0.5,3.1l-2.8-1.5l-2.8,1.5l0.5-3.1L13,15.4l3.1-0.5l1.4-2.8z"/>
			<path style="&st1;" d="M17.5,12.1l1.4,2.8l3.1,0.5l-2.3,2.2l0.5,3.1l-2.8-1.5l-2.8,1.5l0.5-3.1L13,15.4l3.1-0.5l1.4-2.8z"/>
			<path style="&st0;" d="M17.5,12.1v4.3l-1.4-1.5l1.4-2.8z"/>
			<path style="&st2;" d="M17.5,12.1v4.3l1.4-1.5l-1.4-2.8z"/>
			<path style="&st2;" d="M14.8,20.7l2.8-4.3v2.8l-2.8,1.5z"/>
			<path style="&st2;" d="M19.8,17.6l-2.3-1.2l4.5-1l-2.3,2.2z"/>
			<path style="&st0;" d="M20.3,20.7l-2.8-4.3v2.8l2.8,1.5z"/>
			<path style="&st0;" d="M14.8,20.7l2.8-4.3l-2.3,1.2l-0.5,3.1z"/>
			<path style="&st2;" d="M13,15.4l2.3,2.2l2.3-1.2l-4.5-1z"/>
		</g>
		<g style="&st5;">
			<path style="&st3;" d="M17.5,1.3l1.4,2.8L22,4.6l-2.3,2.2l0.5,3.1l-2.8-1.5l-2.8,1.5l0.5-3.1L13,4.6l3.1-0.5l1.4-2.8z"/>
			<path style="&st1;" d="M17.5,1.3l1.4,2.8L22,4.6l-2.3,2.2l0.5,3.1l-2.8-1.5l-2.8,1.5l0.5-3.1L13,4.6l3.1-0.5l1.4-2.8z"/>
			<path style="&st0;" d="M17.5,1.3v4.3l-1.4-1.5l1.4-2.8z"/>
			<path style="&st2;" d="M17.5,1.3v4.3l1.4-1.5l-1.4-2.8z"/>
			<path style="&st2;" d="M14.8,9.9l2.8-4.3v2.8l-2.8,1.5z"/>
			<path style="&st2;" d="M19.8,6.8l-2.3-1.2l4.5-1l-2.3,2.2z"/>
			<path style="&st0;" d="M20.3,9.9l-2.8-4.3v2.8l2.8,1.5z"/>
			<path style="&st0;" d="M14.8,9.9l2.8-4.3l-2.3,1.2l-0.5,3.1z"/>
			<path style="&st2;" d="M13,4.6l2.3,2.2l2.3-1.2l-4.5-1z"/>
		</g>
	</g>
</svg>
