<?xml version="1.0" encoding="iso-8859-1"?>
<!-- Generator: Adobe Illustrator 9.0, SVG Export Plug-In  -->
<!DOCTYPE svg PUBLIC "-//W3C//DTD SVG 20000303 Stylable//EN"   "http://www.w3.org/TR/2000/03/WD-SVG-20000303/DTD/svg-20000303-stylable.dtd" [
	<!ENTITY st0 "fill:url(#aigrd1);stroke:none;">
	<!ENTITY st1 "fill:#000000;stroke:none;">
	<!ENTITY st2 "fill:url(#aigrd3);stroke:none;">
	<!ENTITY st3 "fill-rule:nonzero;clip-rule:nonzero;fill:#FFFFFF;stroke:#000000;stroke-miterlimit:4;">
	<!ENTITY st4 "fill:url(#aigrd2);stroke:none;">
	<!ENTITY st5 "fill:#BEBEBE;stroke:none;">
	<!ENTITY st6 "fill-rule:nonzero;clip-rule:nonzero;stroke:#000000;stroke-miterlimit:4;">
	<!ENTITY st7 "stroke:none;">
	<!ENTITY st8 "fill:url(#aigrd4);stroke:none;">
]>
<svg  width="24.1px" height="26.2px" viewBox="0 0 24.1 26.2" xml:space="preserve">
	<g id="Layer_x0020_1" style="&st3;">
		<path style="&st1;" d="M3.3,0C1.5,0,0,1.5,0,3.3v19.6c0,1.8,1.5,3.3,3.3,3.3h17.5c1.8,0,3.3-1.5,3.3-3.3V3.3c0-1.8-1.5-3.3-3.3-3.3H3.3z"/>
		<linearGradient id="aigrd1" gradientUnits="userSpaceOnUse" x1="5.9683" y1="2.8013" x2="18.1003" y2="23.8766">
			<stop  offset="0" style="stop-color:#F0F0F0"/>
			<stop  offset="1" style="stop-color:#D6D6D6"/>
		</linearGradient>
		<path style="&st0;" d="M22.4,22.9c0,1-0.8,1.8-1.8,1.8H3.2c-1,0-1.8-0.8-1.8-1.8V3.3c0-1,0.8-1.8,1.8-1.8h17.5c1,0,1.8,0.8,1.8,1.8v19.6z"/>
		<g>
			<radialGradient id="aigrd2" cx="3.1504" cy="17.2764" r="0.7938" fx="3.1504" fy="17.2764" gradientUnits="userSpaceOnUse">
				<stop  offset="0" style="stop-color:#F0F0F0"/>
				<stop  offset="1" style="stop-color:#474747"/>
			</radialGradient>
			<path style="&st4;" d="M3.5,17.1c0,0.3-0.2,0.5-0.5,0.5c-0.3,0-0.5-0.2-0.5-0.5s0.2-0.5,0.5-0.5c0.3,0,0.5,0.2,0.5,0.5z"/>
			<radialGradient id="aigrd3" cx="3.1504" cy="9.7368" r="0.7934" fx="3.1504" fy="9.7368" gradientUnits="userSpaceOnUse">
				<stop  offset="0" style="stop-color:#F0F0F0"/>
				<stop  offset="1" style="stop-color:#474747"/>
			</radialGradient>
			<path style="&st2;" d="M3.5,9.5C3.5,9.8,3.3,10,3,10c-0.3,0-0.5-0.2-0.5-0.5C2.5,9.2,2.7,9,3,9c0.3,0,0.5,0.2,0.5,0.5z"/>
		</g>
		<path style="&st7;" d="M4.8,24.7H4.5V1.9h0.2v22.8z"/>
		<linearGradient id="aigrd4" gradientUnits="userSpaceOnUse" x1="4.5469" y1="2.5396" x2="4.2778" y2="23.8616">
			<stop  offset="0" style="stop-color:#EDEDED"/>
			<stop  offset="1" style="stop-color:#CACACA"/>
		</linearGradient>
		<path style="&st8;" d="M4.5,24.7H4.3V1.9h0.2v22.8z"/>
		<path style="&st7;" d="M2.2,3.9L1.8,24c-0.3-0.3-0.4-0.9-0.4-0.9l0-19.9c0,0,0-0.5,0.4-1.1c0.5-0.6,1.3-0.6,1.3-0.6l17.8,0L3.8,2.4c-0.7,0-1.1,0.3-1.2,0.5C2.4,3,2.2,3.5,2.2,3.9z"/>
		<path style="&st5;" d="M21.7,22.3l0.4-20.1c0.3,0.3,0.4,0.9,0.4,0.9l0,19.9c0,0,0,0.5-0.4,1.1c-0.5,0.6-1.3,0.6-1.3,0.6L3,24.7l17.1-0.8c0.7,0,1.1-0.3,1.2-0.5c0.1-0.1,0.4-0.6,0.4-1.1z"/>
	</g>
	<g id="Layer_x0020_2" style="&st6;">
	</g>
</svg>
