<?xml version="1.0" encoding="iso-8859-1"?>
<!-- Generator: Adobe Illustrator 9.0, SVG Export Plug-In  -->
<!DOCTYPE svg PUBLIC "-//W3C//DTD SVG 20000303 Stylable//EN"   "http://www.w3.org/TR/2000/03/WD-SVG-20000303/DTD/svg-20000303-stylable.dtd" [
	<!ENTITY st0 "fill:url(#aigrd1);stroke:none;">
	<!ENTITY st1 "fill:#000000;stroke:none;">
	<!ENTITY st2 "opacity:0.54;stroke-width:0.9015;">
	<!ENTITY st3 "opacity:0.47;fill:url(#aigrd6);stroke:none;">
	<!ENTITY st4 "fill:url(#aigrd3);stroke:none;">
	<!ENTITY st5 "fill:#000000;stroke:#000000;stroke-width:0.9015;stroke-linecap:butt;">
	<!ENTITY st6 "fill:#C8AF53;stroke:none;">
	<!ENTITY st7 "fill:#96833E;stroke:none;">
	<!ENTITY st8 "fill:#919191;stroke:none;">
	<!ENTITY st9 "opacity:0.5;">
	<!ENTITY st10 "fill:url(#aigrd5);stroke:none;">
	<!ENTITY st11 "fill-rule:nonzero;clip-rule:nonzero;fill:none;stroke:#FFFFFF;stroke-width:0.4508;stroke-linecap:round;stroke-miterlimit:4;">
	<!ENTITY st12 "fill:url(#aigrd2);stroke:none;">
	<!ENTITY st13 "stroke:#000000;stroke-width:1.8031;stroke-linejoin:round;">
	<!ENTITY st14 "fill:#F7E46E;stroke:none;">
	<!ENTITY st15 "fill:url(#aigrd4);stroke:none;">
]>
<svg  width="23.6px" height="22.6px" viewBox="0 0 23.6 22.6" xml:space="preserve">
	<g id="Layer_x0020_2" style="&st11;">
		<path style="&st5;" d="M3.7,0.6C2.9,0.6,2.3,1.2,2.3,2v18.9c0,0.7,0.5,1.2,1.3,1.2h16.2c0.7,0,1.2-0.6,1.2-1.2v-16c0-0.6-0.2-1-0.5-1.4l-2.2-2.2c-0.4-0.4-1-0.7-1.7-0.7H3.7z"/>
		<linearGradient id="aigrd1" gradientUnits="userSpaceOnUse" x1="18.1484" y1="19.3003" x2="3.9378" y2="4.7543">
			<stop  offset="0" style="stop-color:#E4E4E4"/>
			<stop  offset="1" style="stop-color:#FEFEFE"/>
		</linearGradient>
		<path style="&st0;" d="M16.6,1.5H3.7C3.3,1.5,3.1,1.7,3.1,2v18.9c0,0.2,0.1,0.4,0.5,0.4h16.2c0.2,0,0.4-0.2,0.4-0.4v-16c0-0.4-0.1-0.6-0.3-0.8l-2.2-2.2c-0.3-0.3-0.7-0.4-1.1-0.4z"/>
		<linearGradient id="aigrd2" gradientUnits="userSpaceOnUse" x1="3.7222" y1="4.4761" x2="18.0906" y2="19.2166">
			<stop  offset="0" style="stop-color:#E4E4E4"/>
			<stop  offset="1" style="stop-color:#FEFEFE"/>
		</linearGradient>
		<path style="&st12;" d="M4,2.3C4,3.8,4,19,4,20.5c1.5,0,13.9,0,15.4,0c0-1.5,0-15.1,0-15.7c-0.4-0.4-2.1-2.1-2.5-2.5c-0.6,0-11.5,0-12.9,0z"/>
		<path style="&st13;" d="M9.3,20.3l2.9-5.5l7.9-5.9L21.4,9l1.4,1.4l-0.1,1.4L15.1,18l-5.8,2.3z"/>
		<linearGradient id="aigrd3" gradientUnits="userSpaceOnUse" x1="162.5039" y1="-7.4697" x2="166.6796" y2="-10.7016" gradientTransform="matrix(0 -1 1 0 24.6431 179.3286)">
			<stop  offset="0" style="stop-color:#EFF0CE"/>
			<stop  offset="0.5" style="stop-color:#FFFFFF"/>
			<stop  offset="1" style="stop-color:#EFF0CE"/>
		</linearGradient>
		<path style="&st4;" d="M9.3,20.3l2.9-5.5l7.9-5.9L21.4,9l1.4,1.4l-0.1,1.4L15.1,18l-5.8,2.3z"/>
		<path style="&st7;" d="M15.6,16.1l7.2-5.7l-0.1,1.4L15.1,18l0.5-1.9z"/>
		<path style="&st6;" d="M14.1,14.6L21.4,9l1.4,1.4l-7.2,5.7l-1.5-1.5z"/>
		<path style="&st14;" d="M12.2,14.8l7.9-5.9L21.4,9l-7.3,5.6l-1.9,0.2z"/>
		<linearGradient id="aigrd4" gradientUnits="userSpaceOnUse" x1="159.585" y1="-14.0044" x2="160.4429" y2="-14.5478" gradientTransform="matrix(0 -1 1 0 24.6431 179.3286)">
			<stop  offset="0" style="stop-color:#000000"/>
			<stop  offset="0.5" style="stop-color:#616061"/>
			<stop  offset="1" style="stop-color:#000000"/>
		</linearGradient>
		<path style="&st15;" d="M10.6,17.8c0.9,0,1.4,0.5,1.4,1.4l-2.7,1.1l1.3-2.5z"/>
		<path style="&st1;" d="M9.2,0C6,0,3.4,2.6,3.4,5.8c0,1,0.2,1.9,0.7,2.7C4,8.6,3.8,8.7,3.7,8.8L0.5,12C0.2,12.4,0,12.8,0,13.3c0,0.5,0.2,0.9,0.5,1.3c0.7,0.7,1.8,0.7,2.5,0l3.2-3.2c0.1-0.1,0.2-0.3,0.3-0.4c0.8,0.4,1.8,0.7,2.7,0.7c3.2,0,5.8-2.6,5.8-5.8
			c0-3.2-2.6-5.8-5.8-5.8z M9.2,8.9c-1.7,0-3-1.4-3-3s1.4-3,3-3c1.7,0,3,1.4,3,3s-1.4,3-3,3z"/>
		<path style="&st8;" d="M1,14.1c0.4,0.4,1.1,0.4,1.5,0l3.2-3.2C6,10.6,6.1,10.1,6,9.8c0.9,0.7,2,1.2,3.2,1.2c2.8,0,5.1-2.3,5.1-5.1c0-2.8-2.3-5.1-5.1-5.1C6.4,0.7,4.1,3,4.1,5.8c0,1.2,0.4,2.4,1.2,3.3C4.9,9,4.5,9.1,4.2,9.4L1,12.5c-0.4,0.4-0.4,1.1,0,1.5z
			 M5.5,5.8c0-2.1,1.7-3.8,3.8-3.8c2.1,0,3.7,1.7,3.7,3.8s-1.7,3.7-3.7,3.7c-2.1,0-3.8-1.7-3.8-3.7z"/>
		<linearGradient id="aigrd5" gradientUnits="userSpaceOnUse" x1="-5.6182" y1="10.9497" x2="-7.1392" y2="12.4707" gradientTransform="matrix(-1 0 0 1 -2.9922 0)">
			<stop  offset="0" style="stop-color:#304A2F"/>
			<stop  offset="0.3315" style="stop-color:#6FAB6C"/>
			<stop  offset="1" style="stop-color:#304A2F"/>
		</linearGradient>
		<path style="&st10;" d="M4.2,9.4l1.5,1.5l-3.2,3.2L1,12.5l3.2-3.2z"/>
		<path style="&st2;" d="M4.7,9.8l-3.1,3.1"/>
		<path style="&st9;" d="M9.2,1C6.6,1,4.4,3.1,4.4,5.7"/>
		<path style="&st9;" d="M9.2,9.9c2.3,0,4.2-1.9,4.2-4.2"/>
		<radialGradient id="aigrd6" cx="-11.0459" cy="4.9116" r="4.4329" fx="-11.0459" fy="4.9116" gradientTransform="matrix(-1 0 0 1 -2.9922 0)" gradientUnits="userSpaceOnUse">
			<stop  offset="0" style="stop-color:#FFFFFF"/>
			<stop  offset="1.256170e-002" style="stop-color:#F5F3F8"/>
			<stop  offset="7.182755e-002" style="stop-color:#C7C4D9"/>
			<stop  offset="0.1357" style="stop-color:#A19FC1"/>
			<stop  offset="0.2033" style="stop-color:#8182AF"/>
			<stop  offset="0.2758" style="stop-color:#696CA2"/>
			<stop  offset="0.355" style="stop-color:#555C99"/>
			<stop  offset="0.4444" style="stop-color:#495193"/>
			<stop  offset="0.5524" style="stop-color:#424C8F"/>
			<stop  offset="0.7303" style="stop-color:#3F4A8E"/>
			<stop  offset="0.8388" style="stop-color:#3A4A92"/>
			<stop  offset="0.997" style="stop-color:#2C499E"/>
			<stop  offset="1" style="stop-color:#2C499E"/>
		</radialGradient>
		<path style="&st3;" d="M6.2,5.8c0,1.7,1.4,3.1,3.1,3.1c1.7,0,3.1-1.4,3.1-3.1c0-1.7-1.4-3.1-3.1-3.1c-1.7,0-3.1,1.4-3.1,3.1z"/>
	</g>
</svg>
