<?xml version="1.0" encoding="iso-8859-1"?>
<!-- Generator: Adobe Illustrator 9.0, SVG Export Plug-In  -->
<!DOCTYPE svg PUBLIC "-//W3C//DTD SVG 20000303 Stylable//EN"   "http://www.w3.org/TR/2000/03/WD-SVG-20000303/DTD/svg-20000303-stylable.dtd" [
	<!ENTITY st0 "fill:none;stroke:#FFFFFF;stroke-width:1.1287;stroke-linecap:round;stroke-linejoin:round;">
	<!ENTITY st1 "fill:url(#aigrd1);stroke:none;">
	<!ENTITY st2 "fill:url(#aigrd11);stroke:none;">
	<!ENTITY st3 "fill:url(#aigrd9);stroke:none;">
	<!ENTITY st4 "fill:url(#aigrd2);stroke-width:5.4335;">
	<!ENTITY st5 "opacity:0.36;fill:#F7FAE2;stroke:none;">
	<!ENTITY st6 "opacity:0.5;fill:url(#aigrd12);stroke:none;">
	<!ENTITY st7 "fill:url(#aigrd1);stroke-width:5.4335;">
	<!ENTITY st8 "fill-rule:nonzero;clip-rule:nonzero;fill:#FFFFFF;stroke:#000000;stroke-miterlimit:4;">
	<!ENTITY st9 "fill:url(#aigrd10);stroke:none;">
	<!ENTITY st10 "fill:url(#aigrd8);stroke:none;">
	<!ENTITY st11 "fill:url(#aigrd5);stroke-width:5.4335;">
	<!ENTITY st12 "opacity:0.81;stroke:none;">
	<!ENTITY st13 "opacity:0.46;fill:#000000;stroke:none;">
	<!ENTITY st14 "fill:url(#aigrd4);stroke-width:5.4335;">
	<!ENTITY st15 "fill-rule:nonzero;clip-rule:nonzero;stroke:#000000;stroke-miterlimit:4;">
	<!ENTITY st16 "fill:url(#aigrd7);stroke:none;">
	<!ENTITY st17 "stroke:none;">
	<!ENTITY st18 "fill:url(#aigrd3);stroke-width:5.4335;">
]>
<svg  width="35.2px" height="45.5px" viewBox="0 0 35.2 45.5" xml:space="preserve">
	<g id="Layer_x0020_4" style="&st8;">
		<linearGradient id="aigrd1" gradientUnits="userSpaceOnUse" x1="16.6909" y1="42.2559" x2="20.0454" y2="42.2559">
			<stop  offset="5.618000e-003" style="stop-color:#686868"/>
			<stop  offset="3.012137e-002" style="stop-color:#777777"/>
			<stop  offset="8.366583e-002" style="stop-color:#929292"/>
			<stop  offset="0.1422" style="stop-color:#A7A7A7"/>
			<stop  offset="0.2074" style="stop-color:#B6B6B6"/>
			<stop  offset="0.2846" style="stop-color:#BEBEBE"/>
			<stop  offset="0.4045" style="stop-color:#C1C1C1"/>
			<stop  offset="0.4962" style="stop-color:#BCBCBC"/>
			<stop  offset="0.6057" style="stop-color:#ADADAD"/>
			<stop  offset="0.7245" style="stop-color:#959595"/>
			<stop  offset="0.8497" style="stop-color:#747474"/>
			<stop  offset="0.9789" style="stop-color:#494949"/>
			<stop  offset="1" style="stop-color:#414141"/>
		</linearGradient>
		<path style="&st7;" d="M16.7,41v0.9c0,0.9,0.8,1.7,1.7,1.7s1.7-0.8,1.7-1.7V41h-3.4z"/>
		<radialGradient id="aigrd2" cx="11.4004" cy="10.5781" r="22.7093" fx="11.4004" fy="10.5781" gradientUnits="userSpaceOnUse">
			<stop  offset="0" style="stop-color:#FFFFFF"/>
			<stop  offset="1" style="stop-color:#C2B9DA"/>
		</radialGradient>
		<path style="&st4;" d="M17.6,2.7C9.4,2.7,2.7,9.4,2.7,17.6c0,8.2,6.7,14.9,14.9,14.9c8.2,0,14.9-6.7,14.9-14.9c0-8.2-6.7-14.9-14.9-14.9z"/>
		<linearGradient id="aigrd3" gradientUnits="userSpaceOnUse" x1="12.562" y1="39.5869" x2="23.7368" y2="39.5869">
			<stop  offset="5.618000e-003" style="stop-color:#C7C7C7"/>
			<stop  offset="2.916075e-002" style="stop-color:#D0D0D0"/>
			<stop  offset="9.728914e-002" style="stop-color:#E5E5E5"/>
			<stop  offset="0.1736" style="stop-color:#F4F4F4"/>
			<stop  offset="0.2641" style="stop-color:#FCFCFC"/>
			<stop  offset="0.4045" style="stop-color:#FFFFFF"/>
			<stop  offset="0.4996" style="stop-color:#FAFAFA"/>
			<stop  offset="0.6134" style="stop-color:#EBEBEB"/>
			<stop  offset="0.7366" style="stop-color:#D3D3D3"/>
			<stop  offset="0.8666" style="stop-color:#B2B2B2"/>
			<stop  offset="1" style="stop-color:#878787"/>
		</linearGradient>
		<path style="&st18;" d="M21.9,37.5L14,38.3c-0.9,0.1-1.6,0.9-1.5,1.8c0.1,0.9,0.9,1.6,1.8,1.5l7.8-0.9c0.9-0.1,1.6-0.9,1.5-1.8c-0.1-0.9-0.9-1.6-1.8-1.5z"/>
		<linearGradient id="aigrd4" gradientUnits="userSpaceOnUse" x1="7.6221" y1="37.3584" x2="26.1473" y2="35.5252">
			<stop  offset="5.618000e-003" style="stop-color:#C7C7C7"/>
			<stop  offset="0.4045" style="stop-color:#FFFFFF"/>
			<stop  offset="1" style="stop-color:#878787"/>
		</linearGradient>
		<path style="&st14;" d="M21.9,34.2L14,35.1c-0.9,0.1-1.6,0.9-1.5,1.8c0.1,0.9,0.9,1.6,1.8,1.5l7.8-0.9c0.9-0.1,1.6-0.9,1.5-1.8c-0.1-0.9-0.9-1.6-1.8-1.5z"/>
		<linearGradient id="aigrd5" gradientUnits="userSpaceOnUse" x1="12.562" y1="33.0469" x2="23.7368" y2="33.0469">
			<stop  offset="5.618000e-003" style="stop-color:#C7C7C7"/>
			<stop  offset="2.916075e-002" style="stop-color:#D0D0D0"/>
			<stop  offset="9.728914e-002" style="stop-color:#E5E5E5"/>
			<stop  offset="0.1736" style="stop-color:#F4F4F4"/>
			<stop  offset="0.2641" style="stop-color:#FCFCFC"/>
			<stop  offset="0.4045" style="stop-color:#FFFFFF"/>
			<stop  offset="0.4996" style="stop-color:#FAFAFA"/>
			<stop  offset="0.6134" style="stop-color:#EBEBEB"/>
			<stop  offset="0.7366" style="stop-color:#D3D3D3"/>
			<stop  offset="0.8666" style="stop-color:#B2B2B2"/>
			<stop  offset="1" style="stop-color:#878787"/>
		</linearGradient>
		<path style="&st11;" d="M21.9,31L14,31.8c-0.9,0.1-1.6,0.9-1.5,1.9c0.1,0.9,0.9,1.6,1.8,1.5l7.8-0.9c0.9-0.1,1.6-0.9,1.5-1.8c-0.1-0.9-0.9-1.6-1.8-1.5z"/>
		<path style="&st1;" d="M16.7,41v0.9c0,0.9,0.8,1.7,1.7,1.7s1.7-0.8,1.7-1.7V41h-3.4z"/>
		<radialGradient id="aigrd7" cx="11.4004" cy="10.5781" r="22.7093" fx="11.4004" fy="10.5781" gradientUnits="userSpaceOnUse">
			<stop  offset="0" style="stop-color:#FFFFFF"/>
			<stop  offset="0.882" style="stop-color:#9891AB"/>
			<stop  offset="1" style="stop-color:#B7ADB9"/>
		</radialGradient>
		<path style="&st16;" d="M17.6,2.7C9.4,2.7,2.7,9.4,2.7,17.6c0,8.2,6.7,14.9,14.9,14.9c8.2,0,14.9-6.7,14.9-14.9c0-8.2-6.7-14.9-14.9-14.9z"/>
		<linearGradient id="aigrd8" gradientUnits="userSpaceOnUse" x1="12.562" y1="39.5869" x2="23.7368" y2="39.5869">
			<stop  offset="5.618000e-003" style="stop-color:#A3A349"/>
			<stop  offset="2.078677e-002" style="stop-color:#ACAC54"/>
			<stop  offset="6.600059e-002" style="stop-color:#C1C172"/>
			<stop  offset="0.1148" style="stop-color:#D4D68E"/>
			<stop  offset="0.1677" style="stop-color:#E2E4A6"/>
			<stop  offset="0.2265" style="stop-color:#EDF0B8"/>
			<stop  offset="0.2963" style="stop-color:#F3F6C3"/>
			<stop  offset="0.4045" style="stop-color:#F5F8C7"/>
			<stop  offset="0.5239" style="stop-color:#EEF0BE"/>
			<stop  offset="0.6666" style="stop-color:#DBDDA9"/>
			<stop  offset="0.8211" style="stop-color:#BEBD88"/>
			<stop  offset="0.9832" style="stop-color:#989564"/>
			<stop  offset="1" style="stop-color:#949160"/>
		</linearGradient>
		<path style="&st10;" d="M21.9,37.5L14,38.3c-0.9,0.1-1.6,0.9-1.5,1.8c0.1,0.9,0.9,1.6,1.8,1.5l7.8-0.9c0.9-0.1,1.6-0.9,1.5-1.8c-0.1-0.9-0.9-1.6-1.8-1.5z"/>
		<linearGradient id="aigrd9" gradientUnits="userSpaceOnUse" x1="12.562" y1="36.3174" x2="23.7368" y2="36.3174">
			<stop  offset="5.618000e-003" style="stop-color:#A3A349"/>
			<stop  offset="2.078677e-002" style="stop-color:#ACAC54"/>
			<stop  offset="6.600059e-002" style="stop-color:#C1C172"/>
			<stop  offset="0.1148" style="stop-color:#D4D68E"/>
			<stop  offset="0.1677" style="stop-color:#E2E4A6"/>
			<stop  offset="0.2265" style="stop-color:#EDF0B8"/>
			<stop  offset="0.2963" style="stop-color:#F3F6C3"/>
			<stop  offset="0.4045" style="stop-color:#F5F8C7"/>
			<stop  offset="0.5239" style="stop-color:#EEF0BE"/>
			<stop  offset="0.6666" style="stop-color:#DBDDA9"/>
			<stop  offset="0.8211" style="stop-color:#BEBD88"/>
			<stop  offset="0.9832" style="stop-color:#989564"/>
			<stop  offset="1" style="stop-color:#949160"/>
		</linearGradient>
		<path style="&st3;" d="M21.9,34.2L14,35.1c-0.9,0.1-1.6,0.9-1.5,1.8c0.1,0.9,0.9,1.6,1.8,1.5l7.8-0.9c0.9-0.1,1.6-0.9,1.5-1.8c-0.1-0.9-0.9-1.6-1.8-1.5z"/>
		<linearGradient id="aigrd10" gradientUnits="userSpaceOnUse" x1="12.562" y1="33.0469" x2="23.7368" y2="33.0469">
			<stop  offset="5.618000e-003" style="stop-color:#A3A349"/>
			<stop  offset="2.078677e-002" style="stop-color:#ACAC54"/>
			<stop  offset="6.600059e-002" style="stop-color:#C1C172"/>
			<stop  offset="0.1148" style="stop-color:#D4D68E"/>
			<stop  offset="0.1677" style="stop-color:#E2E4A6"/>
			<stop  offset="0.2265" style="stop-color:#EDF0B8"/>
			<stop  offset="0.2963" style="stop-color:#F3F6C3"/>
			<stop  offset="0.4045" style="stop-color:#F5F8C7"/>
			<stop  offset="0.5239" style="stop-color:#EEF0BE"/>
			<stop  offset="0.6666" style="stop-color:#DBDDA9"/>
			<stop  offset="0.8211" style="stop-color:#BEBD88"/>
			<stop  offset="0.9832" style="stop-color:#989564"/>
			<stop  offset="1" style="stop-color:#949160"/>
		</linearGradient>
		<path style="&st9;" d="M21.9,31L14,31.8c-0.9,0.1-1.6,0.9-1.5,1.9c0.1,0.9,0.9,1.6,1.8,1.5l7.8-0.9c0.9-0.1,1.6-0.9,1.5-1.8c-0.1-0.9-0.9-1.6-1.8-1.5z"/>
		<linearGradient id="aigrd11" gradientUnits="userSpaceOnUse" x1="11.6045" y1="22.0518" x2="16.3345" y2="22.0518">
			<stop  offset="0" style="stop-color:#FFFFFF"/>
			<stop  offset="1" style="stop-color:#F1F53D"/>
		</linearGradient>
		<path style="&st2;" d="M12,16c-0.3,0.1-0.5,0.4-0.4,0.7l3.7,11.1c0.1,0.3,0.4,0.5,0.7,0.4c0.3-0.1,0.5-0.4,0.4-0.7l-3.7-11.1C12.6,16,12.3,15.9,12,16z"/>
		<path style="&st0;" d="M12.1,16.5c0,0,6.8,4,10.9,0"/>
		<path style="&st5;" d="M11.9,13.2c0,0-0.1,0-0.1,0l-0.1,0c0,0-0.1,0-0.1,0l-0.1,0l0,0l-0.1,0l-0.1,0L11,13.4c0,0-0.1,0.1-0.1,0.1c0,0-0.1,0.1-0.1,0.1l0,0l-0.1,0l-0.3,0.2c0,0,0,0-0.1,0.1c0,0-0.2,0.1-0.2,0.1L10,14.1l-0.1,0.1c0,0,0,0-0.1,0.1
			c0,0-0.2,0.2-0.2,0.2s0,0-0.1,0.1c0,0-0.1,0.1-0.1,0.1l0,0l-0.1,0.1l-0.1,0.1l0,0.1l-0.1,0.1l0,0l0,0.1l0,0.1l0.1-0.1L9,15.6l0,0l0,0.1h0l0,0.1l0,0l0,0.2l0,0l0,0.1l0,0l0,0.2v0l0,0.1l0,0.2l0,0l0,0.1l0,0l0,0.1l0,0l0,0.1l0,0l0,0.1c0,0,0-0.1,0-0.1l0,0.1l0,0.1
			l0,0.1l0,0.1l3.7,11.1c0.6,1.7,2.4,2.7,4.1,2.1c0.8-0.3,1.5-0.9,1.9-1.6c0.2-0.5,0.4-1,0.4-1.5c0-0.3-0.1-0.7-0.2-1c0,0-0.9-2.7-1.7-5c3.2,0.3,6-0.6,8.1-2.7c0.6-0.6,1-1.4,1-2.3c0-0.9-0.3-1.7-1-2.3s-1.4-1-2.3-1c-0.9,0-1.7,0.3-2.3,1v0c-2.1,2.1-6.9-0.5-6.9-0.5
			l-1.6-0.9c0,0-0.2,0.3-0.3,0.5z M13.5,13.5l0,0c0,0,0,0,0,0c0,0,0,0,0,0z"/>
		<path style="&st17;" d="M23.4,16.1c-0.2-0.2-0.6-0.2-0.8,0c-3.7,3.7-10.1,0-10.2-0.1c0,0,0,0,0,0c0,0,0,0,0,0c0,0,0,0,0,0c0,0,0,0,0,0c0,0,0,0,0,0c0,0,0,0,0,0c0,0,0,0,0,0c0,0,0,0,0,0c0,0,0,0,0,0c0,0,0,0,0,0c0,0,0,0,0,0c0,0,0,0,0,0c0,0,0,0,0,0c0,0,0,0,0,0
			c0,0,0,0,0,0c0,0,0,0,0,0c0,0,0,0,0,0c0,0,0,0,0,0c0,0,0,0,0,0c0,0,0,0,0,0c0,0,0,0,0,0c0,0,0,0,0,0c0,0,0,0,0,0c0,0,0,0,0,0c0,0,0,0,0,0c0,0,0,0,0,0c0,0,0,0,0,0c0,0,0,0,0,0c0,0,0,0,0,0c0,0,0,0,0,0c0,0,0,0,0,0c0,0,0,0,0,0c0,0,0,0,0,0c0,0,0,0,0,0c0,0,0,0,0,0
			c0,0,0,0,0,0c0,0,0,0,0,0c0,0,0,0,0,0c0,0,0,0,0,0c0,0,0,0,0,0c0,0,0,0,0,0c0,0,0,0,0,0c0,0,0,0,0,0c0,0,0,0,0,0c0,0,0,0,0,0c0,0,0,0,0,0c0,0,0,0,0,0c0,0,0,0,0,0c0,0,0,0,0,0c0,0,0,0,0,0c0,0,0,0,0,0c0,0,0,0,0,0l3.7,11.1c0.1,0.3,0.4,0.5,0.7,0.4
			c0.3-0.1,0.5-0.4,0.4-0.7l-3.2-9.8c0.7,0.3,1.7,0.7,2.8,1c3.1,0.7,5.7,0.1,7.5-1.7c0.2-0.2,0.2-0.6,0-0.8z"/>
		<path style="&st13;" d="M22.3,37.5l-7.8,0.9c0,0,8.6-1,9.3-2.4c0,0-0.2,1.4-1.5,1.5z"/>
		<path style="&st12;" d="M14,38.3l7.8-0.9c0,0-8.6,1-9.3,2.4c0,0,0.2-1.4,1.5-1.5z"/>
		<path style="&st12;" d="M14,35.1l7.8-0.9c0,0-8.6,1-9.3,2.4c0,0,0.2-1.4,1.5-1.5z"/>
		<path style="&st12;" d="M14,31.8l7.8-0.9c0,0-8.6,1-9.3,2.4c0,0,0.2-1.4,1.5-1.5z"/>
		<path style="&st13;" d="M22.3,34.3l-7.8,0.9c0,0,8.6-1,9.3-2.4c0,0-0.2,1.4-1.5,1.5z"/>
		<path style="&st13;" d="M22.3,40.8l-7.8,0.9c0,0,8.6-1,9.3-2.4c0,0-0.2,1.4-1.5,1.5z"/>
	</g>
	<g id="Layer_x0020_2" style="&st15;">
		<linearGradient id="aigrd12" gradientUnits="userSpaceOnUse" x1="-79.6694" y1="-38.8281" x2="-79.6694" y2="-2.6028" gradientTransform="matrix(0.843 -0.843 0.7071 0.7071 103.9458 -30.5878)">
			<stop  offset="0" style="stop-color:#FFFFFF"/>
			<stop  offset="1" style="stop-color:#FFFFFF"/>
		</linearGradient>
		<path style="&st6;" d="M21.6,7c3.3,3.3-11,17.7-14.3,14.3C3.9,18,4.4,12.1,8.4,8.2c4-4,9.9-4.5,13.2-1.2z"/>
	</g>
</svg>
