<?xml version="1.0" encoding="iso-8859-1"?>
<!-- Generator: Adobe Illustrator 9.0, SVG Export Plug-In  -->
<!DOCTYPE svg PUBLIC "-//W3C//DTD SVG 20000303 Stylable//EN"   "http://www.w3.org/TR/2000/03/WD-SVG-20000303/DTD/svg-20000303-stylable.dtd" [
	<!ENTITY st0 "fill-rule:nonzero;clip-rule:nonzero;fill:none;stroke:#FFFFFF;stroke-width:0.4714;stroke-linecap:round;stroke-miterlimit:4;">
	<!ENTITY st1 "opacity:0.47;fill:url(#aigrd4);stroke:none;">
	<!ENTITY st2 "fill:url(#aigrd1);stroke:none;">
	<!ENTITY st3 "fill:#000000;stroke:none;">
	<!ENTITY st4 "opacity:0.54;stroke-width:0.9428;">
	<!ENTITY st5 "fill:url(#aigrd3);stroke:none;">
	<!ENTITY st6 "fill:#919191;stroke:none;">
	<!ENTITY st7 "opacity:0.5;">
	<!ENTITY st8 "fill:url(#aigrd2);stroke:none;">
	<!ENTITY st9 "fill:#000000;stroke:#000000;stroke-width:0.9428;stroke-linecap:butt;">
]>
<svg  width="21px" height="23.4px" viewBox="0 0 21 23.4" xml:space="preserve">
	<g id="Layer_x0020_3" style="&st0;">
		<path style="&st9;" d="M1.9,0.5c-0.8,0-1.4,0.6-1.4,1.4v19.8C0.5,22.4,1,23,1.8,23h17.4c0.7,0,1.3-0.6,1.3-1.3V5c0-0.6-0.2-1.1-0.5-1.4l-2.3-2.3c-0.4-0.4-1.1-0.7-1.8-0.7h-14z"/>
		<linearGradient id="aigrd1" gradientUnits="userSpaceOnUse" x1="17.3613" y1="20.0796" x2="2.3163" y2="4.6795">
			<stop  offset="0" style="stop-color:#E4E4E4"/>
			<stop  offset="1" style="stop-color:#FEFEFE"/>
		</linearGradient>
		<path style="&st2;" d="M15.9,1.3h-14c-0.4,0-0.6,0.3-0.6,0.6v19.8c0,0.3,0.1,0.4,0.5,0.4h17.4c0.2,0,0.4-0.2,0.4-0.4V5c0-0.4-0.1-0.7-0.3-0.8L17,1.8c-0.3-0.3-0.7-0.4-1.2-0.4z"/>
		<linearGradient id="aigrd2" gradientUnits="userSpaceOnUse" x1="2.0825" y1="4.3794" x2="17.3073" y2="19.9984">
			<stop  offset="0" style="stop-color:#E4E4E4"/>
			<stop  offset="1" style="stop-color:#FEFEFE"/>
		</linearGradient>
		<path style="&st8;" d="M2.2,2.2c0,1.5,0,17.5,0,19c1.5,0,15.1,0,16.6,0c0-1.5,0-15.8,0-16.5c-0.4-0.4-2.2-2.2-2.6-2.6c-0.7,0-12.5,0-14,0z"/>
		<path style="&st3;" d="M2.7,10c0,3.4,2.7,6.1,6.1,6.1c1,0,1.9-0.2,2.8-0.7c0.1,0.2,0.2,0.3,0.3,0.4l3.3,3.3c0.7,0.7,1.9,0.7,2.6,0c0.4-0.4,0.5-0.8,0.5-1.3s-0.2-1-0.5-1.3l-3.3-3.3c-0.1-0.1-0.3-0.2-0.4-0.3c0.5-0.9,0.7-1.9,0.7-2.9c0-3.4-2.7-6.1-6.1-6.1
			c-3.4,0-6.1,2.7-6.1,6.1z M5.6,10c0-1.7,1.4-3.2,3.2-3.2s3.2,1.4,3.2,3.2c0,1.7-1.4,3.2-3.2,3.2S5.6,11.7,5.6,10z"/>
		<path style="&st6;" d="M17.3,17L14,13.7c-0.3-0.3-0.8-0.4-1.1-0.3c0.8-0.9,1.2-2.1,1.2-3.4c0-2.9-2.4-5.3-5.3-5.3C5.8,4.6,3.4,7,3.4,10c0,2.9,2.4,5.3,5.3,5.3c1.3,0,2.5-0.5,3.4-1.2c-0.1,0.4,0,0.8,0.3,1.2l3.3,3.3c0.4,0.4,1.1,0.4,1.6,0c0.4-0.4,0.4-1.2,0-1.6z
			 M8.8,13.9c-2.2,0-3.9-1.8-3.9-3.9c0-2.2,1.8-3.9,3.9-3.9c2.2,0,3.9,1.8,3.9,3.9c0,2.2-1.8,3.9-3.9,3.9z"/>
		<linearGradient id="aigrd3" gradientUnits="userSpaceOnUse" x1="15.6729" y1="15.3442" x2="14.082" y2="16.9351">
			<stop  offset="0" style="stop-color:#304A2F"/>
			<stop  offset="0.3315" style="stop-color:#6FAB6C"/>
			<stop  offset="1" style="stop-color:#304A2F"/>
		</linearGradient>
		<path style="&st5;" d="M14,13.7l-1.6,1.6l3.3,3.3l1.6-1.6L14,13.7z"/>
		<path style="&st4;" d="M13.5,14.2l3.2,3.2"/>
		<path style="&st7;" d="M3.7,9.9c0-2.7,2.2-4.9,4.9-4.9"/>
		<path style="&st7;" d="M13,9.9c0,2.4-2,4.4-4.4,4.4"/>
		<radialGradient id="aigrd4" cx="8.1563" cy="9.2227" r="4.202" fx="8.1563" fy="9.2227" gradientUnits="userSpaceOnUse">
			<stop  offset="0" style="stop-color:#FFFFFF"/>
			<stop  offset="1.256170e-002" style="stop-color:#F5F3F8"/>
			<stop  offset="7.182755e-002" style="stop-color:#C7C4D9"/>
			<stop  offset="0.1357" style="stop-color:#A19FC1"/>
			<stop  offset="0.2033" style="stop-color:#8182AF"/>
			<stop  offset="0.2758" style="stop-color:#696CA2"/>
			<stop  offset="0.355" style="stop-color:#555C99"/>
			<stop  offset="0.4444" style="stop-color:#495193"/>
			<stop  offset="0.5524" style="stop-color:#424C8F"/>
			<stop  offset="0.7303" style="stop-color:#3F4A8E"/>
			<stop  offset="0.8388" style="stop-color:#3A4A92"/>
			<stop  offset="0.997" style="stop-color:#2C499E"/>
			<stop  offset="1" style="stop-color:#2C499E"/>
		</radialGradient>
		<path style="&st1;" d="M12,10c0,1.8-1.4,3.2-3.2,3.2S5.5,11.8,5.5,10c0-1.8,1.4-3.2,3.2-3.2S12,8.2,12,10z"/>
	</g>
</svg>
