<?xml version="1.0" encoding="iso-8859-1"?>
<!-- Generator: Adobe Illustrator 9.0, SVG Export Plug-In  -->
<!DOCTYPE svg PUBLIC "-//W3C//DTD SVG 20000303 Stylable//EN"   "http://www.w3.org/TR/2000/03/WD-SVG-20000303/DTD/svg-20000303-stylable.dtd" [
	<!ENTITY st0 "opacity:0.44;fill:#FFFFFF;stroke:none;">
	<!ENTITY st1 "fill:url(#aigrd14);stroke:none;">
	<!ENTITY st2 "fill:url(#aigrd1);stroke:none;">
	<!ENTITY st3 "fill:url(#aigrd11);stroke:none;">
	<!ENTITY st4 "fill:url(#aigrd9);stroke:none;">
	<!ENTITY st5 "fill:url(#aigrd21);stroke:none;">
	<!ENTITY st6 "opacity:0.33;fill:#BCBCBC;stroke:none;">
	<!ENTITY st7 "fill:url(#aigrd19);stroke:none;">
	<!ENTITY st8 "fill:url(#aigrd6);stroke:none;">
	<!ENTITY st9 "fill:url(#aigrd16);stroke:none;">
	<!ENTITY st10 "fill:url(#aigrd3);stroke:none;">
	<!ENTITY st11 "fill:url(#aigrd13);stroke:none;">
	<!ENTITY st12 "fill:url(#aigrd23);stroke:none;">
	<!ENTITY st13 "fill:url(#aigrd10);stroke:none;">
	<!ENTITY st14 "fill:url(#aigrd8);stroke:none;">
	<!ENTITY st15 "fill:url(#aigrd20);stroke:none;">
	<!ENTITY st16 "fill:url(#aigrd18);stroke:none;">
	<!ENTITY st17 "stroke-width:0.8572;">
	<!ENTITY st18 "fill:url(#aigrd5);stroke:none;">
	<!ENTITY st19 "fill:url(#aigrd15);stroke:none;">
	<!ENTITY st20 "fill:url(#aigrd2);stroke:none;">
	<!ENTITY st21 "fill:url(#aigrd12);stroke:none;">
	<!ENTITY st22 "fill:url(#aigrd22);stroke:none;">
	<!ENTITY st23 "fill-rule:nonzero;clip-rule:nonzero;stroke:#000000;stroke-miterlimit:4;">
	<!ENTITY st24 "fill:url(#aigrd7);stroke:none;">
	<!ENTITY st25 "fill:url(#aigrd17);stroke:none;">
	<!ENTITY st26 "opacity:9.000000e-002;stroke:none;">
	<!ENTITY st27 "fill:url(#aigrd4);stroke:none;">
]>
<svg  width="19.5px" height="22.7px" viewBox="0 0 19.5 22.7" xml:space="preserve">
	<g id="Layer_x0020_3" style="&st23;">
		<path style="&st17;" d="M3.4,1.6c-1.9,0.8-3,2-3,3.4v3.1c0,0.5,0.2,1.3,0.9,2.1c0,0.7,0,8.1,0,8.1c0,1.2,1,2.3,2.7,3.1c1.5,0.7,3.6,1,5.7,1c2.1,0,4.2-0.4,5.7-1c1.8-0.8,2.7-1.9,2.7-3.1c0,0,0-7.4,0-8.1c0.7-0.8,0.9-1.5,0.9-2V5c0-1.3-1.1-2.6-3-3.4
			c-1.7-0.7-4-1.2-6.3-1.2c-2.4,0-4.6,0.4-6.3,1.2z"/>
		<linearGradient id="aigrd1" gradientUnits="userSpaceOnUse" x1="7.2197" y1="11.6587" x2="16.8859" y2="11.6073">
			<stop  offset="0" style="stop-color:#BBBBBB"/>
			<stop  offset="1" style="stop-color:#707070"/>
		</linearGradient>
		<path style="&st2;" d="M9.8,1.9c-4.2,0-7.6,1.5-7.6,3.3v12.8c0,1.8,3.4,3.3,7.6,3.3s7.6-1.5,7.6-3.3V5.2c0-1.8-3.4-3.3-7.6-3.3z"/>
		<linearGradient id="aigrd2" gradientUnits="userSpaceOnUse" x1="4.2119" y1="18.0459" x2="5.6616" y2="10.7975">
			<stop  offset="0" style="stop-color:#BBBBBB"/>
			<stop  offset="1" style="stop-color:#F3F3F3"/>
		</linearGradient>
		<path style="&st20;" d="M3.3,9.7V18l3.4,0.4v-8.1L3.3,9.7z"/>
		<path style="&st26;" d="M17.3,12.7c-0.3-1.9-5.3-0.3-7.2-1.1l7.2-2.3c0,0,0.3,5.2,0,3.4z"/>
		<linearGradient id="aigrd3" gradientUnits="userSpaceOnUse" x1="3.1602" y1="6.4053" x2="12.1663" y2="6.4053">
			<stop  offset="0" style="stop-color:#BBBBBB"/>
			<stop  offset="1" style="stop-color:#707070"/>
		</linearGradient>
		<path style="&st10;" d="M9.7,1.2c-4.7,0-8.5,1.7-8.5,3.7v3.1c0,2,3.8,3.7,8.5,3.7c4.7,0,8.5-1.7,8.5-3.7V4.9c0-2-3.8-3.7-8.5-3.7z"/>
		<linearGradient id="aigrd4" gradientUnits="userSpaceOnUse" x1="4.8232" y1="4.7119" x2="14.0353" y2="4.609">
			<stop  offset="0" style="stop-color:#4E4E4E"/>
			<stop  offset="1" style="stop-color:#707070"/>
		</linearGradient>
		<path style="&st27;" d="M16.8,4.7c0,1.5-3.1,2.7-7,2.7c-3.8,0-7-1.2-7-2.7s3.1-2.7,7-2.7c3.8,0,7,1.2,7,2.7z"/>
		<path style="&st0;" d="M1.8,4.5C2,6.1,3.9,8.5,11.6,8.6C5.7,9.2,1.1,7.5,1.8,4.5z"/>
		<path style="&st6;" d="M15.4,6.4c3.2-2.3-1.8-5.3-9.1-4.1c6.5-1.8,14.4,1.5,9.1,4.1z"/>
		<g>
			<linearGradient id="aigrd5" gradientUnits="userSpaceOnUse" x1="7.6997" y1="10.3047" x2="7.6997" y2="7.0801">
				<stop  offset="0" style="stop-color:#C5C5C5"/>
				<stop  offset="0.2838" style="stop-color:#D1D1D1"/>
				<stop  offset="0.7942" style="stop-color:#F0F0F0"/>
				<stop  offset="1" style="stop-color:#FFFFFF"/>
			</linearGradient>
			<path style="&st18;" d="M8.2,6.8l0.5-0.2C8.1,5.6,7.6,4.8,7.6,4.2C7.1,4.4,6.7,4.7,6.4,5.1h1.1v2.1c0.5,0.1,1,0.1,1.6,0.1l0,0L8.2,6.8z"/>
			<linearGradient id="aigrd6" gradientUnits="userSpaceOnUse" x1="6.1812" y1="10.3037" x2="6.1812" y2="7.0802">
				<stop  offset="0" style="stop-color:#C5C5C5"/>
				<stop  offset="0.2838" style="stop-color:#D1D1D1"/>
				<stop  offset="0.7942" style="stop-color:#F0F0F0"/>
				<stop  offset="1" style="stop-color:#FFFFFF"/>
			</linearGradient>
			<path style="&st8;" d="M5.2,6.7c0.6,0.2,1.3,0.4,2,0.5L5.6,6C5.5,6.2,5.3,6.5,5.2,6.7z"/>
			<linearGradient id="aigrd7" gradientUnits="userSpaceOnUse" x1="5.7598" y1="4.0801" x2="5.054" y2="7.5617">
				<stop  offset="0" style="stop-color:#C5C5C5"/>
				<stop  offset="1" style="stop-color:#FFFFFF"/>
			</linearGradient>
			<path style="&st24;" d="M5.5,5.1L7,4.4L6.4,3.9l0.4-0.9L4.3,4.9L5.6,6c0.2-0.3,0.5-0.6,0.7-0.9H5.5z"/>
			<linearGradient id="aigrd8" gradientUnits="userSpaceOnUse" x1="6.542" y1="10.3047" x2="6.542" y2="7.0801">
				<stop  offset="0" style="stop-color:#C5C5C5"/>
				<stop  offset="0.2838" style="stop-color:#D1D1D1"/>
				<stop  offset="0.7942" style="stop-color:#F0F0F0"/>
				<stop  offset="1" style="stop-color:#FFFFFF"/>
			</linearGradient>
			<path style="&st14;" d="M6.4,5.1C6.1,5.4,5.9,5.7,5.6,6l1.5,1.2c0.1,0,0.2,0,0.3,0V5.1H6.4z"/>
			<linearGradient id="aigrd9" gradientUnits="userSpaceOnUse" x1="7.0029" y1="4.332" x2="6.2971" y2="7.8139">
				<stop  offset="0" style="stop-color:#C5C5C5"/>
				<stop  offset="1" style="stop-color:#FFFFFF"/>
			</linearGradient>
			<path style="&st4;" d="M6.4,5.1C6.1,5.4,5.9,5.7,5.6,6l1.5,1.2c0.1,0,0.2,0,0.3,0V5.1H6.4z"/>
			<linearGradient id="aigrd10" gradientUnits="userSpaceOnUse" x1="9.7583" y1="5.3823" x2="8.8071" y2="10.0745">
				<stop  offset="0" style="stop-color:#C5C5C5"/>
				<stop  offset="1" style="stop-color:#FFFFFF"/>
			</linearGradient>
			<path style="&st13;" d="M10.4,4.6C10,4.7,9.5,4.8,9,5c0.5,0.5,0.9,1,1.3,1.5c0.3-0.5,0.4-1.1,0.1-1.9z"/>
			<linearGradient id="aigrd11" gradientUnits="userSpaceOnUse" x1="13.2158" y1="6.1182" x2="12.2937" y2="10.6671">
				<stop  offset="0" style="stop-color:#C5C5C5"/>
				<stop  offset="1" style="stop-color:#FFFFFF"/>
			</linearGradient>
			<path style="&st3;" d="M10.8,4.5c0.7,0.9,1.5,2.1,1.9,2.6c1.4-0.2,2.6-0.7,3.3-1.2c-0.4-0.5-1.9-2.1-5.2-1.4z"/>
			<linearGradient id="aigrd12" gradientUnits="userSpaceOnUse" x1="9.0903" y1="-0.582" x2="8.8006" y2="0.8473" gradientTransform="matrix(0.7871 0.6168 -0.6168 0.7871 2.0983 1.3912)">
				<stop  offset="0" style="stop-color:#C5C5C5"/>
				<stop  offset="1" style="stop-color:#FFFFFF"/>
			</linearGradient>
			<path style="&st21;" d="M9.9,7L9.8,6.9l0.1-0.7L8.8,6.6C9,6.8,9.2,7.1,9.4,7.4C9.6,7.3,9.7,7.1,9.9,7z"/>
			<linearGradient id="aigrd13" gradientUnits="userSpaceOnUse" x1="8.8076" y1="10.3032" x2="8.8076" y2="7.0805">
				<stop  offset="0" style="stop-color:#C5C5C5"/>
				<stop  offset="0.2838" style="stop-color:#D1D1D1"/>
				<stop  offset="0.7942" style="stop-color:#F0F0F0"/>
				<stop  offset="1" style="stop-color:#FFFFFF"/>
			</linearGradient>
			<path style="&st11;" d="M8.8,6.6L8.2,6.8L9,7.3l0,0c0.1,0,0.2,0,0.3,0c0,0,0,0,0,0C9.2,7.1,9,6.8,8.8,6.6z"/>
			<linearGradient id="aigrd14" gradientUnits="userSpaceOnUse" x1="8.9756" y1="-0.6064" x2="8.6857" y2="0.8234" gradientTransform="matrix(0.7871 0.6168 -0.6168 0.7871 2.0983 1.3912)">
				<stop  offset="0" style="stop-color:#C5C5C5"/>
				<stop  offset="1" style="stop-color:#FFFFFF"/>
			</linearGradient>
			<path style="&st1;" d="M8.8,6.6L8.2,6.8L9,7.3l0,0c0.1,0,0.2,0,0.3,0c0,0,0,0,0,0C9.2,7.1,9,6.8,8.8,6.6z"/>
			<linearGradient id="aigrd15" gradientUnits="userSpaceOnUse" x1="10.3286" y1="7.5483" x2="10.3286" y2="5.3133">
				<stop  offset="0" style="stop-color:#C5C5C5"/>
				<stop  offset="0.2838" style="stop-color:#D1D1D1"/>
				<stop  offset="0.7942" style="stop-color:#F0F0F0"/>
				<stop  offset="1" style="stop-color:#FFFFFF"/>
			</linearGradient>
			<path style="&st19;" d="M10.2,4c0.1,0.2,0.2,0.4,0.3,0.6c0.1,0,0.2-0.1,0.4-0.1C10,3.4,9.3,2.6,10.2,4z"/>
			<linearGradient id="aigrd16" gradientUnits="userSpaceOnUse" x1="10.3833" y1="7.5479" x2="10.3833" y2="5.3144">
				<stop  offset="0" style="stop-color:#C5C5C5"/>
				<stop  offset="0.2838" style="stop-color:#D1D1D1"/>
				<stop  offset="0.7942" style="stop-color:#F0F0F0"/>
				<stop  offset="1" style="stop-color:#FFFFFF"/>
			</linearGradient>
			<path style="&st9;" d="M9.9,7l0.3,0.4c0.2,0,0.4,0,0.7,0c-0.1-0.3-0.3-0.6-0.5-0.9C10.2,6.7,10.1,6.8,9.9,7z"/>
			<linearGradient id="aigrd17" gradientUnits="userSpaceOnUse" x1="11.5928" y1="5.7539" x2="10.6415" y2="10.4464">
				<stop  offset="0" style="stop-color:#C5C5C5"/>
				<stop  offset="1" style="stop-color:#FFFFFF"/>
			</linearGradient>
			<path style="&st25;" d="M10.4,4.6c0.3,0.8,0.2,1.4-0.1,1.9c0.2,0.3,0.4,0.6,0.5,0.9c0.6,0,1.3-0.1,1.8-0.2c-0.4-0.6-1.2-1.7-1.9-2.6c-0.1,0-0.2,0-0.4,0.1z"/>
			<linearGradient id="aigrd18" gradientUnits="userSpaceOnUse" x1="11.5029" y1="7.5483" x2="11.5029" y2="5.3135">
				<stop  offset="0" style="stop-color:#C5C5C5"/>
				<stop  offset="0.2838" style="stop-color:#D1D1D1"/>
				<stop  offset="0.7942" style="stop-color:#F0F0F0"/>
				<stop  offset="1" style="stop-color:#FFFFFF"/>
			</linearGradient>
			<path style="&st16;" d="M10.4,4.6c0.3,0.8,0.2,1.4-0.1,1.9c0.2,0.3,0.4,0.6,0.5,0.9c0.6,0,1.3-0.1,1.8-0.2c-0.4-0.6-1.2-1.7-1.9-2.6c-0.1,0-0.2,0-0.4,0.1z"/>
			<linearGradient id="aigrd19" gradientUnits="userSpaceOnUse" x1="9.835" y1="-0.4312" x2="9.5452" y2="0.9981" gradientTransform="matrix(0.7871 0.6168 -0.6168 0.7871 2.0983 1.3912)">
				<stop  offset="0" style="stop-color:#C5C5C5"/>
				<stop  offset="1" style="stop-color:#FFFFFF"/>
			</linearGradient>
			<path style="&st7;" d="M9.4,7.4c0,0,0,0,0,0c0.2,0,0.3,0,0.5,0c0.1,0,0.2,0,0.4,0L9.9,7C9.7,7.1,9.6,7.3,9.4,7.4z"/>
			<linearGradient id="aigrd20" gradientUnits="userSpaceOnUse" x1="9.79" y1="7.5479" x2="9.79" y2="5.3155">
				<stop  offset="0" style="stop-color:#C5C5C5"/>
				<stop  offset="0.2838" style="stop-color:#D1D1D1"/>
				<stop  offset="0.7942" style="stop-color:#F0F0F0"/>
				<stop  offset="1" style="stop-color:#FFFFFF"/>
			</linearGradient>
			<path style="&st15;" d="M9.4,7.4c0,0,0,0,0,0c0.2,0,0.3,0,0.5,0c0.1,0,0.2,0,0.4,0L9.9,7C9.7,7.1,9.6,7.3,9.4,7.4z"/>
			<linearGradient id="aigrd21" gradientUnits="userSpaceOnUse" x1="9.3784" y1="10.3804" x2="9.3784" y2="7.0726">
				<stop  offset="0" style="stop-color:#C5C5C5"/>
				<stop  offset="0.2838" style="stop-color:#D1D1D1"/>
				<stop  offset="0.7942" style="stop-color:#F0F0F0"/>
				<stop  offset="1" style="stop-color:#FFFFFF"/>
			</linearGradient>
			<path style="&st5;" d="M9.4,7.4c0,0,0,0,0,0c0,0,0,0,0,0c0,0,0,0,0,0z"/>
			<linearGradient id="aigrd22" gradientUnits="userSpaceOnUse" x1="9.5742" y1="-0.4722" x2="9.2892" y2="0.9341" gradientTransform="matrix(0.7871 0.6168 -0.6168 0.7871 2.0983 1.3912)">
				<stop  offset="0" style="stop-color:#C5C5C5"/>
				<stop  offset="1" style="stop-color:#FFFFFF"/>
			</linearGradient>
			<path style="&st22;" d="M9.4,7.4c0,0,0,0,0,0c0,0,0,0,0,0c0,0,0,0,0,0z"/>
			<linearGradient id="aigrd23" gradientUnits="userSpaceOnUse" x1="9.3784" y1="7.5518" x2="9.3784" y2="5.2597">
				<stop  offset="0" style="stop-color:#C5C5C5"/>
				<stop  offset="0.2838" style="stop-color:#D1D1D1"/>
				<stop  offset="0.7942" style="stop-color:#F0F0F0"/>
				<stop  offset="1" style="stop-color:#FFFFFF"/>
			</linearGradient>
			<path style="&st12;" d="M9.4,7.4c0,0,0,0,0,0c0,0,0,0,0,0c0,0,0,0,0,0z"/>
		</g>
	</g>
</svg>
