<?xml version="1.0" encoding="iso-8859-1"?>
<!-- Generator: Adobe Illustrator 9.0, SVG Export Plug-In  -->
<!DOCTYPE svg PUBLIC "-//W3C//DTD SVG 20000303 Stylable//EN"   "http://www.w3.org/TR/2000/03/WD-SVG-20000303/DTD/svg-20000303-stylable.dtd" [
	<!ENTITY st0 "fill:url(#aigrd1);stroke:none;">
	<!ENTITY st1 "opacity:0.23;stroke:none;">
	<!ENTITY st2 "fill:url(#aigrd3);stroke:none;">
	<!ENTITY st3 "opacity:0.32;fill:#FFFFFF;stroke:none;">
	<!ENTITY st4 "fill:url(#aigrd1);stroke-width:5.0583;">
	<!ENTITY st5 "fill:#FFFFFF;stroke:none;">
	<!ENTITY st6 "fill-rule:nonzero;clip-rule:nonzero;stroke:#000000;stroke-miterlimit:4;">
	<!ENTITY st7 "opacity:0.68;stroke:none;">
	<!ENTITY st8 "fill:url(#aigrd4);stroke:none;">
]>
<svg  width="44.7px" height="44.7px" viewBox="0 0 44.7 44.7" xml:space="preserve">
	<g id="Layer_x0020_3" style="&st6;">
		<linearGradient id="aigrd1" gradientUnits="userSpaceOnUse" x1="15.0068" y1="9.9619" x2="31.4069" y2="37.5935">
			<stop  offset="0" style="stop-color:#F55354"/>
			<stop  offset="1" style="stop-color:#8F1008"/>
		</linearGradient>
		<path style="&st4;" d="M42.2,22.4c0,11-8.9,19.8-19.8,19.8c-11,0-19.8-8.9-19.8-19.8c0-11,8.9-19.8,19.8-19.8c11,0,19.8,8.9,19.8,19.8z"/>
		<path style="&st0;" d="M42.2,22.4c0,11-8.9,19.8-19.8,19.8c-11,0-19.8-8.9-19.8-19.8c0-11,8.9-19.8,19.8-19.8c11,0,19.8,8.9,19.8,19.8z"/>
		<linearGradient id="aigrd3" gradientUnits="userSpaceOnUse" x1="33.8667" y1="27.3228" x2="12.916" y2="18.3009">
			<stop  offset="0" style="stop-color:#E2E2E2"/>
			<stop  offset="1" style="stop-color:#FFFFFF"/>
		</linearGradient>
		<path style="&st2;" d="M35.6,26H9.1v-7.3h26.5V26z"/>
		<path style="&st3;" d="M3.4,23.2c0-11,8.9-19.8,19.8-19.8c5.2,0,10,2,13.6,5.4C33.2,4.9,28,2.4,22.3,2.4c-11,0-19.8,8.9-19.8,19.8c0,5.7,2.4,10.9,6.3,14.5c-3.3-3.5-5.4-8.3-5.4-13.6z"/>
		<path style="&st7;" d="M35.9,7.8c3.3,3.5,5.4,8.3,5.4,13.6c0,11-8.9,19.8-19.8,19.8c-5.2,0-10-2-13.6-5.4c3.6,3.9,8.8,6.3,14.5,6.3c11,0,19.8-8.9,19.8-19.8c0-5.7-2.4-10.9-6.3-14.5z"/>
		<path style="&st5;" d="M35.6,18.7V26H9.1l25.5-0.9l1-6.4z"/>
		<path style="&st1;" d="M9.1,26v-7.3h26.5l-25.5,0.9l-1,6.4z"/>
		<linearGradient id="aigrd4" gradientUnits="userSpaceOnUse" x1="32.6499" y1="30.439" x2="13.9155" y2="22.3715">
			<stop  offset="0" style="stop-color:#E2E2E2"/>
			<stop  offset="1" style="stop-color:#FFFFFF"/>
		</linearGradient>
		<path style="&st8;" d="M35.6,26H9.1"/>
	</g>
</svg>
