<?xml version="1.0" encoding="iso-8859-1"?>
<!-- Generator: Adobe Illustrator 9.0, SVG Export Plug-In  -->
<!DOCTYPE svg PUBLIC "-//W3C//DTD SVG 20000303 Stylable//EN"   "http://www.w3.org/TR/2000/03/WD-SVG-20000303/DTD/svg-20000303-stylable.dtd" [
	<!ENTITY st0 "fill:url(#aigrd1);stroke:none;">
	<!ENTITY st1 "fill:#999999;stroke:none;">
	<!ENTITY st2 "fill:#848484;stroke:none;">
	<!ENTITY st3 "fill-rule:nonzero;clip-rule:nonzero;stroke:#000000;stroke-width:0.8297;stroke-miterlimit:4;">
	<!ENTITY st4 "fill:url(#aigrd3);stroke:none;">
	<!ENTITY st5 "fill:#C1C1C1;stroke:none;">
	<!ENTITY st6 "fill:#FFFFFF;stroke:none;">
	<!ENTITY st7 "fill:#5C5C5C;stroke:none;">
	<!ENTITY st8 "fill:url(#aigrd2);stroke:none;">
	<!ENTITY st9 "fill:url(#aigrd4);stroke:none;">
]>
<svg  width="17.6px" height="22.5px" viewBox="0 0 17.6 22.5" xml:space="preserve">
	<g id="Layer_x0020_2" style="&st3;">
		<path d="M8,0.4c-3.3,0-6,2.7-6,6c0,1.2,0.3,2.3,1,3.2c-0.3,0.7-2.5,5.2-2.5,5.2c-0.1,0.2-0.2,0.5-0.2,0.7c0,0.4,0.2,0.9,0.5,1.3c0,0.1-0.1,0.3-0.1,0.4c0,1.1,0.9,2,2,2c0.6,0,1.2-0.3,1.6-0.7c0.8,0,1.5-0.3,1.9-1l0,0c0,0,2.2-4.6,2.5-5.3c1.4-0.2,2.6-0.8,3.6-1.8
			C13.4,9.4,14,7.9,14,6.4c0-3.3-2.7-6-6-6z"/>
		<g>
			<path d="M10.9,13.9c-0.6,0.6-1,1.5-1.4,2.2l-0.3,0.6c-0.6,1.4-1.3,2.7-2.5,3.5c-0.9,0.6-2.3,0.6-3.1,0c-0.8-0.6-0.8-1.2-0.2-2.6c0.2-0.4,0-0.8-0.4-1c-0.4-0.2-0.8,0-1,0.4c-0.3,0.6-0.6,1.4-0.5,2.2c0,0.9,0.5,1.6,1.3,2.2c1.3,0.9,3.3,0.9,4.7,0.1
				c1.7-1,2.4-2.6,3.1-4.1l0.3-0.6c0.6-1.3,1.4-2.7,2.7-2.6c0.8,0.1,1.3,0.7,1.7,2c0.3,1.1,0.5,2.4,0.5,3.3l0,0.1c0,0.2,0.1,0.4,0.3,0.5s0.3,0.2,0.5,0.2c0.4,0,0.7-0.4,0.7-0.8l0-0.1c-0.1-1-0.2-2.5-0.7-3.8c-0.6-1.7-1.6-2.6-2.9-2.7c-1-0.1-1.9,0.3-2.7,1.2z"/>
			<path style="&st1;" d="M11.2,14.1c-0.6,0.6-1,1.4-1.3,2.2l-0.3,0.6c-0.7,1.4-1.3,2.8-2.7,3.7c-1.1,0.7-2.5,0.7-3.5,0c-1.1-0.8-0.9-1.7-0.3-3.1c0.1-0.2,0-0.4-0.2-0.5s-0.4,0-0.5,0.2c-0.3,0.6-0.5,1.3-0.5,2.1c0,0.8,0.4,1.4,1.1,1.9c1.2,0.8,3,0.9,4.3,0
				c1.6-1,2.3-2.5,3-4l0.3-0.6c0.7-1.4,1.5-2.9,3-2.8c2.1,0.2,2.4,3.8,2.6,5.6l0,0.1c0,0.2,0.2,0.4,0.4,0.3c0.2,0,0.3-0.2,0.3-0.4l0-0.1c-0.2-1.9-0.5-6-3.2-6.2c-0.9-0.1-1.7,0.3-2.4,1.1z"/>
		</g>
		<radialGradient id="aigrd1" cx="2.7769" cy="16.812" r="1.5738" fx="2.7769" fy="16.812" gradientUnits="userSpaceOnUse">
			<stop  offset="0" style="stop-color:#B8B94A"/>
			<stop  offset="2.898850e-002" style="stop-color:#C6C958"/>
			<stop  offset="7.011141e-002" style="stop-color:#D3D866"/>
			<stop  offset="0.1207" style="stop-color:#DCE270"/>
			<stop  offset="0.2079" style="stop-color:#DEE472"/>
			<stop  offset="0.33" style="stop-color:#D7DD6D"/>
			<stop  offset="0.474" style="stop-color:#C5C860"/>
			<stop  offset="0.629" style="stop-color:#A6A84B"/>
			<stop  offset="0.7909" style="stop-color:#7F8034"/>
			<stop  offset="0.8258" style="stop-color:#77782F"/>
			<stop  offset="0.91" style="stop-color:#818234"/>
			<stop  offset="1" style="stop-color:#94963C"/>
		</radialGradient>
		<path style="&st0;" d="M4.1,17.3c0,0.7-0.5,1.2-1.2,1.2c-0.7,0-1.2-0.5-1.2-1.2c0-0.7,0.5-1.2,1.2-1.2c0.7,0,1.2,0.5,1.2,1.2z"/>
		<linearGradient id="aigrd2" gradientUnits="userSpaceOnUse" x1="2.6318" y1="12.3208" x2="6.791" y2="14.4386">
			<stop  offset="0" style="stop-color:#B8B94A"/>
			<stop  offset="2.898850e-002" style="stop-color:#C6C958"/>
			<stop  offset="7.011141e-002" style="stop-color:#D3D866"/>
			<stop  offset="0.1207" style="stop-color:#DCE270"/>
			<stop  offset="0.2079" style="stop-color:#DEE472"/>
			<stop  offset="0.33" style="stop-color:#D7DD6D"/>
			<stop  offset="0.474" style="stop-color:#C5C860"/>
			<stop  offset="0.629" style="stop-color:#A6A84B"/>
			<stop  offset="0.7909" style="stop-color:#7F8034"/>
			<stop  offset="0.8258" style="stop-color:#77782F"/>
			<stop  offset="0.91" style="stop-color:#818234"/>
			<stop  offset="1" style="stop-color:#94963C"/>
		</linearGradient>
		<path style="&st8;" d="M5.5,17.2c-0.9,1.6-5-0.5-4.2-2l3.2-6.8l4.2,2l-3.2,6.8z"/>
		<radialGradient id="aigrd3" cx="7.1738" cy="3.9268" r="7.6901" fx="7.1738" fy="3.9268" gradientUnits="userSpaceOnUse">
			<stop  offset="0" style="stop-color:#878787"/>
			<stop  offset="0.1432" style="stop-color:#777777"/>
			<stop  offset="0.599" style="stop-color:#474747"/>
			<stop  offset="0.8258" style="stop-color:#343434"/>
			<stop  offset="0.8766" style="stop-color:#3C3C3C"/>
			<stop  offset="0.9548" style="stop-color:#515151"/>
			<stop  offset="1" style="stop-color:#616161"/>
		</radialGradient>
		<path style="&st4;" d="M13.2,6.4c0,2.8-2.3,5.2-5.2,5.2S2.9,9.3,2.9,6.4c0-2.8,2.3-5.2,5.2-5.2s5.2,2.3,5.2,5.2z"/>
		<linearGradient id="aigrd4" gradientUnits="userSpaceOnUse" x1="3.3481" y1="12.48" x2="4.3887" y2="13.1117">
			<stop  offset="0" style="stop-color:#000000"/>
			<stop  offset="0.1548" style="stop-color:#090909"/>
			<stop  offset="0.4084" style="stop-color:#222222"/>
			<stop  offset="0.7272" style="stop-color:#494949"/>
			<stop  offset="1" style="stop-color:#717171"/>
		</linearGradient>
		<path style="&st9;" d="M3.9,11.2c0.1,0.2,0.6,0.7,1.1,0.8l-1.3,2.5c-0.5-0.1-1.1-0.4-1.1-0.7l1.2-2.6z"/>
		<path style="&st6;" d="M5.1,11.9l-1.3,2.5c0,0-1-0.2-1.1-0.7c0,0.5,1.1,0.9,1.1,0.9l1.2-2.7z"/>
		<path style="&st2;" d="M3.8,11.1l-0.6,1.2l1,0.8l0.6-1.2l-1-0.7z"/>
		<path style="&st7;" d="M4.8,11.8l-0.6,1.2l0.2,0.1l0.6-1.2l-0.3-0.1z"/>
		<path style="&st5;" d="M5.1,11.9l-0.3-0.1l-1-0.7l0.1,0.1l1.1,0.8z"/>
	</g>
</svg>
