<?xml version="1.0" encoding="iso-8859-1"?>
<!-- Generator: Adobe Illustrator 9.0, SVG Export Plug-In  -->
<!DOCTYPE svg PUBLIC "-//W3C//DTD SVG 20000303 Stylable//EN"   "http://www.w3.org/TR/2000/03/WD-SVG-20000303/DTD/svg-20000303-stylable.dtd" [
	<!ENTITY st0 "fill:url(#aigrd1);stroke:none;">
	<!ENTITY st1 "opacity:0.79;fill:url(#aigrd3);stroke:none;">
	<!ENTITY st2 "stroke-width:0.8919;">
	<!ENTITY st3 "fill:url(#aigrd2);stroke:none;">
	<!ENTITY st4 "fill-rule:nonzero;clip-rule:nonzero;stroke:#000000;stroke-miterlimit:4;">
]>
<svg  width="22.4px" height="22.4px" viewBox="0 0 22.4 22.4" xml:space="preserve">
	<g id="Layer_x0020_3" style="&st4;">
		<path style="&st2;" d="M0.4,11.2c0,5.9,4.8,10.8,10.8,10.8s10.8-4.8,10.8-10.8S17.1,0.4,11.2,0.4S0.4,5.3,0.4,11.2z M8.2,11.2c0-1.6,1.3-3,3-3c1.6,0,3,1.3,3,3s-1.3,3-3,3c-1.6,0-3-1.3-3-3z"/>
		<linearGradient id="aigrd1" gradientUnits="userSpaceOnUse" x1="8.7998" y1="4.8457" x2="13.1945" y2="16.5011">
			<stop  offset="0" style="stop-color:#FFFFFF"/>
			<stop  offset="0.2661" style="stop-color:#FBFBFB"/>
			<stop  offset="0.5261" style="stop-color:#EFEFEF"/>
			<stop  offset="0.7829" style="stop-color:#DCDCDC"/>
			<stop  offset="1" style="stop-color:#C5C5C5"/>
		</linearGradient>
		<path style="&st0;" d="M1.3,11.2c0,5.4,4.4,9.9,9.9,9.9s9.9-4.4,9.9-9.9c0-5.4-4.4-9.9-9.9-9.9s-9.9,4.4-9.9,9.9z M7.3,11.2c0-2.1,1.7-3.9,3.9-3.9S15,9.1,15,11.2S13.3,15,11.2,15s-3.9-1.7-3.9-3.9z"/>
		<linearGradient id="aigrd2" gradientUnits="userSpaceOnUse" x1="13.2827" y1="22.25" x2="9.1761" y2="0.5089">
			<stop  offset="0" style="stop-color:#FFFFFF"/>
			<stop  offset="0.4944" style="stop-color:#858585"/>
			<stop  offset="0.5225" style="stop-color:#FFFFFF"/>
			<stop  offset="1" style="stop-color:#C2C2C2"/>
		</linearGradient>
		<path style="&st3;" d="M11.2,1.8C6,1.8,1.8,6,1.8,11.2c0,5.2,4.2,9.4,9.4,9.4c5.2,0,9.4-4.2,9.4-9.4c0-5.2-4.2-9.4-9.4-9.4z M11.2,15.5c-2.4,0-4.3-1.9-4.3-4.3s1.9-4.3,4.3-4.3c2.4,0,4.3,1.9,4.3,4.3s-1.9,4.3-4.3,4.3z"/>
		<linearGradient id="aigrd3" gradientUnits="userSpaceOnUse" x1="9.9355" y1="7.0005" x2="12.4738" y2="15.4614">
			<stop  offset="0" style="stop-color:#FFFFFF"/>
			<stop  offset="1" style="stop-color:#C2C2C2"/>
		</linearGradient>
		<path style="&st1;" d="M11.2,5.5c-3.1,0-5.7,2.5-5.7,5.7s2.5,5.7,5.7,5.7s5.7-2.5,5.7-5.7s-2.5-5.7-5.7-5.7z M11.2,15.1c-2.1,0-3.9-1.7-3.9-3.9s1.7-3.9,3.9-3.9s3.9,1.7,3.9,3.9s-1.7,3.9-3.9,3.9z"/>
	</g>
</svg>
