<?xml version="1.0" encoding="iso-8859-1"?>
<!-- Generator: Adobe Illustrator 9.0, SVG Export Plug-In  -->
<!DOCTYPE svg PUBLIC "-//W3C//DTD SVG 20000303 Stylable//EN"   "http://www.w3.org/TR/2000/03/WD-SVG-20000303/DTD/svg-20000303-stylable.dtd" [
	<!ENTITY st0 "fill:url(#aigrd1);stroke:none;">
	<!ENTITY st1 "opacity:0.15;fill:#000000;stroke:none;">
	<!ENTITY st2 "stroke-width:2.4898;stroke-linecap:round;stroke-linejoin:round;">
	<!ENTITY st3 "opacity:0.2;stroke:none;">
	<!ENTITY st4 "fill:url(#aigrd2);stroke-width:2.4898;">
	<!ENTITY st5 "fill:url(#aigrd3);stroke:none;">
	<!ENTITY st6 "fill:url(#aigrd1);stroke-width:2.4898;stroke-linejoin:round;">
	<!ENTITY st7 "opacity:0.31;stroke:none;">
	<!ENTITY st8 "fill-rule:nonzero;clip-rule:nonzero;fill:#FFFFFF;stroke:#000000;stroke-miterlimit:4;">
	<!ENTITY st9 "fill:url(#aigrd2);stroke:none;">
	<!ENTITY st10 "opacity:0.27;fill:#000000;stroke:none;">
	<!ENTITY st11 "stroke:none;">
	<!ENTITY st12 "fill:url(#aigrd4);stroke:none;">
]>
<svg  width="22px" height="19.9px" viewBox="0 0 22 19.9" xml:space="preserve">
	<g id="Layer_x0020_2" style="&st8;">
		<linearGradient id="aigrd1" gradientUnits="userSpaceOnUse" x1="5.8696" y1="8.1523" x2="7.8136" y2="11.1567">
			<stop  offset="0" style="stop-color:#F42120"/>
			<stop  offset="0.2865" style="stop-color:#9E3231"/>
			<stop  offset="0.4888" style="stop-color:#722324"/>
		</linearGradient>
		<path style="&st6;" d="M13.4,8l-1-1.7c-0.5-0.8-1.6-1.1-2.4-0.6l-8,4.8c-0.8,0.5-1.1,1.6-0.6,2.4l1.1,1.7L13.4,8z"/>
		<linearGradient id="aigrd2" gradientUnits="userSpaceOnUse" x1="1.9346" y1="1.8345" x2="4.0324" y2="5.0216">
			<stop  offset="0" style="stop-color:#F42120"/>
			<stop  offset="0.2865" style="stop-color:#9E3231"/>
			<stop  offset="0.4888" style="stop-color:#722324"/>
		</linearGradient>
		<path style="&st4;" d="M6.9,7.2C7.3,7.8,7.1,8.7,6.5,9C5.9,9.4,5,9.2,4.7,8.6L1.4,3.2C1,2.6,1.2,1.8,1.8,1.4C2.5,1,3.3,1.2,3.7,1.8l3.3,5.4z"/>
		<path style="&st2;" d="M11.3,6.9l-9.5,5.7l4.1,5.6c0.6,1,2.3,0.4,2.3,0.4l12.5-5.6c0,0-4.3,0.7-5.3-0.7l-4.2-5.5z"/>
		<linearGradient id="aigrd3" gradientUnits="userSpaceOnUse" x1="6.126" y1="13.1836" x2="18.5421" y2="11.8936">
			<stop  offset="0" style="stop-color:#FFFFFF"/>
			<stop  offset="1" style="stop-color:#C5C5C5"/>
		</linearGradient>
		<path style="&st5;" d="M11.3,6.9l-9.5,5.7l4.1,5.6c0.6,1,2.3,0.4,2.3,0.4l12.5-5.6c0,0-4.3,0.7-5.3-0.7l-4.2-5.5z"/>
		<linearGradient id="aigrd4" gradientUnits="userSpaceOnUse" x1="18.9902" y1="8.439" x2="2.596" y2="17.0392">
			<stop  offset="0" style="stop-color:#FFFFFF"/>
			<stop  offset="1" style="stop-color:#C5C5C5"/>
		</linearGradient>
		<path style="&st12;" d="M3,12c0,0,3.6,5,4.2,5.6C7.9,18.3,9.8,18,9.8,18l11-4.9c0,0-4,0.6-5-0.4l-4.3-5.9L3,12z"/>
		<path style="&st1;" d="M9.1,14.7c0,0,0.4,1.1,1,1.7c0.6,0.6,2.7,0.2,2.7,0.2l1-0.5c0,0-2.4,0.6-3.1,0c-0.7-0.6-1.7-1.5-1.7-1.5z"/>
		<path style="&st0;" d="M13.4,8l-1-1.7c-0.5-0.8-1.6-1.1-2.4-0.6l-8,4.8c-0.8,0.5-1.1,1.6-0.6,2.4l1.1,1.7L13.4,8z"/>
		<path style="&st3;" d="M1.8,13.4c-0.5-0.8-0.2-1.9,0.6-2.4l8-4.8c0.6-0.4,1.4-0.3,1.9,0.1c-0.5-0.7-1.5-1-2.3-0.5l-8,4.8c-0.8,0.5-1.1,1.6-0.6,2.4l1.1,1.7l0.1-0.1l-0.7-1.2z"/>
		<path style="&st9;" d="M6.9,7.2C7.3,7.8,7.1,8.7,6.5,9C5.9,9.4,5,9.2,4.7,8.6L1.4,3.2C1,2.6,1.2,1.8,1.8,1.4C2.5,1,3.3,1.2,3.7,1.8l3.3,5.4z"/>
		<path style="&st1;" d="M12.4,13.1c0,0,0.4,1.1,1,1.7c0.6,0.6,2.7,0.2,2.7,0.2l1-0.5c0,0-2.4,0.6-3.1,0c-0.7-0.6-1.7-1.5-1.7-1.5z"/>
		<path style="&st11;" d="M12.4,13.1c0,0,1,0.8,1.7,1.5c0.6,0.6,2.7,0.2,2.7,0.2l1.6-0.6c0,0-2.9,0.7-3.7,0.1c-0.7-0.5-2.3-1.2-2.3-1.2z"/>
		<path style="&st11;" d="M9.1,14.7c0,0,1,0.8,1.7,1.5c0.6,0.6,2.7,0.2,2.7,0.2l1.3-0.6c0,0-2.6,0.7-3.4,0.1c-0.7-0.5-2.3-1.2-2.3-1.2z"/>
		<path style="&st10;" d="M13.4,9.5l-0.7-1l-8.5,5.1l-1.1,0.8l1.1,1.5l0.5-1.5l8.7-4.8z"/>
		<path style="&st7;" d="M5.1,9L1.8,3.6C1.4,3,1.6,2.2,2.2,1.8c0.4-0.3,1-0.2,1.4,0C3.3,1.2,2.5,1,1.8,1.4C1.2,1.7,1,2.6,1.4,3.2l3.3,5.4C4.8,8.8,4.9,8.9,5.1,9c0,0,0,0,0,0z"/>
	</g>
</svg>
