<?xml version="1.0" encoding="UTF-8" standalone="no"?>
<!-- Generator: Adobe Illustrator 9.0, SVG Export Plug-In  -->
<svg
   xmlns:dc="http://purl.org/dc/elements/1.1/"
   xmlns:cc="http://web.resource.org/cc/"
   xmlns:rdf="http://www.w3.org/1999/02/22-rdf-syntax-ns#"
   xmlns:svg="http://www.w3.org/2000/svg"
   xmlns="http://www.w3.org/2000/svg"
   xmlns:sodipodi="http://inkscape.sourceforge.net/DTD/sodipodi-0.dtd"
   xmlns:inkscape="http://www.inkscape.org/namespaces/inkscape"
   width="48pt"
   height="48pt"
   viewBox="0 0 48 48"
   xml:space="preserve"
   id="svg2"
   sodipodi:version="0.32"
   inkscape:version="0.42+devel"
   sodipodi:docname="gtk-dnd-multiple.svg"
   sodipodi:docbase="/home/luca/Desktop/Black-and-White/scalable/actions"><metadata
   id="metadata19"><rdf:RDF><cc:Work
       rdf:about=""><dc:format>image/svg+xml</dc:format><dc:type
         rdf:resource="http://purl.org/dc/dcmitype/StillImage" /></cc:Work></rdf:RDF></metadata><defs
   id="defs17">
		
		
		
		
	</defs><sodipodi:namedview
   inkscape:window-height="948"
   inkscape:window-width="1280"
   inkscape:pageshadow="2"
   inkscape:pageopacity="0.0"
   borderopacity="1.0"
   bordercolor="#666666"
   pagecolor="#ffffff"
   id="base"
   inkscape:zoom="9.8860882"
   inkscape:cx="30"
   inkscape:cy="30"
   inkscape:window-x="0"
   inkscape:window-y="25"
   inkscape:current-layer="svg2" />
	
	<g
   id="crop_x0020_marks"
   style="fill-rule:nonzero;clip-rule:nonzero;stroke:#000000;stroke-miterlimit:4;">
		<path
   style="fill:none;stroke:none;"
   d="M48,48H0V0h48v48z"
   id="path14" />
	</g>
<g
   transform="matrix(0.797971,0.000000,0.000000,0.797971,-1.593864,0.387894)"
   id="g3326"><path
     id="path3328"
     d="M 37.2,19.7 L 37.2,40.2 L 10.4,40.2 L 10.4,7.7 L 25.5,7.7 L 37.2,19.6 L 37.2,19.7 z "
     style="fill:none;fill-rule:nonzero;stroke:#ffffff;stroke-width:13.16219997;stroke-linejoin:round;stroke-miterlimit:4" /><path
     id="path3330"
     d="M 37.2,19.7 L 37.2,40.2 L 10.4,40.2 L 10.4,7.7 L 25.5,7.7 L 37.2,19.6 L 37.2,19.7 z "
     style="fill:none;fill-rule:nonzero;stroke:#000000;stroke-width:6.58109999;stroke-linejoin:round;stroke-miterlimit:4" /><path
     id="path3332"
     d="M 36.3,20 L 36.3,39 L 11.3,39 L 11.3,8.9 L 25.3,8.9 L 36.3,20 z "
     style="fill:#ffffff;fill-rule:nonzero;stroke:none;stroke-miterlimit:4" /><path
     id="path3334"
     d="M 25.3,8.9 L 25.3,19.838156 L 36.685531,19.838156 L 25.3,8.9 z "
     style="fill-rule:evenodd;stroke:none;stroke-miterlimit:4" /></g><g
   id="g3320"
   transform="matrix(0.797971,0.000000,0.000000,0.797971,11.35362,9.451135)"><path
     style="fill:none;fill-rule:nonzero;stroke:#ffffff;stroke-width:13.16219997;stroke-linejoin:round;stroke-miterlimit:4"
     d="M 37.2,19.7 L 37.2,40.2 L 10.4,40.2 L 10.4,7.7 L 25.5,7.7 L 37.2,19.6 L 37.2,19.7 z "
     id="path5" /><path
     style="fill:none;fill-rule:nonzero;stroke:#000000;stroke-width:6.58109999;stroke-linejoin:round;stroke-miterlimit:4"
     d="M 37.2,19.7 L 37.2,40.2 L 10.4,40.2 L 10.4,7.7 L 25.5,7.7 L 37.2,19.6 L 37.2,19.7 z "
     id="path7" /><path
     style="fill:#ffffff;fill-rule:nonzero;stroke:none;stroke-miterlimit:4"
     d="M 36.3,20 L 36.3,39 L 11.3,39 L 11.3,8.9 L 25.3,8.9 L 36.3,20 z "
     id="path9" /><path
     style="fill-rule:evenodd;stroke:none;stroke-miterlimit:4"
     d="M 25.3,8.9 L 25.3,19.838156 L 36.685531,19.838156 L 25.3,8.9 z "
     id="path11" /></g></svg>