<?xml version="1.0" encoding="UTF-8" standalone="no"?>
<!-- Generator: Adobe Illustrator 9.0, SVG Export Plug-In  -->
<svg
   xmlns:dc="http://purl.org/dc/elements/1.1/"
   xmlns:cc="http://creativecommons.org/ns#"
   xmlns:rdf="http://www.w3.org/1999/02/22-rdf-syntax-ns#"
   xmlns:svg="http://www.w3.org/2000/svg"
   xmlns="http://www.w3.org/2000/svg"
   xmlns:sodipodi="http://sodipodi.sourceforge.net/DTD/sodipodi-0.dtd"
   xmlns:inkscape="http://www.inkscape.org/namespaces/inkscape"
   width="48pt"
   height="48pt"
   viewBox="0 0 48 48"
   xml:space="preserve"
   id="svg2"
   sodipodi:version="0.32"
   inkscape:version="0.46"
   sodipodi:docname="audio-input-microphone.svg"
   inkscape:output_extension="org.inkscape.output.svg.inkscape"><metadata
   id="metadata21"><rdf:RDF><cc:Work
       rdf:about=""><dc:format>image/svg+xml</dc:format><dc:type
         rdf:resource="http://purl.org/dc/dcmitype/StillImage" /></cc:Work></rdf:RDF></metadata><defs
   id="defs19" /><sodipodi:namedview
   inkscape:window-height="480"
   inkscape:window-width="640"
   inkscape:pageshadow="2"
   inkscape:pageopacity="0.0"
   guidetolerance="10.0"
   gridtolerance="10.0"
   objecttolerance="10.0"
   borderopacity="1.0"
   bordercolor="#666666"
   pagecolor="#ffffff"
   id="base" />
	<g
   id="Layer_x0020_3"
   style="fill-rule:nonzero;clip-rule:nonzero;stroke:#000000;stroke-miterlimit:4;">
		<g
   style="stroke:none;"
   id="g5">
			<path
   style="fill:none;stroke:#FFFFFF;stroke-width:6.194;stroke-linejoin:round;"
   d="M38.2,30.6c-1-1.2-2.4-1.8-4-1.8c-3.1,0-6.5,2.6-10.1,5.4c-3.6,2.8-7.7,6-10,4.9c-0.7-0.3-1.1-0.9-1.4-1.6c-0.3-1.1-0.1-2.6,0.3-4.1l2.8,1.3l5-10.6c5.1-0.2,9.3-4.4,9.3-9.6c0-5.3-4.3-9.6-9.6-9.6c-5.3,0-9.6,4.3-9.6,9.6     c0,2.2,0.8,4.3,2,5.9l-5,10.5l2.3,1.1c-0.8,2.5-1,4.6-0.5,6.3c0.5,1.6,1.5,2.8,3,3.5c4,1.9,8.7-1.7,13.2-5.2c2.9-2.2,6.2-4.7,8.2-4.7c0.7,0,1.2,0.2,1.6,0.7c1.4,1.7,1.2,6.3,0.7,8.8c-0.2,0.8,0.4,1.7,1.2,1.8c0.8,0.2,1.7-0.4,1.8-1.2c0-0.1,0.4-1.9,0.4-4.2     c0.1-3.2-0.5-5.7-1.8-7.2z"
   id="path7" />
			<path
   style="fill:none;stroke:#000000;stroke-width:3.097;stroke-linecap:round;stroke-linejoin:round;"
   d="M38,41.8c0,0,2.2-11.3-3.8-11.3c-5.7,0-15.2,12.8-20.7,10.1c-5.6-2.7,0.4-12.4,0.4-12.4"
   id="path9" />
			<path
   d="M16,34.8L8.1,31l6-12.7l7.9,3.8l-6,12.7z"
   id="path11" />
			<path
   d="M30.3,14.6c0,5.3-4.3,9.6-9.6,9.6c-5.3,0-9.6-4.3-9.6-9.6c0-5.3,4.3-9.6,9.6-9.6c5.3,0,9.6,4.3,9.6,9.6z"
   id="path13" />
		</g>
	</g>
	<g
   id="crop_x0020_marks"
   style="fill-rule:nonzero;clip-rule:nonzero;stroke:#000000;stroke-miterlimit:4;">
		<path
   style="fill:none;stroke:none;"
   d="M48,48H0V0h48v48z"
   id="path16" />
	</g>
</svg>