<?xml version="1.0" encoding="iso-8859-1"?>
<!-- Generator: Adobe Illustrator 9.0, SVG Export Plug-In  -->
<!DOCTYPE svg PUBLIC "-//W3C//DTD SVG 20000303 Stylable//EN"   "http://www.w3.org/TR/2000/03/WD-SVG-20000303/DTD/svg-20000303-stylable.dtd" [
	<!ENTITY st0 "fill:none;stroke:#FFFFFF;stroke-width:7.5597;">
	<!ENTITY st1 "fill:#FFFFFF;">
	<!ENTITY st2 "fill:none;stroke:none;">
	<!ENTITY st3 "fill-rule:nonzero;clip-rule:nonzero;stroke:#000000;stroke-miterlimit:4;">
	<!ENTITY st4 "stroke:none;">
]>
<svg  width="48pt" height="48pt" viewBox="0 0 48 48" xml:space="preserve">
	<g id="Layer_x0020_4" style="&st3;">
		<g style="&st4;">
			<path style="&st0;" d="M10.1,6.3c-2.6,0-4.6,2.1-4.6,4.6V37c0,2.6,2.1,4.6,4.6,4.6h27.7c2.6,0,4.6-2.1,4.6-4.6V10.9c0-2.6-2.1-4.6-4.6-4.6H10.1z"/>
			<path d="M10.2,6.3c-2.6,0-4.6,2.1-4.6,4.6v26.1c0,2.6,2.1,4.6,4.6,4.6h27.7c2.6,0,4.6-2.1,4.6-4.6V11c0-2.6-2.1-4.6-4.6-4.6H10.2z"/>
			<path style="&st1;" d="M38.9,35.6c0,1.4-1.1,2.5-2.4,2.5H11.7c-1.4,0-2.5-1.1-2.5-2.5V12.4c0-1.4,1.1-2.5,2.5-2.5h24.7c1.4,0,2.4,1.1,2.4,2.5v23.3z"/>
			<path d="M35.6,31.2H12.5V16.6h23.1v14.6z"/>
		</g>
	</g>
	<g id="crop_x0020_marks" style="&st3;">
		<path style="&st2;" d="M48,48H0V0h48v48z"/>
	</g>
</svg>
